RozhaOne_0.ufo
<glyph name="numbersign" format="1">
  <advance width="501"/>
  <unicode hex="0023"/>
  <outline>
    <contour>
      <point x="65" y="9" type="line"/>
      <point x="86" y="9" type="line"/>
      <point x="259" y="568" type="line"/>
      <point x="238" y="568" type="line"/>
    </contour>
    <contour>
      <point x="255" y="7" type="line"/>
      <point x="276" y="7" type="line"/>
      <point x="449" y="566" type="line"/>
      <point x="428" y="566" type="line"/>
    </contour>
    <contour>
      <point x="448" y="197" type="line"/>
      <point x="20" y="197" type="line"/>
      <point x="20" y="177" type="line"/>
      <point x="448" y="177" type="line"/>
    </contour>
    <contour>
      <point x="494" y="393" type="line"/>
      <point x="61" y="393" type="line"/>
      <point x="61" y="373" type="line"/>
      <point x="494" y="373" type="line"/>
    </contour>
  </outline>
</glyph>
<glyph name="parenleft" format="1">
  <advance width="319"/>
  <unicode hex="0028"/>
  <outline>
    <contour>
      <point x="40" y="285" type="curve" smooth="yes"/>
      <point x="40" y="73"/>
      <point x="186" y="-65"/>
      <point x="309" y="-82" type="curve"/>
      <point x="309" y="-62" type="line"/>
      <point x="228" y="-24"/>
      <point x="180" y="102"/>
      <point x="180" y="285" type="curve" smooth="yes"/>
      <point x="180" y="468"/>
      <point x="228" y="594"/>
      <point x="309" y="632" type="curve"/>
      <point x="309" y="652" type="line"/>
      <point x="186" y="635"/>
      <point x="40" y="497"/>
    </contour>
  </outline>
</glyph>
<glyph name="asterisk" format="1">
  <advance width="328"/>
  <unicode hex="002A"/>
  <outline>
    <contour>
      <point x="169.274" y="439" type="curve"/>
      <point x="158.274" y="439" type="line"/>
      <point x="158.274" y="389"/>
      <point x="119.274" y="380"/>
      <point x="119.274" y="342" type="curve"/>
      <point x="119.274" y="320"/>
      <point x="127.274" y="291"/>
      <point x="163.274" y="291" type="curve" smooth="yes"/>
      <point x="200.274" y="291"/>
      <point x="208.274" y="320"/>
      <point x="208.274" y="342" type="curve"/>
      <point x="208.274" y="381"/>
      <point x="169.274" y="389"/>
    </contour>
    <contour>
      <point x="158.274" y="439" type="curve"/>
      <point x="151.274" y="448" type="line"/>
      <point x="109.274" y="423"/>
      <point x="81.274" y="453"/>
      <point x="48.274" y="433" type="curve"/>
      <point x="30.274" y="423"/>
      <point x="9.274" y="401"/>
      <point x="26.274" y="370" type="curve" smooth="yes"/>
      <point x="45.274" y="338"/>
      <point x="75.274" y="346"/>
      <point x="93.274" y="356" type="curve"/>
      <point x="127.274" y="376"/>
      <point x="115.274" y="414"/>
    </contour>
    <contour>
      <point x="169.274" y="439" type="line"/>
      <point x="212.274" y="414"/>
      <point x="200.274" y="376"/>
      <point x="235.274" y="356" type="curve"/>
      <point x="253.274" y="346"/>
      <point x="283.274" y="338"/>
      <point x="302.274" y="370" type="curve" smooth="yes"/>
      <point x="319.274" y="401"/>
      <point x="298.274" y="423"/>
      <point x="279.274" y="433" type="curve"/>
      <point x="247.274" y="453"/>
      <point x="219.274" y="423"/>
      <point x="176.274" y="448" type="curve"/>
    </contour>
    <contour>
      <point x="169.274" y="457" type="curve"/>
      <point x="176.274" y="448" type="line"/>
      <point x="219.274" y="473"/>
      <point x="247.274" y="443"/>
      <point x="279.274" y="463" type="curve"/>
      <point x="298.274" y="473"/>
      <point x="319.274" y="495"/>
      <point x="302.274" y="526" type="curve" smooth="yes"/>
      <point x="283.274" y="558"/>
      <point x="253.274" y="550"/>
      <point x="235.274" y="540" type="curve"/>
      <point x="200.274" y="520"/>
      <point x="212.274" y="482"/>
    </contour>
    <contour>
      <point x="158.274" y="457" type="line"/>
      <point x="115.274" y="482"/>
      <point x="127.274" y="520"/>
      <point x="93.274" y="540" type="curve"/>
      <point x="75.274" y="550"/>
      <point x="45.274" y="558"/>
      <point x="26.274" y="526" type="curve" smooth="yes"/>
      <point x="9.274" y="495"/>
      <point x="30.274" y="473"/>
      <point x="48.274" y="463" type="curve"/>
      <point x="81.274" y="443"/>
      <point x="109.274" y="473"/>
      <point x="151.274" y="448" type="curve"/>
    </contour>
    <contour>
      <point x="169.274" y="457" type="line"/>
      <point x="169.274" y="507"/>
      <point x="208.274" y="515"/>
      <point x="208.274" y="554" type="curve"/>
      <point x="208.274" y="576"/>
      <point x="200.274" y="605"/>
      <point x="163.274" y="605" type="curve" smooth="yes"/>
      <point x="127.274" y="605"/>
      <point x="119.274" y="576"/>
      <point x="119.274" y="554" type="curve"/>
      <point x="119.274" y="516"/>
      <point x="158.274" y="507"/>
      <point x="158.274" y="457" type="curve"/>
    </contour>
    <contour>
      <point x="151.274" y="439" type="line"/>
      <point x="176.274" y="439" type="line"/>
      <point x="176.274" y="457" type="line"/>
      <point x="151.274" y="457" type="line"/>
    </contour>
  </outline>
</glyph>
<glyph name="period" format="1">
  <advance width="255"/>
  <unicode hex="002E"/>
  <outline>
    <contour>
      <point x="36" y="71" type="curve" smooth="yes"/>
      <point x="36" y="20"/>
      <point x="78" y="-21"/>
      <point x="128" y="-21" type="curve" smooth="yes"/>
      <point x="180" y="-21"/>
      <point x="221" y="20"/>
      <point x="221" y="71" type="curve" smooth="yes"/>
      <point x="221" y="123"/>
      <point x="180" y="164"/>
      <point x="128" y="164" type="curve" smooth="yes"/>
      <point x="78" y="164"/>
      <point x="36" y="123"/>
    </contour>
  </outline>
</glyph>
<glyph name="one" format="1">
  <advance width="377"/>
  <unicode hex="0031"/>
  <outline>
    <contour>
      <point x="277" y="0" type="line"/>
      <point x="277" y="582" type="line"/>
      <point x="241" y="582" type="line"/>
      <point x="40" y="489" type="line"/>
      <point x="46" y="470" type="line"/>
      <point x="127" y="501" type="line"/>
      <point x="127" y="0" type="line"/>
    </contour>
    <contour>
      <point x="347" y="20" type="line"/>
      <point x="47" y="20" type="line"/>
      <point x="47" y="0" type="line"/>
      <point x="347" y="0" type="line"/>
    </contour>
  </outline>
</glyph>
<glyph name="four" format="1">
  <advance width="531"/>
  <unicode hex="0034"/>
  <outline>
    <contour>
      <point x="244" y="8" type="line"/>
      <point x="394" y="8" type="line"/>
      <point x="394" y="582" type="line"/>
      <point x="294" y="582" type="line"/>
      <point x="10" y="163" type="line"/>
      <point x="36" y="163" type="line"/>
      <point x="244" y="472" type="line"/>
    </contour>
    <contour>
      <point x="459" y="20" type="line"/>
      <point x="179" y="20" type="line"/>
      <point x="179" y="0" type="line"/>
      <point x="459" y="0" type="line"/>
    </contour>
    <contour>
      <point x="488" y="163" type="line"/>
      <point x="10" y="163" type="line"/>
      <point x="10" y="143" type="line"/>
      <point x="488" y="143" type="line"/>
    </contour>
    <contour>
      <point x="468" y="229" type="line"/>
      <point x="468" y="75" type="line"/>
      <point x="491" y="75" type="line"/>
      <point x="491" y="229" type="line"/>
    </contour>
  </outline>
</glyph>
<glyph name="seven" format="1">
  <advance width="472"/>
  <unicode hex="0037"/>
  <outline>
    <contour>
      <point x="409" y="485" type="line"/>
      <point x="332" y="309"/>
      <point x="129" y="294"/>
      <point x="129" y="96" type="curve" smooth="yes"/>
      <point x="129" y="37"/>
      <point x="158" y="-12"/>
      <point x="225" y="-12" type="curve" smooth="yes"/>
      <point x="276" y="-12"/>
      <point x="313" y="37"/>
      <point x="313" y="81" type="curve" smooth="yes"/>
      <point x="313" y="121"/>
      <point x="295" y="150"/>
      <point x="295" y="192" type="curve" smooth="yes"/>
      <point x="295" y="366"/>
      <point x="452" y="375"/>
      <point x="452" y="599" type="curve"/>
      <point x="435" y="599" type="line"/>
      <point x="428" y="561"/>
      <point x="416" y="534"/>
      <point x="379" y="534" type="curve" smooth="yes"/>
      <point x="313" y="534"/>
      <point x="223" y="592"/>
      <point x="127" y="592" type="curve" smooth="yes"/>
      <point x="44" y="592"/>
      <point x="10" y="533"/>
      <point x="10" y="460" type="curve" smooth="yes"/>
      <point x="10" y="438"/>
      <point x="13" y="395"/>
      <point x="19" y="372" type="curve"/>
      <point x="30" y="372" type="line"/>
      <point x="32" y="414"/>
      <point x="56" y="447"/>
      <point x="95" y="447" type="curve" smooth="yes"/>
      <point x="146" y="447"/>
      <point x="212" y="424"/>
      <point x="274" y="424" type="curve" smooth="yes"/>
      <point x="336" y="424"/>
      <point x="378" y="441"/>
      <point x="406" y="488" type="curve"/>
    </contour>
  </outline>
</glyph>
<glyph name="less" format="1">
  <advance width="483"/>
  <unicode hex="003C"/>
  <outline>
    <contour>
      <point x="453" y="45" type="line"/>
      <point x="61" y="242" type="line"/>
      <point x="453" y="439" type="line"/>
      <point x="453" y="461" type="line"/>
      <point x="30" y="249" type="line"/>
      <point x="30" y="236" type="line"/>
      <point x="453" y="22" type="line"/>
    </contour>
  </outline>
</glyph>
<glyph name="equal" format="1">
  <advance width="465"/>
  <unicode hex="003D"/>
  <outline>
    <contour>
      <point x="435" y="321" type="line"/>
      <point x="30" y="321" type="line"/>
      <point x="30" y="301" type="line"/>
      <point x="435" y="301" type="line"/>
    </contour>
    <contour>
      <point x="435" y="166" type="line"/>
      <point x="30" y="166" type="line"/>
      <point x="30" y="145" type="line"/>
      <point x="435" y="145" type="line"/>
    </contour>
  </outline>
</glyph>
<glyph name="greater" format="1">
  <advance width="483"/>
  <unicode hex="003E"/>
  <outline>
    <contour>
      <point x="30" y="22" type="line"/>
      <point x="453" y="236" type="line"/>
      <point x="453" y="249" type="line"/>
      <point x="30" y="461" type="line"/>
      <point x="30" y="439" type="line"/>
      <point x="422" y="242" type="line"/>
      <point x="30" y="45" type="line"/>
    </contour>
  </outline>
</glyph>
<glyph name="A" format="1">
  <advance width="643"/>
  <unicode hex="0041"/>
  <outline>
    <contour>
      <point x="390" y="180" type="line"/>
      <point x="160" y="180" type="line"/>
      <point x="157" y="159" type="line"/>
      <point x="390" y="159" type="line"/>
    </contour>
    <contour>
      <point x="633" y="20" type="line"/>
      <point x="370" y="20" type="line"/>
      <point x="370" y="0" type="line"/>
      <point x="633" y="0" type="line"/>
    </contour>
    <contour>
      <point x="181" y="20" type="line"/>
      <point x="10" y="20" type="line"/>
      <point x="10" y="0" type="line"/>
      <point x="181" y="0" type="line"/>
    </contour>
    <contour>
      <point x="331" y="570" type="line"/>
      <point x="310" y="570" type="line"/>
      <point x="310" y="570"/>
      <point x="250" y="392"/>
      <point x="250" y="392" type="curve"/>
      <point x="438" y="1" type="line"/>
      <point x="594" y="1" type="line"/>
    </contour>
    <contour>
      <point x="94" y="0" type="line"/>
      <point x="331" y="570" type="line"/>
      <point x="306" y="570" type="line"/>
      <point x="69" y="0" type="line"/>
    </contour>
  </outline>
</glyph>
<glyph name="E" format="1">
  <advance width="545"/>
  <unicode hex="0045"/>
  <outline>
    <contour>
      <point x="340" y="20" type="curve"/>
      <point x="240" y="20" type="line"/>
      <point x="240" y="280" type="line"/>
      <point x="280" y="280" type="line"/>
      <point x="380" y="280"/>
      <point x="390" y="262"/>
      <point x="390" y="190" type="curve"/>
      <point x="410" y="190" type="line"/>
      <point x="410" y="390" type="line"/>
      <point x="390" y="390" type="line"/>
      <point x="390" y="322"/>
      <point x="380" y="300"/>
      <point x="280" y="300" type="curve"/>
      <point x="240" y="300" type="line"/>
      <point x="240" y="540" type="line"/>
      <point x="330" y="540" type="line"/>
      <point x="427" y="540"/>
      <point x="480" y="516"/>
      <point x="480" y="390" type="curve"/>
      <point x="500" y="390" type="line"/>
      <point x="500" y="560" type="line"/>
      <point x="40" y="560" type="line"/>
      <point x="40" y="540" type="line"/>
      <point x="90" y="540" type="line"/>
      <point x="90" y="20" type="line"/>
      <point x="40" y="20" type="line"/>
      <point x="40" y="0" type="line"/>
      <point x="510" y="0" type="line"/>
      <point x="510" y="190" type="line"/>
      <point x="490" y="190" type="line"/>
      <point x="490" y="54"/>
      <point x="417" y="20"/>
    </contour>
  </outline>
</glyph>
<glyph name="F" format="1">
  <advance width="530"/>
  <unicode hex="0046"/>
  <outline>
    <contour>
      <point x="500" y="390" type="line"/>
      <point x="500" y="540" type="line"/>
      <point x="330" y="540" type="line"/>
      <point x="427" y="540"/>
      <point x="480" y="516"/>
      <point x="480" y="390" type="curve"/>
    </contour>
    <contour>
      <point x="240" y="560" type="line"/>
      <point x="90" y="560" type="line"/>
      <point x="90" y="1" type="line"/>
      <point x="240" y="1" type="line"/>
    </contour>
    <contour>
      <point x="390" y="278" type="line"/>
      <point x="150" y="278" type="line"/>
      <point x="150" y="258" type="line"/>
      <point x="390" y="258" type="line"/>
    </contour>
    <contour>
      <point x="500" y="560" type="line"/>
      <point x="40" y="560" type="line"/>
      <point x="40" y="540" type="line"/>
      <point x="500" y="540" type="line"/>
    </contour>
    <contour>
      <point x="410" y="168" type="line"/>
      <point x="410" y="368" type="line"/>
      <point x="390" y="368" type="line"/>
      <point x="390" y="300"/>
      <point x="380" y="278"/>
      <point x="280" y="278" type="curve"/>
      <point x="280" y="258" type="line"/>
      <point x="380" y="258"/>
      <point x="390" y="240"/>
      <point x="390" y="168" type="curve"/>
    </contour>
    <contour>
      <point x="300" y="20" type="line"/>
      <point x="40" y="20" type="line"/>
      <point x="40" y="0" type="line"/>
      <point x="300" y="0" type="line"/>
    </contour>
  </outline>
</glyph>
<glyph name="G" format="1">
  <advance width="608"/>
  <unicode hex="0047"/>
  <outline>
    <contour>
      <point x="477" y="54" type="curve"/>
      <point x="503" y="54"/>
      <point x="522" y="31"/>
      <point x="522" y="0" type="curve"/>
      <point x="541" y="0" type="line"/>
      <point x="541" y="250" type="line"/>
      <point x="588" y="250" type="line"/>
      <point x="588" y="270" type="line"/>
      <point x="348" y="270" type="line"/>
      <point x="348" y="250" type="line"/>
      <point x="411" y="250" type="line"/>
      <point x="411" y="176" type="line"/>
      <point x="411" y="61"/>
      <point x="380" y="5"/>
      <point x="315" y="5" type="curve"/>
      <point x="239" y="5"/>
      <point x="191" y="70"/>
      <point x="191" y="270" type="curve"/>
      <point x="191" y="484"/>
      <point x="237" y="553"/>
      <point x="313" y="553" type="curve" smooth="yes"/>
      <point x="418" y="553"/>
      <point x="510" y="458"/>
      <point x="510" y="357" type="curve"/>
      <point x="530" y="357" type="line"/>
      <point x="530" y="560" type="line"/>
      <point x="511" y="560" type="line"/>
      <point x="511" y="548"/>
      <point x="502" y="523"/>
      <point x="480" y="523" type="curve" smooth="yes"/>
      <point x="448" y="523"/>
      <point x="401" y="573"/>
      <point x="313" y="573" type="curve" smooth="yes"/>
      <point x="138" y="573"/>
      <point x="30" y="484"/>
      <point x="30" y="270" type="curve"/>
      <point x="30" y="72"/>
      <point x="139" y="-15"/>
      <point x="315" y="-15" type="curve"/>
      <point x="409" y="-15"/>
      <point x="421" y="54"/>
    </contour>
  </outline>
</glyph>
<glyph name="H" format="1">
  <advance width="657"/>
  <unicode hex="0048"/>
  <outline>
    <contour>
      <point x="464" y="308" type="line"/>
      <point x="184" y="308" type="line"/>
      <point x="184" y="288" type="line"/>
      <point x="464" y="288" type="line"/>
    </contour>
    <contour>
      <point x="627" y="20" type="line"/>
      <point x="377" y="20" type="line" smooth="yes"/>
      <point x="377" y="0" type="line"/>
      <point x="627" y="0" type="line"/>
    </contour>
    <contour>
      <point x="577" y="560" type="line"/>
      <point x="427" y="560" type="line"/>
      <point x="427" y="1" type="line"/>
      <point x="577" y="1" type="line"/>
    </contour>
    <contour>
      <point x="627" y="560" type="line"/>
      <point x="377" y="560" type="line"/>
      <point x="377" y="540" type="line"/>
      <point x="627" y="540" type="line"/>
    </contour>
    <contour>
      <point x="280" y="20" type="line"/>
      <point x="30" y="20" type="line" smooth="yes"/>
      <point x="30" y="0" type="line"/>
      <point x="280" y="0" type="line"/>
    </contour>
    <contour>
      <point x="280" y="560" type="line"/>
      <point x="30" y="560" type="line"/>
      <point x="30" y="540" type="line"/>
      <point x="280" y="540" type="line"/>
    </contour>
    <contour>
      <point x="230" y="560" type="line"/>
      <point x="80" y="560" type="line"/>
      <point x="80" y="1" type="line"/>
      <point x="230" y="1" type="line"/>
    </contour>
  </outline>
</glyph>
<glyph name="I" format="1">
  <advance width="330"/>
  <unicode hex="0049"/>
  <outline>
    <contour>
      <point x="290" y="0" type="line"/>
      <point x="290" y="20" type="line"/>
      <point x="240" y="20" type="line"/>
      <point x="240" y="540" type="line"/>
      <point x="290" y="540" type="line"/>
      <point x="290" y="560" type="line"/>
      <point x="40" y="560" type="line"/>
      <point x="40" y="540" type="line"/>
      <point x="90" y="540" type="line"/>
      <point x="90" y="20" type="line"/>
      <point x="40" y="20" type="line"/>
      <point x="40" y="0" type="line"/>
    </contour>
  </outline>
</glyph>
<glyph name="J" format="1">
  <advance width="500"/>
  <unicode hex="004A"/>
  <outline>
    <contour>
      <point x="184" y="0" type="curve" smooth="yes"/>
      <point x="346" y="0"/>
      <point x="420" y="80"/>
      <point x="420" y="206" type="curve"/>
      <point x="420" y="540" type="line"/>
      <point x="470" y="540" type="line"/>
      <point x="470" y="560" type="line"/>
      <point x="220" y="560" type="line"/>
      <point x="220" y="540" type="line"/>
      <point x="270" y="540" type="line"/>
      <point x="270" y="197" type="line"/>
      <point x="270" y="102"/>
      <point x="246" y="23"/>
      <point x="151" y="23" type="curve" smooth="yes"/>
      <point x="107" y="23"/>
      <point x="65" y="45"/>
      <point x="65" y="70" type="curve" smooth="yes"/>
      <point x="65" y="89"/>
      <point x="86" y="87"/>
      <point x="110" y="95" type="curve" smooth="yes"/>
      <point x="146" y="106"/>
      <point x="162" y="131"/>
      <point x="162" y="160" type="curve" smooth="yes"/>
      <point x="162" y="201"/>
      <point x="133" y="232"/>
      <point x="93" y="232" type="curve" smooth="yes"/>
      <point x="43" y="232"/>
      <point x="10" y="188"/>
      <point x="10" y="140" type="curve" smooth="yes"/>
      <point x="10" y="46"/>
      <point x="83" y="0"/>
    </contour>
  </outline>
</glyph>
<glyph name="K" format="1">
  <advance width="640"/>
  <unicode hex="004B"/>
  <outline>
    <contour>
      <point x="630" y="20" type="line"/>
      <point x="370" y="20" type="line"/>
      <point x="370" y="0" type="line"/>
      <point x="630" y="0" type="line"/>
    </contour>
    <contour>
      <point x="584" y="560" type="line"/>
      <point x="380" y="560" type="line"/>
      <point x="380" y="540" type="line"/>
      <point x="584" y="540" type="line"/>
    </contour>
    <contour>
      <point x="290" y="560" type="line"/>
      <point x="40" y="560" type="line"/>
      <point x="40" y="540" type="line"/>
      <point x="290" y="540" type="line"/>
    </contour>
    <contour>
      <point x="426" y="0" type="line"/>
      <point x="598" y="0" type="line"/>
      <point x="376" y="400" type="line" smooth="yes"/>
      <point x="277" y="272" type="line"/>
    </contour>
    <contour>
      <point x="240" y="560" type="line"/>
      <point x="90" y="560" type="line"/>
      <point x="90" y="0" type="line"/>
      <point x="240" y="0" type="line"/>
    </contour>
    <contour>
      <point x="232" y="200" type="line"/>
      <point x="514" y="559" type="line"/>
      <point x="487" y="559" type="line"/>
      <point x="205" y="200" type="line"/>
    </contour>
    <contour>
      <point x="290" y="20" type="line"/>
      <point x="40" y="20" type="line"/>
      <point x="40" y="0" type="line"/>
      <point x="290" y="0" type="line"/>
    </contour>
  </outline>
</glyph>
<glyph name="L" format="1">
  <advance width="520"/>
  <unicode hex="004C"/>
  <outline>
    <contour>
      <point x="300" y="560" type="line"/>
      <point x="40" y="560" type="line"/>
      <point x="40" y="540" type="line"/>
      <point x="300" y="540" type="line"/>
    </contour>
    <contour>
      <point x="510" y="20" type="line"/>
      <point x="40" y="20" type="line"/>
      <point x="40" y="0" type="line"/>
      <point x="510" y="0" type="line"/>
    </contour>
    <contour>
      <point x="240" y="560" type="line"/>
      <point x="90" y="560" type="line"/>
      <point x="90" y="1" type="line"/>
      <point x="240" y="1" type="line"/>
    </contour>
    <contour>
      <point x="510" y="190" type="line"/>
      <point x="510" y="20" type="line"/>
      <point x="340" y="20" type="line"/>
      <point x="417" y="20"/>
      <point x="490" y="34"/>
      <point x="490" y="190" type="curve"/>
    </contour>
  </outline>
</glyph>
<glyph name="M" format="1">
  <advance width="784"/>
  <unicode hex="004D"/>
  <outline>
    <contour>
      <point x="754" y="20" type="line"/>
      <point x="504" y="20" type="line" smooth="yes"/>
      <point x="504" y="0" type="line"/>
      <point x="754" y="0" type="line"/>
    </contour>
    <contour>
      <point x="754" y="560" type="line"/>
      <point x="704" y="560" type="line"/>
      <point x="704" y="540" type="line"/>
      <point x="754" y="540" type="line"/>
    </contour>
    <contour>
      <point x="704" y="560" type="line"/>
      <point x="554" y="560" type="line"/>
      <point x="554" y="1" type="line"/>
      <point x="704" y="1" type="line"/>
    </contour>
    <contour>
      <point x="356" y="-10" type="line"/>
      <point x="576" y="560" type="line"/>
      <point x="554" y="560" type="line"/>
      <point x="333" y="-10" type="line"/>
    </contour>
    <contour>
      <point x="111" y="12" type="line"/>
      <point x="111" y="560" type="line"/>
      <point x="91" y="560" type="line"/>
      <point x="91" y="12" type="line"/>
    </contour>
    <contour>
      <point x="191" y="20" type="line"/>
      <point x="31" y="20" type="line" smooth="yes"/>
      <point x="31" y="0" type="line"/>
      <point x="191" y="0" type="line"/>
    </contour>
    <contour>
      <point x="253" y="560" type="line"/>
      <point x="93" y="560" type="line"/>
      <point x="333" y="-10" type="line"/>
      <point x="333" y="-10"/>
      <point x="413" y="175"/>
      <point x="413" y="175" type="curve"/>
    </contour>
    <contour>
      <point x="91" y="560" type="line"/>
      <point x="30" y="560" type="line"/>
      <point x="30" y="540" type="line"/>
      <point x="91" y="540" type="line"/>
    </contour>
    <contour>
      <point x="224" y="560" type="line"/>
      <point x="82" y="560" type="line"/>
      <point x="82" y="540" type="line"/>
      <point x="224" y="540" type="line"/>
    </contour>
  </outline>
</glyph>
<glyph name="O" format="1">
  <advance width="622"/>
  <unicode hex="004F"/>
  <outline>
    <contour>
      <point x="311" y="-10" type="curve" smooth="yes"/>
      <point x="473" y="-10"/>
      <point x="602" y="82"/>
      <point x="602" y="281" type="curve"/>
      <point x="602" y="456"/>
      <point x="491" y="572"/>
      <point x="311" y="572" type="curve" smooth="yes"/>
      <point x="137" y="572"/>
      <point x="20" y="456"/>
      <point x="20" y="281" type="curve"/>
      <point x="20" y="82"/>
      <point x="144" y="-10"/>
    </contour>
    <contour>
      <point x="311" y="552" type="curve" smooth="yes"/>
      <point x="393" y="552"/>
      <point x="441" y="451"/>
      <point x="441" y="281" type="curve"/>
      <point x="441" y="105"/>
      <point x="397" y="10"/>
      <point x="311" y="10" type="curve" smooth="yes"/>
      <point x="228" y="10"/>
      <point x="181" y="105"/>
      <point x="181" y="281" type="curve"/>
      <point x="181" y="451"/>
      <point x="231" y="552"/>
    </contour>
  </outline>
</glyph>
<glyph name="R" format="1">
  <advance width="633"/>
  <unicode hex="0052"/>
  <outline>
    <contour>
      <point x="623" y="-10" type="line"/>
      <point x="623" y="10" type="line"/>
      <point x="585" y="10"/>
      <point x="561" y="46"/>
      <point x="534" y="139" type="curve" smooth="yes"/>
      <point x="517" y="197"/>
      <point x="483" y="271"/>
      <point x="395" y="271" type="curve"/>
      <point x="395" y="278" type="line"/>
      <point x="483" y="278"/>
      <point x="548" y="331"/>
      <point x="548" y="411" type="curve"/>
      <point x="548" y="490"/>
      <point x="496" y="560"/>
      <point x="293" y="560" type="curve"/>
      <point x="30" y="560" type="line"/>
      <point x="30" y="540" type="line"/>
      <point x="80" y="540" type="line"/>
      <point x="80" y="20" type="line"/>
      <point x="30" y="20" type="line"/>
      <point x="30" y="0" type="line"/>
      <point x="280" y="0" type="line"/>
      <point x="280" y="20" type="line"/>
      <point x="230" y="20" type="line"/>
      <point x="230" y="262" type="line"/>
      <point x="274" y="262" type="line"/>
      <point x="409" y="262"/>
      <point x="266" y="-10"/>
      <point x="579" y="-10" type="curve" smooth="yes"/>
    </contour>
    <contour>
      <point x="230" y="540" type="line"/>
      <point x="369" y="540"/>
      <point x="398" y="490"/>
      <point x="398" y="412" type="curve"/>
      <point x="398" y="320"/>
      <point x="369" y="282"/>
      <point x="230" y="282" type="curve"/>
    </contour>
  </outline>
</glyph>
<glyph name="S" format="1">
  <advance width="558"/>
  <unicode hex="0053"/>
  <outline>
    <contour>
      <point x="80" y="0" type="curve"/>
      <point x="80" y="28"/>
      <point x="95" y="40"/>
      <point x="117" y="40" type="curve" smooth="yes"/>
      <point x="153" y="40"/>
      <point x="205" y="-15"/>
      <point x="316" y="-15" type="curve" smooth="yes"/>
      <point x="434" y="-15"/>
      <point x="507" y="42"/>
      <point x="518" y="151" type="curve"/>
      <point x="528" y="283"/>
      <point x="418" y="318"/>
      <point x="328" y="360" type="curve" smooth="yes"/>
      <point x="255" y="394"/>
      <point x="182" y="410"/>
      <point x="182" y="473" type="curve" smooth="yes"/>
      <point x="182" y="517"/>
      <point x="211" y="550"/>
      <point x="261" y="550" type="curve" smooth="yes"/>
      <point x="371" y="550"/>
      <point x="450" y="483"/>
      <point x="450" y="387" type="curve"/>
      <point x="450" y="387"/>
      <point x="470" y="387"/>
      <point x="470" y="387" type="curve"/>
      <point x="470" y="570" type="line"/>
      <point x="470" y="570"/>
      <point x="450" y="570"/>
      <point x="450" y="570" type="curve"/>
      <point x="450" y="556"/>
      <point x="446" y="535"/>
      <point x="430" y="535" type="curve" smooth="yes"/>
      <point x="400" y="535"/>
      <point x="358" y="570"/>
      <point x="260" y="570" type="curve" smooth="yes"/>
      <point x="166" y="570"/>
      <point x="86" y="511"/>
      <point x="76" y="407" type="curve" smooth="yes"/>
      <point x="65" y="291"/>
      <point x="152" y="257"/>
      <point x="261" y="208" type="curve" smooth="yes"/>
      <point x="341" y="172"/>
      <point x="401" y="146"/>
      <point x="401" y="93" type="curve" smooth="yes"/>
      <point x="401" y="40"/>
      <point x="364" y="7"/>
      <point x="312" y="7" type="curve" smooth="yes"/>
      <point x="183" y="7"/>
      <point x="80" y="108"/>
      <point x="80" y="233" type="curve"/>
      <point x="60" y="233" type="line"/>
      <point x="60" y="0" type="line"/>
      <point x="60" y="0"/>
      <point x="80" y="0"/>
    </contour>
  </outline>
</glyph>
<glyph name="Y" format="1">
  <advance width="616"/>
  <unicode hex="0059"/>
  <outline>
    <contour>
      <point x="431" y="0" type="line"/>
      <point x="431" y="20" type="line"/>
      <point x="391" y="20" type="line"/>
      <point x="391" y="258" type="line"/>
      <point x="536" y="540" type="line"/>
      <point x="606" y="540" type="line"/>
      <point x="606" y="560" type="line"/>
      <point x="431" y="560" type="line"/>
      <point x="431" y="540" type="line"/>
      <point x="511" y="540" type="line"/>
      <point x="381" y="288" type="line"/>
      <point x="241" y="540" type="line"/>
      <point x="290" y="540" type="line"/>
      <point x="290" y="560" type="line"/>
      <point x="10" y="560" type="line"/>
      <point x="10" y="540" type="line"/>
      <point x="62" y="540" type="line"/>
      <point x="241" y="231" type="line"/>
      <point x="241" y="20" type="line"/>
      <point x="201" y="20" type="line" smooth="yes"/>
      <point x="201" y="0" type="line"/>
    </contour>
  </outline>
</glyph>
<glyph name="Z" format="1">
  <advance width="529"/>
  <unicode hex="005A"/>
  <outline>
    <contour>
      <point x="324" y="560" type="line"/>
      <point x="30" y="20" type="line"/>
      <point x="30" y="20"/>
      <point x="35" y="0"/>
      <point x="35" y="0" type="curve"/>
      <point x="184" y="0" type="line"/>
      <point x="482" y="540" type="line"/>
      <point x="482" y="540"/>
      <point x="478" y="560"/>
      <point x="478" y="560" type="curve"/>
    </contour>
    <contour>
      <point x="30" y="0" type="line"/>
      <point x="489" y="0" type="line"/>
      <point x="489" y="210" type="line"/>
      <point x="469" y="210" type="line"/>
      <point x="469" y="44"/>
      <point x="416" y="20"/>
      <point x="300" y="20" type="curve"/>
      <point x="300" y="20"/>
      <point x="30" y="20"/>
      <point x="30" y="20" type="curve"/>
    </contour>
    <contour>
      <point x="482" y="560" type="line"/>
      <point x="60" y="560" type="line"/>
      <point x="60" y="370" type="line"/>
      <point x="80" y="370" type="line"/>
      <point x="80" y="516"/>
      <point x="133" y="540"/>
      <point x="249" y="540" type="curve"/>
      <point x="249" y="540"/>
      <point x="482" y="540"/>
      <point x="482" y="540" type="curve"/>
    </contour>
  </outline>
</glyph>
<glyph name="bracketright" format="1">
  <advance width="270"/>
  <unicode hex="005D"/>
  <outline>
    <contour>
      <point x="220" y="-57" type="line"/>
      <point x="220" y="617" type="line"/>
      <point x="10" y="617" type="line"/>
      <point x="10" y="597" type="line"/>
      <point x="96" y="597" type="line"/>
      <point x="96" y="-37" type="line"/>
      <point x="10" y="-37" type="line"/>
      <point x="10" y="-57" type="line"/>
    </contour>
  </outline>
</glyph>
<glyph name="asciicircum" format="1">
  <advance width="342"/>
  <unicode hex="005E"/>
  <outline>
    <contour>
      <point x="171" y="455" type="line"/>
      <point x="294" y="198" type="line"/>
      <point x="312" y="206" type="line"/>
      <point x="177" y="489" type="line"/>
      <point x="165" y="489" type="line"/>
      <point x="30" y="206" type="line"/>
      <point x="47" y="198" type="line"/>
    </contour>
  </outline>
</glyph>
<glyph name="underscore" format="1">
  <advance width="522"/>
  <unicode hex="005F"/>
  <outline>
    <contour>
      <point x="30" y="-64" type="line"/>
      <point x="492" y="-64" type="line"/>
      <point x="492" y="-44" type="line"/>
      <point x="30" y="-44" type="line"/>
    </contour>
  </outline>
</glyph>
<glyph name="f" format="1">
  <advance width="432"/>
  <unicode hex="0066"/>
  <outline>
    <contour>
      <point x="290" y="0" type="line"/>
      <point x="290" y="20" type="line"/>
      <point x="240" y="20" type="line"/>
      <point x="240" y="440" type="line"/>
      <point x="370" y="440" type="line"/>
      <point x="370" y="460" type="line"/>
      <point x="240" y="460" type="line"/>
      <point x="240" y="588"/>
      <point x="249" y="660"/>
      <point x="288" y="660" type="curve"/>
      <point x="315" y="660"/>
      <point x="326" y="636"/>
      <point x="326" y="591" type="curve"/>
      <point x="326" y="548"/>
      <point x="349" y="531"/>
      <point x="380" y="531" type="curve" smooth="yes"/>
      <point x="407" y="531"/>
      <point x="432" y="549"/>
      <point x="432" y="582" type="curve" smooth="yes"/>
      <point x="432" y="629"/>
      <point x="388" y="680"/>
      <point x="288" y="680" type="curve" smooth="yes"/>
      <point x="149" y="680"/>
      <point x="90" y="602"/>
      <point x="90" y="460" type="curve"/>
      <point x="30" y="460" type="line"/>
      <point x="30" y="440" type="line"/>
      <point x="90" y="440" type="line"/>
      <point x="90" y="20" type="line"/>
      <point x="40" y="20" type="line"/>
      <point x="40" y="0" type="line"/>
    </contour>
  </outline>
</glyph>
<glyph name="k" format="1">
  <advance width="618"/>
  <unicode hex="006B"/>
  <outline>
    <contour>
      <point x="608" y="0" type="curve"/>
      <point x="608" y="20" type="line"/>
      <point x="580" y="20"/>
      <point x="536" y="56"/>
      <point x="479" y="141" type="curve" smooth="yes"/>
      <point x="357" y="324" type="line"/>
      <point x="245" y="226" type="line"/>
      <point x="316" y="117" type="line" smooth="yes"/>
      <point x="386" y="9"/>
      <point x="434" y="0"/>
    </contour>
    <contour>
      <point x="558" y="460" type="line"/>
      <point x="368" y="460" type="line"/>
      <point x="368" y="440" type="line"/>
      <point x="558" y="440" type="line"/>
    </contour>
    <contour>
      <point x="226" y="188" type="line"/>
      <point x="498" y="459" type="line"/>
      <point x="468" y="459" type="line"/>
      <point x="196" y="188" type="line"/>
    </contour>
    <contour>
      <point x="290" y="20" type="line"/>
      <point x="40" y="20" type="line"/>
      <point x="40" y="0" type="line"/>
      <point x="290" y="0" type="line"/>
    </contour>
    <contour>
      <point x="240" y="670" type="line"/>
      <point x="90" y="670" type="line"/>
      <point x="90" y="0" type="line"/>
      <point x="240" y="0" type="line"/>
    </contour>
    <contour>
      <point x="230" y="670" type="line"/>
      <point x="40" y="670" type="line"/>
      <point x="40" y="650" type="line"/>
      <point x="230" y="650" type="line"/>
    </contour>
  </outline>
</glyph>
<glyph name="m" format="1">
  <advance width="960"/>
  <unicode hex="006D"/>
  <outline>
    <contour>
      <point x="535" y="341" type="line"/>
      <point x="554" y="400"/>
      <point x="605" y="431"/>
      <point x="646" y="431" type="curve" smooth="yes"/>
      <point x="700" y="431"/>
      <point x="730" y="398"/>
      <point x="730" y="300" type="curve" smooth="yes"/>
      <point x="730" y="14" type="line"/>
      <point x="880" y="14" type="line"/>
      <point x="880" y="278" type="line" smooth="yes"/>
      <point x="880" y="405"/>
      <point x="819" y="471"/>
      <point x="702" y="471" type="curve" smooth="yes"/>
      <point x="623" y="471"/>
      <point x="543" y="433"/>
      <point x="521" y="365" type="curve"/>
    </contour>
    <contour>
      <point x="930" y="20" type="line"/>
      <point x="680" y="20" type="line"/>
      <point x="680" y="0" type="line"/>
      <point x="930" y="0" type="line"/>
    </contour>
    <contour>
      <point x="290" y="20" type="line"/>
      <point x="40" y="20" type="line"/>
      <point x="40" y="0" type="line"/>
      <point x="290" y="0" type="line"/>
    </contour>
    <contour>
      <point x="230" y="351" type="line"/>
      <point x="252" y="404"/>
      <point x="290" y="431"/>
      <point x="331" y="431" type="curve" smooth="yes"/>
      <point x="385" y="431"/>
      <point x="415" y="398"/>
      <point x="415" y="300" type="curve" smooth="yes"/>
      <point x="415" y="14" type="line"/>
      <point x="565" y="14" type="line"/>
      <point x="565" y="278" type="line" smooth="yes"/>
      <point x="565" y="415"/>
      <point x="524" y="471"/>
      <point x="387" y="471" type="curve" smooth="yes"/>
      <point x="308" y="471"/>
      <point x="241" y="428"/>
      <point x="230" y="387" type="curve"/>
    </contour>
    <contour>
      <point x="615" y="20" type="line"/>
      <point x="355" y="20" type="line"/>
      <point x="355" y="0" type="line"/>
      <point x="615" y="0" type="line"/>
    </contour>
    <contour>
      <point x="240" y="451" type="line"/>
      <point x="90" y="451" type="line"/>
      <point x="90" y="1" type="line"/>
      <point x="240" y="1" type="line"/>
    </contour>
    <contour>
      <point x="240" y="460" type="line"/>
      <point x="40" y="460" type="line"/>
      <point x="40" y="440" type="line"/>
      <point x="240" y="440" type="line"/>
    </contour>
  </outline>
</glyph>
<glyph name="o" format="1">
  <advance width="564"/>
  <unicode hex="006F"/>
  <outline>
    <contour>
      <point x="281" y="-10" type="curve"/>
      <point x="396" y="-10"/>
      <point x="534" y="64"/>
      <point x="534" y="228" type="curve" smooth="yes"/>
      <point x="534" y="398"/>
      <point x="396" y="470"/>
      <point x="281" y="470" type="curve"/>
      <point x="166" y="470"/>
      <point x="30" y="398"/>
      <point x="30" y="228" type="curve" smooth="yes"/>
      <point x="30" y="64"/>
      <point x="166" y="-10"/>
    </contour>
    <contour>
      <point x="281" y="10" type="curve"/>
      <point x="208" y="10"/>
      <point x="183" y="75"/>
      <point x="183" y="228" type="curve" smooth="yes"/>
      <point x="183" y="385"/>
      <point x="208" y="450"/>
      <point x="281" y="450" type="curve"/>
      <point x="354" y="450"/>
      <point x="381" y="385"/>
      <point x="381" y="228" type="curve"/>
      <point x="381" y="75"/>
      <point x="354" y="10"/>
    </contour>
  </outline>
</glyph>
<glyph name="s" format="1">
  <advance width="475"/>
  <unicode hex="0073"/>
  <outline>
    <contour>
      <point x="260" y="8" type="curve"/>
      <point x="197" y="8"/>
      <point x="114" y="24"/>
      <point x="114" y="53" type="curve" smooth="yes"/>
      <point x="114" y="75"/>
      <point x="143" y="80"/>
      <point x="145" y="115" type="curve" smooth="yes"/>
      <point x="147" y="146"/>
      <point x="116" y="170"/>
      <point x="85" y="169" type="curve" smooth="yes"/>
      <point x="37" y="168"/>
      <point x="27" y="124"/>
      <point x="31" y="95" type="curve" smooth="yes"/>
      <point x="39" y="35"/>
      <point x="123" y="-12"/>
      <point x="260" y="-12" type="curve"/>
      <point x="396" y="-12"/>
      <point x="456" y="53"/>
      <point x="456" y="140" type="curve"/>
      <point x="456" y="327"/>
      <point x="131" y="273"/>
      <point x="131" y="387" type="curve" smooth="yes"/>
      <point x="131" y="420"/>
      <point x="170" y="450"/>
      <point x="226" y="450" type="curve" smooth="yes"/>
      <point x="279" y="450"/>
      <point x="335" y="440"/>
      <point x="335" y="416" type="curve" smooth="yes"/>
      <point x="335" y="393"/>
      <point x="306" y="389"/>
      <point x="304" y="354" type="curve" smooth="yes"/>
      <point x="302" y="323"/>
      <point x="333" y="299"/>
      <point x="364" y="300" type="curve" smooth="yes"/>
      <point x="412" y="301"/>
      <point x="422" y="344"/>
      <point x="418" y="374" type="curve" smooth="yes"/>
      <point x="410" y="432"/>
      <point x="343" y="470"/>
      <point x="226" y="470" type="curve" smooth="yes"/>
      <point x="125" y="470"/>
      <point x="40" y="415"/>
      <point x="32" y="329" type="curve" smooth="yes"/>
      <point x="12" y="124"/>
      <point x="364" y="184"/>
      <point x="364" y="65" type="curve" smooth="yes"/>
      <point x="364" y="29"/>
      <point x="334" y="8"/>
    </contour>
  </outline>
</glyph>
<glyph name="u" format="1">
  <advance width="615"/>
  <unicode hex="0075"/>
  <outline>
    <contour>
      <point x="385" y="0" type="line"/>
      <point x="585" y="0" type="line"/>
      <point x="585" y="20" type="line"/>
      <point x="535" y="20" type="line"/>
      <point x="535" y="460" type="line"/>
      <point x="335" y="460" type="line"/>
      <point x="335" y="440" type="line"/>
      <point x="385" y="440" type="line"/>
      <point x="385" y="89" type="line"/>
      <point x="362" y="49"/>
      <point x="329" y="29"/>
      <point x="294" y="29" type="curve" smooth="yes"/>
      <point x="240" y="29"/>
      <point x="210" y="62"/>
      <point x="210" y="160" type="curve" smooth="yes"/>
      <point x="210" y="460" type="line"/>
      <point x="10" y="460" type="line"/>
      <point x="10" y="440" type="line"/>
      <point x="60" y="440" type="line"/>
      <point x="60" y="182" type="line" smooth="yes"/>
      <point x="60" y="55"/>
      <point x="121" y="-11"/>
      <point x="238" y="-11" type="curve" smooth="yes"/>
      <point x="304" y="-11"/>
      <point x="361" y="19"/>
      <point x="385" y="53" type="curve"/>
    </contour>
  </outline>
</glyph>
<glyph name="x" format="1">
  <advance width="576"/>
  <unicode hex="0078"/>
  <outline>
    <contour>
      <point x="182" y="0" type="line"/>
      <point x="182" y="20" type="line"/>
      <point x="101" y="20" type="line"/>
      <point x="228" y="188" type="line"/>
      <point x="354" y="20" type="line"/>
      <point x="304" y="20" type="line"/>
      <point x="304" y="0" type="line"/>
      <point x="566" y="0" type="line"/>
      <point x="566" y="20" type="line"/>
      <point x="526" y="20" type="line"/>
      <point x="339" y="270" type="line"/>
      <point x="477" y="440" type="line"/>
      <point x="537" y="440" type="line"/>
      <point x="537" y="460" type="line"/>
      <point x="369" y="460" type="line"/>
      <point x="369" y="440" type="line"/>
      <point x="449" y="440" type="line"/>
      <point x="327" y="287" type="line"/>
      <point x="213" y="440" type="line"/>
      <point x="263" y="440" type="line"/>
      <point x="263" y="460" type="line"/>
      <point x="0" y="460" type="line"/>
      <point x="0" y="440" type="line"/>
      <point x="40" y="440" type="line"/>
      <point x="214" y="207" type="line"/>
      <point x="73" y="20" type="line"/>
      <point x="13" y="20" type="line"/>
      <point x="13" y="0" type="line"/>
    </contour>
  </outline>
</glyph>
<glyph name="braceleft" format="1">
  <advance width="288"/>
  <unicode hex="007B"/>
  <outline>
    <contour>
      <point x="241" y="183" type="curve" smooth="yes"/>
      <point x="241" y="231"/>
      <point x="208" y="269"/>
      <point x="145" y="272" type="curve"/>
      <point x="208" y="272"/>
      <point x="241" y="319"/>
      <point x="241" y="362" type="curve" smooth="yes"/>
      <point x="241" y="412"/>
      <point x="214" y="480"/>
      <point x="214" y="529" type="curve" smooth="yes"/>
      <point x="214" y="582"/>
      <point x="228" y="609"/>
      <point x="278" y="609" type="curve"/>
      <point x="278" y="629" type="line"/>
      <point x="212" y="629" type="line"/>
      <point x="153" y="629"/>
      <point x="90" y="590"/>
      <point x="90" y="501" type="curve" smooth="yes"/>
      <point x="90" y="451"/>
      <point x="118" y="390"/>
      <point x="118" y="354" type="curve" smooth="yes"/>
      <point x="118" y="307"/>
      <point x="93" y="280"/>
      <point x="30" y="280" type="curve"/>
      <point x="30" y="265" type="line"/>
      <point x="93" y="265"/>
      <point x="118" y="238"/>
      <point x="118" y="191" type="curve" smooth="yes"/>
      <point x="118" y="155"/>
      <point x="90" y="94"/>
      <point x="90" y="44" type="curve" smooth="yes"/>
      <point x="90" y="-45"/>
      <point x="153" y="-78"/>
      <point x="212" y="-78" type="curve"/>
      <point x="278" y="-78" type="line"/>
      <point x="278" y="-58" type="line"/>
      <point x="228" y="-58"/>
      <point x="214" y="-37"/>
      <point x="214" y="16" type="curve" smooth="yes"/>
      <point x="214" y="65"/>
      <point x="241" y="133"/>
    </contour>
  </outline>
</glyph>
<glyph name="bar" format="1">
  <advance width="140"/>
  <unicode hex="007C"/>
  <outline>
    <contour>
      <point x="60" y="-99" type="line"/>
      <point x="80" y="-99" type="line"/>
      <point x="80" y="585" type="line"/>
      <point x="60" y="585" type="line"/>
    </contour>
  </outline>
</glyph>
<glyph name="braceright" format="1">
  <advance width="288"/>
  <unicode hex="007D"/>
  <outline>
    <contour>
      <point x="47" y="183" type="curve" smooth="yes"/>
      <point x="47" y="133"/>
      <point x="74" y="65"/>
      <point x="74" y="16" type="curve" smooth="yes"/>
      <point x="74" y="-37"/>
      <point x="60" y="-58"/>
      <point x="10" y="-58" type="curve"/>
      <point x="10" y="-78" type="line"/>
      <point x="76" y="-78" type="line"/>
      <point x="135" y="-78"/>
      <point x="198" y="-45"/>
      <point x="198" y="44" type="curve" smooth="yes"/>
      <point x="198" y="94"/>
      <point x="170" y="155"/>
      <point x="170" y="191" type="curve" smooth="yes"/>
      <point x="170" y="238"/>
      <point x="195" y="265"/>
      <point x="258" y="265" type="curve"/>
      <point x="258" y="280" type="line"/>
      <point x="195" y="280"/>
      <point x="170" y="307"/>
      <point x="170" y="354" type="curve" smooth="yes"/>
      <point x="170" y="390"/>
      <point x="198" y="451"/>
      <point x="198" y="501" type="curve" smooth="yes"/>
      <point x="198" y="590"/>
      <point x="135" y="629"/>
      <point x="76" y="629" type="curve"/>
      <point x="10" y="629" type="line"/>
      <point x="10" y="609" type="line"/>
      <point x="60" y="609"/>
      <point x="74" y="582"/>
      <point x="74" y="529" type="curve" smooth="yes"/>
      <point x="74" y="480"/>
      <point x="47" y="412"/>
      <point x="47" y="362" type="curve" smooth="yes"/>
      <point x="47" y="319"/>
      <point x="80" y="272"/>
      <point x="143" y="272" type="curve"/>
      <point x="80" y="269"/>
      <point x="47" y="231"/>
    </contour>
  </outline>
</glyph>
<glyph name="exclamdown" format="1">
  <advance width="252"/>
  <unicode hex="00A1"/>
  <outline>
    <contour>
      <point x="125" y="569" type="curve" smooth="yes"/>
      <point x="85" y="569"/>
      <point x="50" y="534"/>
      <point x="50" y="494" type="curve" smooth="yes"/>
      <point x="50" y="452"/>
      <point x="85" y="418"/>
      <point x="125" y="418" type="curve" smooth="yes"/>
      <point x="167" y="418"/>
      <point x="201" y="452"/>
      <point x="201" y="494" type="curve" smooth="yes"/>
      <point x="201" y="534"/>
      <point x="167" y="569"/>
    </contour>
    <contour>
      <point x="134" y="384" type="curve"/>
      <point x="118" y="384" type="line"/>
      <point x="100" y="255"/>
      <point x="35" y="172"/>
      <point x="35" y="93" type="curve" smooth="yes"/>
      <point x="35" y="37"/>
      <point x="64" y="-8"/>
      <point x="127" y="-8" type="curve" smooth="yes"/>
      <point x="187" y="-8"/>
      <point x="217" y="37"/>
      <point x="217" y="92" type="curve" smooth="yes"/>
      <point x="217" y="169"/>
      <point x="155" y="255"/>
    </contour>
  </outline>
</glyph>
<glyph name="sterling" format="1">
  <advance width="503"/>
  <unicode hex="00A3"/>
  <outline>
    <contour>
      <point x="129" y="135" type="line"/>
      <point x="174" y="161"/>
      <point x="243" y="209"/>
      <point x="243" y="288" type="curve" smooth="yes"/>
      <point x="243" y="350"/>
      <point x="208" y="374"/>
      <point x="208" y="446" type="curve" smooth="yes"/>
      <point x="208" y="510"/>
      <point x="243" y="564"/>
      <point x="308" y="564" type="curve" smooth="yes"/>
      <point x="358" y="564"/>
      <point x="391" y="539"/>
      <point x="391" y="518" type="curve" smooth="yes"/>
      <point x="391" y="479"/>
      <point x="298" y="500"/>
      <point x="298" y="421" type="curve" smooth="yes"/>
      <point x="298" y="387"/>
      <point x="324" y="356"/>
      <point x="369" y="356" type="curve" smooth="yes"/>
      <point x="417" y="356"/>
      <point x="449" y="394"/>
      <point x="449" y="445" type="curve" smooth="yes"/>
      <point x="449" y="527"/>
      <point x="387" y="588"/>
      <point x="270" y="588" type="curve" smooth="yes"/>
      <point x="158" y="588"/>
      <point x="67" y="519"/>
      <point x="67" y="412" type="curve" smooth="yes"/>
      <point x="67" y="314"/>
      <point x="122" y="306"/>
      <point x="122" y="217" type="curve" smooth="yes"/>
      <point x="122" y="129"/>
      <point x="44" y="115"/>
      <point x="44" y="-1" type="curve"/>
      <point x="64" y="-1" type="line"/>
      <point x="73" y="41"/>
      <point x="98" y="74"/>
      <point x="137" y="74" type="curve" smooth="yes"/>
      <point x="209" y="74"/>
      <point x="254" y="-11"/>
      <point x="352" y="-11" type="curve" smooth="yes"/>
      <point x="439" y="-11"/>
      <point x="472" y="66"/>
      <point x="472" y="141" type="curve" smooth="yes"/>
      <point x="472" y="163"/>
      <point x="469" y="184"/>
      <point x="464" y="204" type="curve"/>
      <point x="454" y="204" type="line"/>
      <point x="447" y="149"/>
      <point x="404" y="124"/>
      <point x="352" y="124" type="curve" smooth="yes"/>
      <point x="299" y="124"/>
      <point x="260" y="150"/>
      <point x="198" y="150" type="curve" smooth="yes"/>
      <point x="177" y="150"/>
      <point x="152" y="142"/>
      <point x="132" y="129" type="curve"/>
    </contour>
    <contour>
      <point x="46" y="272" type="line"/>
      <point x="380" y="272" type="line"/>
      <point x="380" y="292" type="line"/>
      <point x="46" y="292" type="line"/>
    </contour>
  </outline>
</glyph>
<glyph name="yen" format="1">
  <advance width="616"/>
  <unicode hex="00A5"/>
  <outline>
    <contour>
      <point x="456" y="0" type="line"/>
      <point x="456" y="20" type="line"/>
      <point x="391" y="20" type="line"/>
      <point x="391" y="171" type="line"/>
      <point x="546" y="171" type="line"/>
      <point x="546" y="191" type="line"/>
      <point x="391" y="191" type="line"/>
      <point x="391" y="258" type="line"/>
      <point x="412" y="300" type="line"/>
      <point x="546" y="300" type="line"/>
      <point x="546" y="320" type="line"/>
      <point x="423" y="320" type="line"/>
      <point x="536" y="540" type="line"/>
      <point x="606" y="540" type="line"/>
      <point x="606" y="560" type="line"/>
      <point x="431" y="560" type="line"/>
      <point x="431" y="540" type="line"/>
      <point x="511" y="540" type="line"/>
      <point x="381" y="288" type="line"/>
      <point x="241" y="540" type="line"/>
      <point x="290" y="540" type="line"/>
      <point x="290" y="560" type="line"/>
      <point x="10" y="560" type="line"/>
      <point x="10" y="540" type="line"/>
      <point x="62" y="540" type="line"/>
      <point x="190" y="320" type="line"/>
      <point x="91" y="320" type="line"/>
      <point x="91" y="300" type="line"/>
      <point x="201" y="300" type="line"/>
      <point x="241" y="231" type="line"/>
      <point x="241" y="191" type="line"/>
      <point x="91" y="191" type="line"/>
      <point x="91" y="171" type="line"/>
      <point x="241" y="171" type="line"/>
      <point x="241" y="20" type="line"/>
      <point x="175" y="20" type="line"/>
      <point x="175" y="0" type="line"/>
    </contour>
  </outline>
</glyph>
<glyph name="brokenbar" format="1">
  <advance width="140"/>
  <unicode hex="00A6"/>
  <outline>
    <contour>
      <point x="60" y="0" type="line"/>
      <point x="80" y="0" type="line"/>
      <point x="80" y="227" type="line"/>
      <point x="60" y="227" type="line"/>
    </contour>
    <contour>
      <point x="60" y="333" type="line"/>
      <point x="80" y="333" type="line"/>
      <point x="80" y="560" type="line"/>
      <point x="60" y="560" type="line"/>
    </contour>
  </outline>
</glyph>
<glyph name="section" format="1">
  <advance width="389"/>
  <unicode hex="00A7"/>
  <outline>
    <contour>
      <point x="154" y="364" type="line"/>
      <point x="16" y="364"/>
      <point x="-37" y="203"/>
      <point x="100" y="137" type="curve" smooth="yes"/>
      <point x="213" y="84" type="line" smooth="yes"/>
      <point x="265" y="58"/>
      <point x="269" y="10"/>
      <point x="191" y="10" type="curve" smooth="yes"/>
      <point x="139" y="10"/>
      <point x="89" y="40"/>
      <point x="65" y="121" type="curve"/>
      <point x="65" y="121"/>
      <point x="45" y="121"/>
      <point x="45" y="121" type="curve"/>
      <point x="45" y="-3" type="line"/>
      <point x="45" y="-3"/>
      <point x="61" y="-3"/>
      <point x="61" y="-3" type="curve"/>
      <point x="61" y="7"/>
      <point x="64" y="18"/>
      <point x="79" y="18" type="curve" smooth="yes"/>
      <point x="104" y="18"/>
      <point x="132" y="-10"/>
      <point x="191" y="-10" type="curve" smooth="yes"/>
      <point x="274" y="-10"/>
      <point x="319" y="31"/>
      <point x="327" y="85" type="curve" smooth="yes"/>
      <point x="335" y="139"/>
      <point x="308" y="185"/>
      <point x="246" y="211" type="curve" smooth="yes"/>
      <point x="143" y="256" type="line" smooth="yes"/>
      <point x="73" y="286"/>
      <point x="71" y="348"/>
      <point x="153" y="348" type="curve"/>
    </contour>
    <contour>
      <point x="292" y="423" type="curve" smooth="yes"/>
      <point x="180" y="477" type="line" smooth="yes"/>
      <point x="128" y="501"/>
      <point x="132" y="550"/>
      <point x="191" y="550" type="curve" smooth="yes"/>
      <point x="243" y="550"/>
      <point x="294" y="521"/>
      <point x="317" y="448" type="curve"/>
      <point x="317" y="448"/>
      <point x="337" y="448"/>
      <point x="337" y="448" type="curve"/>
      <point x="337" y="562" type="line"/>
      <point x="337" y="562"/>
      <point x="322" y="562"/>
      <point x="322" y="562" type="curve"/>
      <point x="322" y="552"/>
      <point x="317" y="542"/>
      <point x="301" y="542" type="curve" smooth="yes"/>
      <point x="278" y="542"/>
      <point x="241" y="570"/>
      <point x="191" y="570" type="curve" smooth="yes"/>
      <point x="109" y="570"/>
      <point x="64" y="528"/>
      <point x="55" y="475" type="curve" smooth="yes"/>
      <point x="47" y="422"/>
      <point x="75" y="375"/>
      <point x="136" y="348" type="curve" smooth="yes"/>
      <point x="240" y="303" type="line" smooth="yes"/>
      <point x="309" y="274"/>
      <point x="311" y="212"/>
      <point x="229" y="212" type="curve" smooth="yes"/>
      <point x="228" y="197" type="line"/>
      <point x="368" y="197"/>
      <point x="430" y="357"/>
    </contour>
  </outline>
</glyph>
<glyph name="dieresis" format="1">
  <advance width="696"/>
  <unicode hex="00A8"/>
  <outline>
    <contour>
      <point x="325" y="582" type="curve" smooth="yes"/>
      <point x="325" y="617"/>
      <point x="297" y="645"/>
      <point x="264" y="645" type="curve" smooth="yes"/>
      <point x="229" y="645"/>
      <point x="200" y="617"/>
      <point x="200" y="582" type="curve" smooth="yes"/>
      <point x="200" y="548"/>
      <point x="229" y="521"/>
      <point x="264" y="521" type="curve" smooth="yes"/>
      <point x="297" y="521"/>
      <point x="325" y="548"/>
    </contour>
    <contour>
      <point x="496" y="582" type="curve" smooth="yes"/>
      <point x="496" y="617"/>
      <point x="470" y="645"/>
      <point x="434" y="645" type="curve" smooth="yes"/>
      <point x="401" y="645"/>
      <point x="373" y="617"/>
      <point x="373" y="582" type="curve" smooth="yes"/>
      <point x="373" y="548"/>
      <point x="401" y="521"/>
      <point x="434" y="521" type="curve" smooth="yes"/>
      <point x="470" y="521"/>
      <point x="496" y="548"/>
    </contour>
  </outline>
</glyph>
<glyph name="copyright" format="1">
  <advance width="602"/>
  <unicode hex="00A9"/>
  <outline>
    <contour>
      <point x="572" y="282" type="curve" smooth="yes"/>
      <point x="572" y="431"/>
      <point x="451" y="553"/>
      <point x="301" y="553" type="curve" smooth="yes"/>
      <point x="151" y="553"/>
      <point x="30" y="431"/>
      <point x="30" y="282" type="curve" smooth="yes"/>
      <point x="30" y="131"/>
      <point x="151" y="10"/>
      <point x="301" y="10" type="curve" smooth="yes"/>
      <point x="451" y="10"/>
      <point x="572" y="131"/>
    </contour>
    <contour>
      <point x="301" y="533" type="curve" smooth="yes"/>
      <point x="439" y="533"/>
      <point x="552" y="419"/>
      <point x="552" y="282" type="curve" smooth="yes"/>
      <point x="552" y="143"/>
      <point x="439" y="30"/>
      <point x="301" y="30" type="curve" smooth="yes"/>
      <point x="163" y="30"/>
      <point x="50" y="143"/>
      <point x="50" y="282" type="curve" smooth="yes"/>
      <point x="50" y="419"/>
      <point x="163" y="533"/>
    </contour>
    <contour>
      <point x="438" y="240" type="line"/>
      <point x="433" y="204"/>
      <point x="409" y="167"/>
      <point x="364" y="167" type="curve" smooth="yes"/>
      <point x="303" y="167"/>
      <point x="264" y="216"/>
      <point x="264" y="286" type="curve" smooth="yes"/>
      <point x="264" y="363"/>
      <point x="293" y="423"/>
      <point x="345" y="423" type="curve" smooth="yes"/>
      <point x="379" y="423"/>
      <point x="399" y="407"/>
      <point x="399" y="389" type="curve" smooth="yes"/>
      <point x="399" y="364"/>
      <point x="342" y="379"/>
      <point x="342" y="330" type="curve" smooth="yes"/>
      <point x="342" y="309"/>
      <point x="359" y="289"/>
      <point x="387" y="289" type="curve" smooth="yes"/>
      <point x="417" y="289"/>
      <point x="438" y="311"/>
      <point x="438" y="347" type="curve" smooth="yes"/>
      <point x="438" y="397"/>
      <point x="395" y="439"/>
      <point x="320" y="439" type="curve" smooth="yes"/>
      <point x="204" y="439"/>
      <point x="146" y="359"/>
      <point x="146" y="283" type="curve" smooth="yes"/>
      <point x="146" y="175"/>
      <point x="212" y="119"/>
      <point x="313" y="119" type="curve" smooth="yes"/>
      <point x="398" y="119"/>
      <point x="449" y="171"/>
      <point x="449" y="240" type="curve"/>
    </contour>
  </outline>
</glyph>
<glyph name="ordfeminine" format="1">
  <advance width="285"/>
  <unicode hex="00AA"/>
  <outline>
    <contour>
      <point x="128" y="350" type="curve" smooth="yes"/>
      <point x="108" y="350"/>
      <point x="90" y="359"/>
      <point x="90" y="390" type="curve" smooth="yes"/>
      <point x="90" y="423"/>
      <point x="114" y="432"/>
      <point x="140" y="437" type="curve" smooth="yes"/>
      <point x="157" y="440" type="line"/>
      <point x="157" y="365" type="line"/>
      <point x="151" y="357"/>
      <point x="142" y="350"/>
    </contour>
    <contour>
      <point x="215" y="327" type="curve" smooth="yes"/>
      <point x="232" y="327"/>
      <point x="253" y="333"/>
      <point x="261" y="339" type="curve"/>
      <point x="261" y="349" type="line"/>
      <point x="257" y="348"/>
      <point x="252" y="347"/>
      <point x="249" y="347" type="curve" smooth="yes"/>
      <point x="236" y="347"/>
      <point x="231" y="356"/>
      <point x="231" y="385" type="curve" smooth="yes"/>
      <point x="231" y="467" type="line" smooth="yes"/>
      <point x="231" y="536"/>
      <point x="203" y="562"/>
      <point x="135" y="562" type="curve" smooth="yes"/>
      <point x="63" y="562"/>
      <point x="33" y="527"/>
      <point x="33" y="497" type="curve" smooth="yes"/>
      <point x="33" y="477"/>
      <point x="47" y="461"/>
      <point x="70" y="461" type="curve" smooth="yes"/>
      <point x="93" y="461"/>
      <point x="106" y="477"/>
      <point x="106" y="497" type="curve" smooth="yes"/>
      <point x="106" y="514"/>
      <point x="98" y="521"/>
      <point x="98" y="535" type="curve" smooth="yes"/>
      <point x="98" y="543"/>
      <point x="103" y="549"/>
      <point x="123" y="549" type="curve" smooth="yes"/>
      <point x="154" y="549"/>
      <point x="157" y="530"/>
      <point x="157" y="477" type="curve" smooth="yes"/>
      <point x="157" y="453" type="line"/>
      <point x="138" y="450" type="line" smooth="yes"/>
      <point x="50" y="439"/>
      <point x="23" y="417"/>
      <point x="23" y="378" type="curve" smooth="yes"/>
      <point x="23" y="340"/>
      <point x="51" y="325"/>
      <point x="85" y="325" type="curve" smooth="yes"/>
      <point x="118" y="325"/>
      <point x="143" y="333"/>
      <point x="160" y="350" type="curve"/>
      <point x="170" y="331"/>
      <point x="189" y="327"/>
    </contour>
  </outline>
</glyph>
<glyph name="logicalnot" format="1">
  <advance width="505"/>
  <unicode hex="00AC"/>
  <outline>
    <contour>
      <point x="465" y="245" type="line"/>
      <point x="40" y="245" type="line"/>
      <point x="40" y="225" type="line"/>
      <point x="465" y="225" type="line"/>
    </contour>
    <contour>
      <point x="445" y="245" type="line"/>
      <point x="445" y="-1" type="line"/>
      <point x="465" y="-1" type="line"/>
      <point x="465" y="245" type="line"/>
    </contour>
  </outline>
</glyph>
<glyph name="uni00B5" format="1">
  <advance width="595"/>
  <unicode hex="00B5"/>
  <outline>
    <contour>
      <point x="535" y="20" type="line"/>
      <point x="535" y="460" type="line"/>
      <point x="335" y="460" type="line"/>
      <point x="335" y="440" type="line"/>
      <point x="385" y="440" type="line"/>
      <point x="385" y="89" type="line"/>
      <point x="362" y="49"/>
      <point x="329" y="29"/>
      <point x="294" y="29" type="curve" smooth="yes"/>
      <point x="240" y="29"/>
      <point x="210" y="62"/>
      <point x="210" y="160" type="curve" smooth="yes"/>
      <point x="210" y="460" type="line"/>
      <point x="10" y="460" type="line"/>
      <point x="10" y="440" type="line"/>
      <point x="60" y="440" type="line"/>
      <point x="60" y="-210" type="line"/>
      <point x="210" y="-210" type="line"/>
      <point x="210" y="-9.6354" type="line"/>
      <point x="218.945" y="-10.5438"/>
      <point x="228.279" y="-11"/>
      <point x="238" y="-11" type="curve" smooth="yes"/>
      <point x="304" y="-11"/>
      <point x="361" y="19"/>
      <point x="385" y="53" type="curve"/>
      <point x="385" y="-2.76566e-09" type="line"/>
      <point x="585" y="-2.76566e-09" type="line"/>
      <point x="585" y="20" type="line"/>
    </contour>
  </outline>
</glyph>
<glyph name="paragraph" format="1">
  <advance width="467"/>
  <unicode hex="00B6"/>
  <outline>
    <contour>
      <point x="192" y="560" type="line"/>
      <point x="80" y="560"/>
      <point x="20" y="520"/>
      <point x="20" y="402" type="curve"/>
      <point x="20" y="290"/>
      <point x="80" y="234"/>
      <point x="192" y="234" type="curve"/>
    </contour>
    <contour>
      <point x="447" y="560" type="line"/>
      <point x="197" y="560" type="line" smooth="yes"/>
      <point x="197" y="540" type="line"/>
      <point x="447" y="540" type="line"/>
    </contour>
    <contour>
      <point x="387" y="12" type="line"/>
      <point x="387" y="560" type="line"/>
      <point x="367" y="560" type="line"/>
      <point x="367" y="12" type="line"/>
    </contour>
    <contour>
      <point x="447" y="20" type="line"/>
      <point x="367" y="20" type="line" smooth="yes"/>
      <point x="367" y="0" type="line"/>
      <point x="447" y="0" type="line"/>
    </contour>
    <contour>
      <point x="207" y="20" type="line"/>
      <point x="127" y="20" type="line" smooth="yes"/>
      <point x="127" y="0" type="line"/>
      <point x="207" y="0" type="line"/>
    </contour>
    <contour>
      <point x="207" y="12" type="line"/>
      <point x="207" y="560" type="line"/>
      <point x="187" y="560" type="line"/>
      <point x="187" y="12" type="line"/>
    </contour>
  </outline>
</glyph>
<glyph name="onesuperior" format="1">
  <advance width="213"/>
  <unicode hex="00B9"/>
  <outline>
    <contour>
      <point x="173" y="335" type="line"/>
      <point x="43" y="335" type="line"/>
      <point x="43" y="317" type="line"/>
      <point x="173" y="317" type="line"/>
    </contour>
    <contour>
      <point x="145" y="327" type="line"/>
      <point x="145" y="560" type="line"/>
      <point x="120" y="560" type="line"/>
      <point x="40" y="523" type="line"/>
      <point x="42" y="508" type="line"/>
      <point x="75" y="520" type="line"/>
      <point x="75" y="327" type="line"/>
    </contour>
  </outline>
</glyph>
<glyph name="ordmasculine" format="1">
  <advance width="287"/>
  <unicode hex="00BA"/>
  <outline>
    <contour>
      <point x="145" y="325" type="curve"/>
      <point x="202" y="325"/>
      <point x="270" y="362"/>
      <point x="270" y="442" type="curve" smooth="yes"/>
      <point x="270" y="526"/>
      <point x="202" y="562"/>
      <point x="145" y="562" type="curve"/>
      <point x="88" y="562"/>
      <point x="21" y="526"/>
      <point x="21" y="442" type="curve" smooth="yes"/>
      <point x="21" y="362"/>
      <point x="88" y="325"/>
    </contour>
    <contour>
      <point x="145" y="339" type="curve"/>
      <point x="109" y="339"/>
      <point x="97" y="367"/>
      <point x="97" y="442" type="curve" smooth="yes"/>
      <point x="97" y="520"/>
      <point x="109" y="548"/>
      <point x="145" y="548" type="curve"/>
      <point x="181" y="548"/>
      <point x="195" y="520"/>
      <point x="195" y="442" type="curve"/>
      <point x="195" y="367"/>
      <point x="181" y="339"/>
    </contour>
  </outline>
</glyph>
<glyph name="threequarters" format="1">
  <advance width="599"/>
  <unicode hex="00BE"/>
  <outline>
    <contour>
      <point x="131" y="560" type="curve" smooth="yes"/>
      <point x="78" y="560"/>
      <point x="47" y="530"/>
      <point x="47" y="494" type="curve" smooth="yes"/>
      <point x="47" y="469"/>
      <point x="62" y="453"/>
      <point x="84" y="453" type="curve" smooth="yes"/>
      <point x="104" y="453"/>
      <point x="115" y="467"/>
      <point x="115" y="482" type="curve" smooth="yes"/>
      <point x="115" y="518"/>
      <point x="75" y="507"/>
      <point x="75" y="524" type="curve" smooth="yes"/>
      <point x="75" y="537"/>
      <point x="90" y="548"/>
      <point x="115" y="548" type="curve" smooth="yes"/>
      <point x="149" y="548"/>
      <point x="168" y="523"/>
      <point x="168" y="490" type="curve" smooth="yes"/>
      <point x="168" y="466"/>
      <point x="156" y="428"/>
      <point x="108" y="428" type="curve" smooth="yes"/>
      <point x="100" y="428" type="line"/>
      <point x="100" y="418" type="line"/>
      <point x="108" y="418" type="line" smooth="yes"/>
      <point x="165" y="418"/>
      <point x="181" y="393"/>
      <point x="181" y="348" type="curve" smooth="yes"/>
      <point x="181" y="300"/>
      <point x="154" y="270"/>
      <point x="116" y="270" type="curve" smooth="yes"/>
      <point x="93" y="270"/>
      <point x="69" y="279"/>
      <point x="69" y="294" type="curve" smooth="yes"/>
      <point x="69" y="313"/>
      <point x="116" y="300"/>
      <point x="116" y="341" type="curve" smooth="yes"/>
      <point x="116" y="358"/>
      <point x="103" y="374"/>
      <point x="81" y="374" type="curve" smooth="yes"/>
      <point x="55" y="374"/>
      <point x="40" y="355"/>
      <point x="40" y="329" type="curve" smooth="yes"/>
      <point x="40" y="287"/>
      <point x="73" y="258"/>
      <point x="132" y="258" type="curve" smooth="yes"/>
      <point x="216" y="258"/>
      <point x="263" y="292"/>
      <point x="263" y="348" type="curve" smooth="yes"/>
      <point x="263" y="395"/>
      <point x="221" y="423"/>
      <point x="161" y="423" type="curve"/>
      <point x="217" y="426"/>
      <point x="245" y="456"/>
      <point x="245" y="491" type="curve" smooth="yes"/>
      <point x="245" y="536"/>
      <point x="210" y="560"/>
    </contour>
    <contour>
      <point x="543" y="10" type="line"/>
      <point x="403" y="10" type="line"/>
      <point x="403" y="0" type="line"/>
      <point x="543" y="0" type="line"/>
    </contour>
    <contour>
      <point x="435" y="4" type="line"/>
      <point x="510" y="4" type="line"/>
      <point x="510" y="291" type="line"/>
      <point x="460" y="291" type="line"/>
      <point x="318" y="82" type="line"/>
      <point x="331" y="82" type="line"/>
      <point x="435" y="236" type="line"/>
    </contour>
    <contour>
      <point x="547" y="115" type="line"/>
      <point x="547" y="38" type="line"/>
      <point x="559" y="38" type="line"/>
      <point x="559" y="115" type="line"/>
    </contour>
    <contour>
      <point x="557" y="82" type="line"/>
      <point x="318" y="82" type="line"/>
      <point x="318" y="72" type="line"/>
      <point x="557" y="72" type="line"/>
    </contour>
    <contour>
      <point x="150" y="0" type="line"/>
      <point x="171" y="0" type="line"/>
      <point x="471" y="561" type="line"/>
      <point x="450" y="561" type="line"/>
    </contour>
  </outline>
</glyph>
<glyph name="questiondown" format="1">
  <advance width="451"/>
  <unicode hex="00BF"/>
  <outline>
    <contour>
      <point x="249.517" y="588" type="curve" smooth="yes"/>
      <point x="207.517" y="588"/>
      <point x="172.517" y="553"/>
      <point x="172.517" y="513" type="curve" smooth="yes"/>
      <point x="172.517" y="471"/>
      <point x="207.517" y="437"/>
      <point x="249.517" y="437" type="curve" smooth="yes"/>
      <point x="289.517" y="437"/>
      <point x="324.517" y="471"/>
      <point x="324.517" y="513" type="curve" smooth="yes"/>
      <point x="324.517" y="553"/>
      <point x="289.517" y="588"/>
    </contour>
    <contour>
      <point x="248.517" y="-8" type="curve" smooth="yes"/>
      <point x="366.517" y="-8"/>
      <point x="441.517" y="59"/>
      <point x="441.517" y="137" type="curve" smooth="yes"/>
      <point x="441.517" y="186"/>
      <point x="410.517" y="223"/>
      <point x="363.517" y="223" type="curve" smooth="yes"/>
      <point x="326.517" y="223"/>
      <point x="294.517" y="194"/>
      <point x="294.517" y="160" type="curve" smooth="yes"/>
      <point x="294.517" y="83"/>
      <point x="368.517" y="103"/>
      <point x="368.517" y="65" type="curve" smooth="yes"/>
      <point x="368.517" y="40"/>
      <point x="331.517" y="16"/>
      <point x="288.517" y="16" type="curve" smooth="yes"/>
      <point x="232.517" y="16"/>
      <point x="184.517" y="50"/>
      <point x="184.517" y="129" type="curve" smooth="yes"/>
      <point x="184.517" y="218"/>
      <point x="297.517" y="243"/>
      <point x="297.517" y="304" type="curve"/>
      <point x="297.517" y="339"/>
      <point x="290.517" y="360"/>
      <point x="261.517" y="403" type="curve"/>
      <point x="244.517" y="403" type="line"/>
      <point x="244.517" y="358"/>
      <point x="221.517" y="335"/>
      <point x="195.517" y="314" type="curve" smooth="yes"/>
      <point x="144.517" y="274"/>
      <point x="37.517" y="265"/>
      <point x="30.517" y="157" type="curve" smooth="yes"/>
      <point x="21.517" y="33"/>
      <point x="131.517" y="-8"/>
    </contour>
  </outline>
</glyph>
<glyph name="icircumflex" format="1">
  <advance width="320"/>
  <unicode hex="00EE"/>
  <outline>
    <contour>
      <point x="230" y="460" type="line"/>
      <point x="50" y="460" type="line"/>
      <point x="50" y="440" type="line"/>
      <point x="230" y="440" type="line"/>
    </contour>
    <contour>
      <point x="290" y="20" type="line"/>
      <point x="40" y="20" type="line"/>
      <point x="40" y="0" type="line"/>
      <point x="290" y="0" type="line"/>
    </contour>
    <contour>
      <point x="240" y="460" type="line"/>
      <point x="240" y="460"/>
      <point x="90" y="460"/>
      <point x="90" y="460" type="curve"/>
      <point x="90" y="1" type="line"/>
      <point x="240" y="1" type="line"/>
    </contour>
    <component base="circumflex" xOffset="-132"/>
  </outline>
</glyph>
<glyph name="eth" format="1">
  <advance width="572"/>
  <unicode hex="00F0"/>
  <outline>
    <contour>
      <point x="519" y="670" type="line"/>
      <point x="125" y="526" type="line"/>
      <point x="134" y="506" type="line"/>
      <point x="527" y="651" type="line" smooth="yes"/>
    </contour>
    <contour>
      <point x="389" y="278" type="curve"/>
      <point x="389" y="84"/>
      <point x="349" y="10"/>
      <point x="280" y="10" type="curve"/>
      <point x="204" y="10"/>
      <point x="181" y="116"/>
      <point x="181" y="220" type="curve"/>
      <point x="181" y="308"/>
      <point x="196" y="430"/>
      <point x="331" y="430" type="curve"/>
      <point x="331" y="430"/>
      <point x="331" y="450"/>
      <point x="331" y="450" type="curve"/>
      <point x="112" y="450"/>
      <point x="21" y="368"/>
      <point x="21" y="220" type="curve" smooth="yes"/>
      <point x="21" y="30"/>
      <point x="183" y="-10"/>
      <point x="280" y="-10" type="curve"/>
      <point x="444" y="-10"/>
      <point x="551" y="54"/>
      <point x="551" y="278" type="curve"/>
      <point x="551" y="502"/>
      <point x="374" y="672"/>
      <point x="120" y="672" type="curve"/>
      <point x="120" y="652" type="line"/>
      <point x="271" y="652"/>
      <point x="389" y="520"/>
    </contour>
  </outline>
</glyph>
<glyph name="Dcroat" format="1">
  <advance width="625"/>
  <unicode hex="0110"/>
  <outline>
    <contour>
      <point x="357" y="298" type="line"/>
      <point x="40" y="298" type="line"/>
      <point x="40" y="278" type="line"/>
      <point x="357" y="278" type="line"/>
    </contour>
    <contour>
      <point x="240" y="20" type="curve"/>
      <point x="240" y="540" type="line"/>
      <point x="377" y="540"/>
      <point x="444" y="439"/>
      <point x="444" y="281" type="curve" smooth="yes"/>
      <point x="444" y="85"/>
      <point x="381" y="20"/>
    </contour>
    <contour>
      <point x="290" y="0" type="line"/>
      <point x="497" y="0"/>
      <point x="595" y="94"/>
      <point x="595" y="283" type="curve" smooth="yes"/>
      <point x="595" y="416"/>
      <point x="495" y="560"/>
      <point x="290" y="560" type="curve" smooth="yes"/>
      <point x="40" y="560" type="line"/>
      <point x="40" y="540" type="line"/>
      <point x="90" y="540" type="line"/>
      <point x="90" y="20" type="line"/>
      <point x="40" y="20" type="line"/>
      <point x="40" y="0" type="line"/>
    </contour>
  </outline>
</glyph>
<glyph name="gcommaaccent" format="1">
  <advance width="538"/>
  <unicode hex="0123"/>
  <outline>
    <contour>
      <point x="261" y="449" type="curve" smooth="yes"/>
      <point x="315" y="449"/>
      <point x="345" y="423"/>
      <point x="345" y="298" type="curve" smooth="yes"/>
      <point x="345" y="184"/>
      <point x="315" y="150"/>
      <point x="264" y="150" type="curve" smooth="yes"/>
      <point x="219" y="150"/>
      <point x="190" y="185"/>
      <point x="190" y="299" type="curve" smooth="yes"/>
      <point x="190" y="424"/>
      <point x="220" y="449"/>
    </contour>
    <contour>
      <point x="368" y="61" type="curve"/>
      <point x="196" y="61" type="line"/>
      <point x="196" y="61"/>
      <point x="160" y="61"/>
      <point x="160" y="93" type="curve" smooth="yes"/>
      <point x="160" y="134"/>
      <point x="187" y="159"/>
      <point x="187" y="159" type="curve"/>
      <point x="187" y="159"/>
      <point x="179" y="162"/>
      <point x="172" y="160" type="curve" smooth="yes"/>
      <point x="141" y="152"/>
      <point x="64" y="98"/>
      <point x="64" y="30" type="curve" smooth="yes"/>
      <point x="64" y="-42"/>
      <point x="127" y="-69"/>
      <point x="194" y="-69" type="curve"/>
      <point x="362" y="-69" type="line" smooth="yes"/>
      <point x="473" y="-69"/>
      <point x="487" y="-117"/>
      <point x="434" y="-157" type="curve" smooth="yes"/>
      <point x="405" y="-179"/>
      <point x="360" y="-201"/>
      <point x="288" y="-201" type="curve" smooth="yes"/>
      <point x="172" y="-201"/>
      <point x="86" y="-147"/>
      <point x="116" y="-38" type="curve"/>
      <point x="85" y="-39"/>
      <point x="36" y="-61"/>
      <point x="31" y="-115" type="curve" smooth="yes"/>
      <point x="23" y="-197"/>
      <point x="157" y="-221"/>
      <point x="288" y="-221" type="curve"/>
      <point x="440" y="-221"/>
      <point x="506" y="-129"/>
      <point x="516" y="-75" type="curve" smooth="yes"/>
      <point x="530" y="-1"/>
      <point x="493" y="61"/>
    </contour>
    <contour>
      <point x="495" y="297" type="curve" smooth="yes"/>
      <point x="495" y="414"/>
      <point x="376" y="469"/>
      <point x="273" y="469" type="curve" smooth="yes"/>
      <point x="162" y="469"/>
      <point x="30" y="416"/>
      <point x="30" y="299" type="curve" smooth="yes"/>
      <point x="30" y="187"/>
      <point x="133" y="130"/>
      <point x="256" y="130" type="curve" smooth="yes"/>
      <point x="374" y="130"/>
      <point x="495" y="184"/>
    </contour>
    <contour>
      <point x="308" y="729" type="line"/>
      <point x="234" y="695"/>
      <point x="193" y="643"/>
      <point x="193" y="582" type="curve" smooth="yes"/>
      <point x="193" y="543"/>
      <point x="219" y="501"/>
      <point x="270" y="501" type="curve" smooth="yes"/>
      <point x="309" y="501"/>
      <point x="335" y="529"/>
      <point x="335" y="565" type="curve" smooth="yes"/>
      <point x="335" y="604"/>
      <point x="305" y="622"/>
      <point x="280" y="622" type="curve"/>
      <point x="265" y="622"/>
      <point x="262" y="617"/>
      <point x="250" y="617" type="curve" smooth="yes"/>
      <point x="243" y="617"/>
      <point x="237" y="622"/>
      <point x="237" y="630" type="curve" smooth="yes"/>
      <point x="237" y="662"/>
      <point x="269" y="690"/>
      <point x="313" y="716" type="curve"/>
    </contour>
  </outline>
</glyph>
<glyph name="Hbar" format="1">
  <advance width="677"/>
  <unicode hex="0126"/>
  <outline>
    <contour>
      <point x="637" y="438" type="line"/>
      <point x="40" y="438" type="line"/>
      <point x="40" y="418" type="line"/>
      <point x="637" y="418" type="line"/>
    </contour>
    <contour>
      <point x="637" y="20" type="line"/>
      <point x="387" y="20" type="line" smooth="yes"/>
      <point x="387" y="0" type="line"/>
      <point x="637" y="0" type="line"/>
    </contour>
    <contour>
      <point x="637" y="560" type="line"/>
      <point x="387" y="560" type="line"/>
      <point x="387" y="540" type="line"/>
      <point x="637" y="540" type="line"/>
    </contour>
    <contour>
      <point x="587" y="560" type="line"/>
      <point x="437" y="560" type="line"/>
      <point x="437" y="1" type="line"/>
      <point x="587" y="1" type="line"/>
    </contour>
    <contour>
      <point x="290" y="560" type="line"/>
      <point x="40" y="560" type="line"/>
      <point x="40" y="540" type="line"/>
      <point x="290" y="540" type="line"/>
    </contour>
    <contour>
      <point x="474" y="308" type="line"/>
      <point x="194" y="308" type="line"/>
      <point x="194" y="288" type="line"/>
      <point x="474" y="288" type="line"/>
    </contour>
    <contour>
      <point x="240" y="560" type="line"/>
      <point x="90" y="560" type="line"/>
      <point x="90" y="1" type="line"/>
      <point x="240" y="1" type="line"/>
    </contour>
    <contour>
      <point x="290" y="20" type="line"/>
      <point x="40" y="20" type="line" smooth="yes"/>
      <point x="40" y="0" type="line"/>
      <point x="290" y="0" type="line"/>
    </contour>
  </outline>
</glyph>
<glyph name="IJ" format="1">
  <advance width="842"/>
  <unicode hex="0132"/>
  <outline>
    <contour>
      <point x="552" y="540" type="line"/>
      <point x="802" y="540" type="line"/>
      <point x="802" y="560" type="line"/>
      <point x="552" y="560" type="line"/>
    </contour>
    <contour>
      <point x="752" y="206" type="curve"/>
      <point x="752" y="559" type="line"/>
      <point x="602" y="559" type="line"/>
      <point x="602" y="197" type="line"/>
      <point x="602" y="102"/>
      <point x="578" y="23"/>
      <point x="483" y="23" type="curve" smooth="yes"/>
      <point x="439" y="23"/>
      <point x="397" y="45"/>
      <point x="397" y="70" type="curve" smooth="yes"/>
      <point x="397" y="89"/>
      <point x="418" y="87"/>
      <point x="442" y="95" type="curve" smooth="yes"/>
      <point x="478" y="106"/>
      <point x="494" y="131"/>
      <point x="494" y="160" type="curve" smooth="yes"/>
      <point x="494" y="201"/>
      <point x="465" y="232"/>
      <point x="425" y="232" type="curve" smooth="yes"/>
      <point x="375" y="232"/>
      <point x="342" y="188"/>
      <point x="342" y="140" type="curve" smooth="yes"/>
      <point x="342" y="46"/>
      <point x="415" y="0"/>
      <point x="516" y="0" type="curve" smooth="yes"/>
      <point x="678" y="0"/>
      <point x="752" y="80"/>
    </contour>
    <contour>
      <point x="290" y="20" type="line"/>
      <point x="40" y="20" type="line" smooth="yes"/>
      <point x="40" y="0" type="line"/>
      <point x="290" y="0" type="line"/>
    </contour>
    <contour>
      <point x="240" y="560" type="line"/>
      <point x="90" y="560" type="line"/>
      <point x="90" y="1" type="line"/>
      <point x="240" y="1" type="line"/>
    </contour>
    <contour>
      <point x="290" y="560" type="line"/>
      <point x="40" y="560" type="line"/>
      <point x="40" y="540" type="line"/>
      <point x="290" y="540" type="line"/>
    </contour>
  </outline>
</glyph>
<glyph name="ij" format="1">
  <advance width="661"/>
  <unicode hex="0133"/>
  <outline>
    <contour>
      <point x="590" y="-44" type="curve"/>
      <point x="590" y="460" type="line"/>
      <point x="590" y="460"/>
      <point x="440" y="460"/>
      <point x="440" y="460" type="curve"/>
      <point x="440" y="-75" type="line"/>
      <point x="440" y="-210"/>
      <point x="424" y="-229"/>
      <point x="371" y="-229" type="curve" smooth="yes"/>
      <point x="347" y="-229"/>
      <point x="290" y="-215"/>
      <point x="290" y="-180" type="curve" smooth="yes"/>
      <point x="290" y="-154"/>
      <point x="312" y="-152"/>
      <point x="338" y="-148" type="curve" smooth="yes"/>
      <point x="366" y="-144"/>
      <point x="393" y="-125"/>
      <point x="393" y="-85" type="curve"/>
      <point x="393" y="-38"/>
      <point x="359" y="-17"/>
      <point x="323" y="-17" type="curve" smooth="yes"/>
      <point x="282" y="-17"/>
      <point x="240" y="-50"/>
      <point x="240" y="-110" type="curve" smooth="yes"/>
      <point x="240" y="-184"/>
      <point x="283" y="-250"/>
      <point x="394" y="-250" type="curve" smooth="yes"/>
      <point x="546" y="-250"/>
      <point x="590" y="-160"/>
    </contour>
    <contour>
      <point x="580" y="460" type="line"/>
      <point x="390" y="460" type="line"/>
      <point x="390" y="440" type="line"/>
      <point x="580" y="440" type="line"/>
    </contour>
    <contour>
      <point x="601" y="592" type="curve" smooth="yes"/>
      <point x="601" y="641"/>
      <point x="562" y="681"/>
      <point x="514" y="681" type="curve" smooth="yes"/>
      <point x="465" y="681"/>
      <point x="425" y="641"/>
      <point x="425" y="592" type="curve" smooth="yes"/>
      <point x="425" y="544"/>
      <point x="465" y="505"/>
      <point x="514" y="505" type="curve" smooth="yes"/>
      <point x="562" y="505"/>
      <point x="601" y="544"/>
    </contour>
    <contour>
      <point x="290" y="20" type="line"/>
      <point x="40" y="20" type="line"/>
      <point x="40" y="0" type="line"/>
      <point x="290" y="0" type="line"/>
    </contour>
    <contour>
      <point x="240" y="460" type="line"/>
      <point x="240" y="460"/>
      <point x="90" y="460"/>
      <point x="90" y="460" type="curve"/>
      <point x="90" y="1" type="line"/>
      <point x="240" y="1" type="line"/>
    </contour>
    <contour>
      <point x="230" y="460" type="line"/>
      <point x="50" y="460" type="line"/>
      <point x="50" y="440" type="line"/>
      <point x="230" y="440" type="line"/>
    </contour>
    <contour>
      <point x="249" y="592" type="curve" smooth="yes"/>
      <point x="249" y="641"/>
      <point x="210" y="681"/>
      <point x="162" y="681" type="curve" smooth="yes"/>
      <point x="113" y="681"/>
      <point x="73" y="641"/>
      <point x="73" y="592" type="curve" smooth="yes"/>
      <point x="73" y="544"/>
      <point x="113" y="505"/>
      <point x="162" y="505" type="curve" smooth="yes"/>
      <point x="210" y="505"/>
      <point x="249" y="544"/>
    </contour>
  </outline>
</glyph>
<glyph name="jcircumflex" format="1">
  <advance width="313"/>
  <unicode hex="0135"/>
  <outline>
    <contour>
      <point x="90" y="0" type="line"/>
      <point x="90" y="-128"/>
      <point x="81" y="-200"/>
      <point x="42" y="-200" type="curve"/>
      <point x="15" y="-200"/>
      <point x="4" y="-176"/>
      <point x="4" y="-131" type="curve"/>
      <point x="4" y="-88"/>
      <point x="-19" y="-71"/>
      <point x="-50" y="-71" type="curve" smooth="yes"/>
      <point x="-77" y="-71"/>
      <point x="-102" y="-89"/>
      <point x="-102" y="-122" type="curve" smooth="yes"/>
      <point x="-102" y="-169"/>
      <point x="-68" y="-220"/>
      <point x="42" y="-220" type="curve" smooth="yes"/>
      <point x="181" y="-220"/>
      <point x="240" y="-142"/>
      <point x="240" y="0" type="curve"/>
      <point x="240" y="0"/>
      <point x="240" y="460"/>
      <point x="240" y="460" type="curve"/>
      <point x="40" y="460" type="line"/>
      <point x="40" y="440" type="line"/>
      <point x="90" y="440" type="line"/>
    </contour>
    <component base="circumflex" xOffset="-141"/>
  </outline>
</glyph>
<glyph name="lcaron" format="1">
  <advance width="408"/>
  <unicode hex="013E"/>
  <outline>
    <contour>
      <point x="240" y="670" type="line"/>
      <point x="90" y="670" type="line"/>
      <point x="90" y="1" type="line"/>
      <point x="240" y="1" type="line"/>
    </contour>
    <contour>
      <point x="290" y="20" type="line"/>
      <point x="40" y="20" type="line"/>
      <point x="40" y="0" type="line"/>
      <point x="290" y="0" type="line"/>
    </contour>
    <contour>
      <point x="230" y="670" type="line"/>
      <point x="40" y="670" type="line"/>
      <point x="40" y="650" type="line"/>
      <point x="230" y="650" type="line"/>
    </contour>
    <component base="quoteright" xScale="0.74" yScale="0.74" xOffset="273" yOffset="173"/>
  </outline>
</glyph>
<glyph name="Ldot" format="1">
  <advance width="530"/>
  <unicode hex="013F"/>
  <outline>
    <contour>
      <point x="376" y="240" type="curve" smooth="yes"/>
      <point x="416" y="240"/>
      <point x="448" y="273"/>
      <point x="448" y="312" type="curve" smooth="yes"/>
      <point x="448" y="351"/>
      <point x="416" y="384"/>
      <point x="376" y="384" type="curve" smooth="yes"/>
      <point x="337" y="384"/>
      <point x="304" y="351"/>
      <point x="304" y="312" type="curve" smooth="yes"/>
      <point x="304" y="273"/>
      <point x="337" y="240"/>
    </contour>
    <contour>
      <point x="300" y="560" type="line"/>
      <point x="40" y="560" type="line"/>
      <point x="40" y="540" type="line"/>
      <point x="300" y="540" type="line"/>
    </contour>
    <contour>
      <point x="510" y="20" type="line"/>
      <point x="40" y="20" type="line"/>
      <point x="40" y="0" type="line"/>
      <point x="510" y="0" type="line"/>
    </contour>
    <contour>
      <point x="240" y="560" type="line"/>
      <point x="90" y="560" type="line"/>
      <point x="90" y="1" type="line"/>
      <point x="240" y="1" type="line"/>
    </contour>
    <contour>
      <point x="510" y="190" type="line"/>
      <point x="510" y="20" type="line"/>
      <point x="340" y="20" type="line"/>
      <point x="417" y="20"/>
      <point x="490" y="34"/>
      <point x="490" y="190" type="curve"/>
    </contour>
  </outline>
</glyph>
<glyph name="ldot" format="1">
  <advance width="422"/>
  <unicode hex="0140"/>
  <outline>
    <contour>
      <point x="376" y="240" type="curve" smooth="yes"/>
      <point x="416" y="240"/>
      <point x="448" y="273"/>
      <point x="448" y="312" type="curve" smooth="yes"/>
      <point x="448" y="351"/>
      <point x="416" y="384"/>
      <point x="376" y="384" type="curve" smooth="yes"/>
      <point x="337" y="384"/>
      <point x="304" y="351"/>
      <point x="304" y="312" type="curve" smooth="yes"/>
      <point x="304" y="273"/>
      <point x="337" y="240"/>
    </contour>
    <contour>
      <point x="230" y="670" type="line"/>
      <point x="40" y="670" type="line"/>
      <point x="40" y="650" type="line"/>
      <point x="230" y="650" type="line"/>
    </contour>
    <contour>
      <point x="240" y="670" type="line"/>
      <point x="90" y="670" type="line"/>
      <point x="90" y="1" type="line"/>
      <point x="240" y="1" type="line"/>
    </contour>
    <contour>
      <point x="290" y="20" type="line"/>
      <point x="40" y="20" type="line"/>
      <point x="40" y="0" type="line"/>
      <point x="290" y="0" type="line"/>
    </contour>
  </outline>
</glyph>
<glyph name="Eng" format="1">
  <advance width="638"/>
  <unicode hex="014A"/>
  <outline>
    <contour>
      <point x="410" y="-252" type="curve" smooth="yes"/>
      <point x="495" y="-252"/>
      <point x="528" y="-179"/>
      <point x="528" y="-71" type="curve"/>
      <point x="528" y="540" type="line"/>
      <point x="598" y="540" type="line"/>
      <point x="598" y="560" type="line"/>
      <point x="428" y="560" type="line"/>
      <point x="428" y="540" type="line"/>
      <point x="508" y="540" type="line"/>
      <point x="508" y="227" type="line"/>
      <point x="227" y="560" type="line"/>
      <point x="40" y="560" type="line"/>
      <point x="40" y="540" type="line"/>
      <point x="56" y="540"/>
      <point x="77" y="528"/>
      <point x="100" y="496" type="curve"/>
      <point x="100" y="20" type="line"/>
      <point x="40" y="20" type="line" smooth="yes"/>
      <point x="40" y="0" type="line"/>
      <point x="200" y="0" type="line"/>
      <point x="200" y="20" type="line"/>
      <point x="120" y="20" type="line"/>
      <point x="120" y="471" type="line"/>
      <point x="490" y="12" type="line"/>
      <point x="502" y="-3"/>
      <point x="508" y="-17"/>
      <point x="508" y="-42" type="curve"/>
      <point x="508" y="-70" type="line"/>
      <point x="508" y="-113"/>
      <point x="502" y="-145"/>
      <point x="487" y="-145" type="curve" smooth="yes"/>
      <point x="468" y="-145"/>
      <point x="455" y="-98"/>
      <point x="403" y="-98" type="curve"/>
      <point x="355" y="-98"/>
      <point x="330" y="-128"/>
      <point x="330" y="-173" type="curve" smooth="yes"/>
      <point x="330" y="-221"/>
      <point x="368" y="-252"/>
    </contour>
  </outline>
</glyph>
<glyph name="eng" format="1">
  <advance width="625"/>
  <unicode hex="014B"/>
  <outline>
    <contour>
      <point x="415" y="0" type="line"/>
      <point x="415" y="-144"/>
      <point x="385" y="-220"/>
      <point x="296" y="-220" type="curve"/>
      <point x="296" y="-240" type="line"/>
      <point x="460" y="-240"/>
      <point x="565" y="-184"/>
      <point x="565" y="0" type="curve"/>
      <point x="565" y="278" type="line" smooth="yes"/>
      <point x="565" y="405"/>
      <point x="504" y="471"/>
      <point x="387" y="471" type="curve" smooth="yes"/>
      <point x="308" y="471"/>
      <point x="241" y="428"/>
      <point x="230" y="387" type="curve"/>
      <point x="230" y="351" type="line"/>
      <point x="252" y="404"/>
      <point x="290" y="431"/>
      <point x="331" y="431" type="curve" smooth="yes"/>
      <point x="385" y="431"/>
      <point x="415" y="398"/>
      <point x="415" y="300" type="curve" smooth="yes"/>
    </contour>
    <contour>
      <point x="240" y="460" type="line"/>
      <point x="40" y="460" type="line"/>
      <point x="40" y="440" type="line"/>
      <point x="240" y="440" type="line"/>
    </contour>
    <contour>
      <point x="290" y="20" type="line"/>
      <point x="40" y="20" type="line"/>
      <point x="40" y="0" type="line"/>
      <point x="290" y="0" type="line"/>
    </contour>
    <contour>
      <point x="240" y="451" type="line"/>
      <point x="90" y="451" type="line"/>
      <point x="90" y="1" type="line"/>
      <point x="240" y="1" type="line"/>
    </contour>
  </outline>
</glyph>
<glyph name="OE" format="1">
  <advance width="820"/>
  <unicode hex="0152"/>
  <outline>
    <contour>
      <point x="321.006" y="20" type="line"/>
      <point x="238.006" y="20"/>
      <point x="191.006" y="105"/>
      <point x="191.006" y="271" type="curve"/>
      <point x="190.006" y="449"/>
      <point x="241.006" y="540"/>
      <point x="321.006" y="540" type="curve"/>
      <point x="370" y="540" type="line"/>
      <point x="370" y="20" type="line"/>
    </contour>
    <contour>
      <point x="750" y="190" type="line"/>
      <point x="750" y="54"/>
      <point x="677" y="20"/>
      <point x="600" y="20" type="curve"/>
      <point x="770" y="20" type="line"/>
      <point x="770" y="190" type="line"/>
    </contour>
    <contour>
      <point x="321" y="0" type="curve" smooth="yes"/>
      <point x="770" y="0" type="line"/>
      <point x="770" y="20" type="line"/>
      <point x="520" y="20" type="line"/>
      <point x="520" y="280" type="line"/>
      <point x="540" y="280" type="line"/>
      <point x="640" y="280"/>
      <point x="650" y="262"/>
      <point x="650" y="190" type="curve"/>
      <point x="670" y="190" type="line"/>
      <point x="670" y="390" type="line"/>
      <point x="650" y="390" type="line"/>
      <point x="650" y="322"/>
      <point x="640" y="300"/>
      <point x="540" y="300" type="curve"/>
      <point x="520" y="300" type="line"/>
      <point x="520" y="540" type="line"/>
      <point x="590" y="540" type="line"/>
      <point x="687" y="540"/>
      <point x="740" y="516"/>
      <point x="740" y="390" type="curve"/>
      <point x="760" y="390" type="line"/>
      <point x="760" y="560" type="line"/>
      <point x="321" y="560" type="line"/>
      <point x="147" y="560"/>
      <point x="29.006" y="454"/>
      <point x="30.006" y="271" type="curve"/>
      <point x="30.006" y="82"/>
      <point x="154" y="0"/>
    </contour>
  </outline>
</glyph>
<glyph name="Tbar" format="1">
  <advance width="549"/>
  <unicode hex="0166"/>
  <outline>
    <contour>
      <point x="419" y="20" type="line"/>
      <point x="349" y="20" type="line"/>
      <point x="349" y="270" type="line"/>
      <point x="469" y="270" type="line"/>
      <point x="469" y="290" type="line"/>
      <point x="349" y="290" type="line"/>
      <point x="349" y="540" type="line"/>
      <point x="466" y="540"/>
      <point x="519" y="516"/>
      <point x="519" y="390" type="curve"/>
      <point x="539" y="390" type="line"/>
      <point x="539" y="560" type="line"/>
      <point x="10" y="560" type="line"/>
      <point x="10" y="390" type="line"/>
      <point x="30" y="390" type="line"/>
      <point x="30" y="516"/>
      <point x="83" y="540"/>
      <point x="199" y="540" type="curve"/>
      <point x="199" y="290" type="line"/>
      <point x="79" y="290" type="line" smooth="yes"/>
      <point x="79" y="270" type="line"/>
      <point x="199" y="270" type="line"/>
      <point x="199" y="20" type="line"/>
      <point x="129" y="20" type="line" smooth="yes"/>
      <point x="129" y="0" type="line"/>
      <point x="419" y="0" type="line"/>
    </contour>
  </outline>
</glyph>
<glyph name="tbar" format="1">
  <advance width="381"/>
  <unicode hex="0167"/>
  <outline>
    <contour>
      <point x="10" y="270" type="line"/>
      <point x="350" y="270" type="line"/>
      <point x="350" y="290" type="line"/>
      <point x="10" y="290" type="line"/>
    </contour>
    <contour>
      <point x="10" y="440" type="line"/>
      <point x="350" y="440" type="line"/>
      <point x="350" y="460" type="line"/>
      <point x="10" y="460" type="line"/>
    </contour>
    <contour>
      <point x="361" y="44" type="line"/>
      <point x="349" y="36"/>
      <point x="329" y="34"/>
      <point x="308" y="34" type="curve" smooth="yes"/>
      <point x="234" y="34"/>
      <point x="234" y="118"/>
      <point x="234" y="196" type="curve"/>
      <point x="234" y="603" type="line"/>
      <point x="220" y="603" type="line"/>
      <point x="200" y="518"/>
      <point x="144" y="470"/>
      <point x="84" y="460" type="curve"/>
      <point x="84" y="173" type="line" smooth="yes"/>
      <point x="84" y="27"/>
      <point x="154" y="-10"/>
      <point x="256" y="-10" type="curve" smooth="yes"/>
      <point x="303" y="-10"/>
      <point x="334" y="5"/>
      <point x="361" y="24" type="curve"/>
    </contour>
  </outline>
</glyph>
<glyph name="pi" format="1">
  <advance width="646"/>
  <unicode hex="03C0"/>
  <outline>
    <contour>
      <point x="556" y="560" type="line"/>
      <point x="406" y="560" type="line"/>
      <point x="406" y="1" type="line"/>
      <point x="556" y="1" type="line"/>
    </contour>
    <contour>
      <point x="626" y="560" type="line"/>
      <point x="226" y="560" type="line"/>
      <point x="226" y="540" type="line"/>
      <point x="626" y="540" type="line"/>
    </contour>
    <contour>
      <point x="290" y="560" type="line"/>
      <point x="20" y="560" type="line"/>
      <point x="20" y="540" type="line"/>
      <point x="290" y="540" type="line"/>
    </contour>
    <contour>
      <point x="240" y="560" type="line"/>
      <point x="90" y="560" type="line"/>
      <point x="90" y="1" type="line"/>
      <point x="240" y="1" type="line"/>
    </contour>
  </outline>
</glyph>
<glyph name="dvCandrabindu" format="1">
  <advance width="0"/>
  <unicode hex="0901"/>
  <outline>
    <contour>
      <point x="-80" y="560" type="move" name="_abvm.bindu"/>
    </contour>
    <contour>
      <point x="-82" y="853" type="curve" smooth="yes"/>
      <point x="-82" y="815"/>
      <point x="-112" y="784"/>
      <point x="-150" y="784" type="curve" smooth="yes"/>
      <point x="-188" y="784"/>
      <point x="-219" y="815"/>
      <point x="-219" y="853" type="curve" smooth="yes"/>
      <point x="-219" y="891"/>
      <point x="-188" y="921"/>
      <point x="-150" y="921" type="curve" smooth="yes"/>
      <point x="-112" y="921"/>
      <point x="-82" y="891"/>
    </contour>
    <contour>
      <point x="19" y="800" type="line"/>
      <point x="21" y="798" type="line"/>
      <point x="24" y="691"/>
      <point x="-48" y="631"/>
      <point x="-150" y="631" type="curve" smooth="yes"/>
      <point x="-252" y="631"/>
      <point x="-323" y="692"/>
      <point x="-320" y="798" type="curve"/>
      <point x="-318" y="800" type="line"/>
      <point x="-308" y="802" type="line"/>
      <point x="-306" y="801" type="line"/>
      <point x="-295" y="755"/>
      <point x="-238" y="724"/>
      <point x="-150" y="724" type="curve" smooth="yes"/>
      <point x="-61" y="724"/>
      <point x="-4" y="755"/>
      <point x="7" y="801" type="curve"/>
      <point x="9" y="802" type="line"/>
    </contour>
  </outline>
</glyph>
<glyph name="dvAnusvara" format="1">
  <advance width="0"/>
  <unicode hex="0902"/>
  <outline>
    <contour>
      <point x="-80" y="560" type="move" name="_abvm_Anusvara"/>
    </contour>
    <contour>
      <point x="-82" y="691" type="curve" smooth="yes"/>
      <point x="-82" y="653"/>
      <point x="-112" y="623"/>
      <point x="-150" y="623" type="curve" smooth="yes"/>
      <point x="-188" y="623"/>
      <point x="-218" y="653"/>
      <point x="-218" y="691" type="curve" smooth="yes"/>
      <point x="-218" y="729"/>
      <point x="-188" y="760"/>
      <point x="-150" y="760" type="curve" smooth="yes"/>
      <point x="-112" y="760"/>
      <point x="-82" y="729"/>
    </contour>
  </outline>
</glyph>
<glyph name="dvI" format="1">
  <advance width="462"/>
  <unicode hex="0907"/>
  <outline>
    <contour>
      <point x="362" y="560" type="move" name="abvm.bindu"/>
    </contour>
    <contour>
      <point x="213" y="27" type="curve"/>
      <point x="272" y="27"/>
      <point x="317" y="58"/>
      <point x="317" y="109" type="curve" smooth="yes"/>
      <point x="317" y="226"/>
      <point x="44" y="186"/>
      <point x="44" y="335" type="curve" smooth="yes"/>
      <point x="44" y="403"/>
      <point x="108" y="450"/>
      <point x="222" y="453" type="curve"/>
      <point x="222" y="453"/>
      <point x="222" y="484"/>
      <point x="222" y="546" type="curve"/>
      <point x="362" y="546" type="line"/>
      <point x="362" y="404" type="line"/>
      <point x="319" y="423"/>
      <point x="271" y="433"/>
      <point x="225" y="433" type="curve" smooth="yes"/>
      <point x="161" y="433"/>
      <point x="137" y="409"/>
      <point x="137" y="388" type="curve" smooth="yes"/>
      <point x="137" y="307"/>
      <point x="425" y="334"/>
      <point x="425" y="162" type="curve" smooth="yes"/>
      <point x="425" y="61"/>
      <point x="327" y="7"/>
      <point x="217" y="7" type="curve" smooth="yes"/>
      <point x="195" y="7"/>
      <point x="176" y="9"/>
      <point x="159" y="12" type="curve"/>
      <point x="161" y="31" type="line"/>
      <point x="176" y="28"/>
      <point x="194" y="27"/>
    </contour>
    <contour>
      <point x="-20" y="560" type="line"/>
      <point x="482" y="560" type="line"/>
      <point x="482" y="540" type="line"/>
      <point x="-20" y="540" type="line"/>
    </contour>
    <contour>
      <point x="44" y="115" type="curve" smooth="yes"/>
      <point x="44" y="158"/>
      <point x="78" y="182"/>
      <point x="111" y="182" type="curve" smooth="yes"/>
      <point x="161" y="182"/>
      <point x="190" y="151"/>
      <point x="190" y="99" type="curve" smooth="yes"/>
      <point x="190" y="35"/>
      <point x="140" y="-45"/>
      <point x="91" y="-93" type="curve"/>
      <point x="75" y="-80" type="line"/>
      <point x="100" y="-60"/>
      <point x="134" y="-13"/>
      <point x="148" y="18" type="curve"/>
      <point x="153" y="13" type="line"/>
      <point x="81" y="28"/>
      <point x="44" y="65"/>
    </contour>
  </outline>
</glyph>
<glyph name="dvU" format="1">
  <advance width="466"/>
  <unicode hex="0909"/>
  <outline>
    <contour>
      <point x="322" y="560" type="move" name="abvm.bindu"/>
    </contour>
    <contour>
      <point x="-20" y="560" type="line"/>
      <point x="487" y="560" type="line"/>
      <point x="487" y="540" type="line"/>
      <point x="-20" y="540" type="line"/>
    </contour>
    <contour>
      <point x="269" y="330" type="line"/>
      <point x="357" y="321"/>
      <point x="427" y="269"/>
      <point x="427" y="187" type="curve" smooth="yes"/>
      <point x="427" y="67"/>
      <point x="326" y="7"/>
      <point x="191" y="7" type="curve" smooth="yes"/>
      <point x="69" y="7"/>
      <point x="8" y="60"/>
      <point x="8" y="149" type="curve" smooth="yes"/>
      <point x="8" y="200"/>
      <point x="40" y="238"/>
      <point x="88" y="238" type="curve" smooth="yes"/>
      <point x="133" y="238"/>
      <point x="159" y="207"/>
      <point x="159" y="173" type="curve" smooth="yes"/>
      <point x="159" y="94"/>
      <point x="64" y="115"/>
      <point x="64" y="76" type="curve" smooth="yes"/>
      <point x="64" y="46"/>
      <point x="110" y="31"/>
      <point x="154" y="31" type="curve" smooth="yes"/>
      <point x="237" y="31"/>
      <point x="283" y="88"/>
      <point x="284" y="186" type="curve" smooth="yes"/>
      <point x="284" y="275"/>
      <point x="225" y="319"/>
      <point x="139" y="319" type="curve" smooth="yes"/>
      <point x="123" y="319" type="line"/>
      <point x="123" y="339" type="line"/>
      <point x="139" y="339" type="line" smooth="yes"/>
      <point x="213" y="339"/>
      <point x="259" y="380"/>
      <point x="259" y="446" type="curve" smooth="yes"/>
      <point x="259" y="500"/>
      <point x="222" y="540"/>
      <point x="139" y="540" type="curve"/>
      <point x="151" y="544" type="line"/>
      <point x="187" y="548"/>
      <point x="221" y="548"/>
      <point x="255" y="548" type="curve" smooth="yes"/>
      <point x="335" y="548"/>
      <point x="396" y="515"/>
      <point x="396" y="442" type="curve" smooth="yes"/>
      <point x="396" y="371"/>
      <point x="332" y="343"/>
      <point x="269" y="334" type="curve"/>
    </contour>
  </outline>
</glyph>
<glyph name="dvUU" format="1">
  <advance width="673"/>
  <unicode hex="090A"/>
  <outline>
    <contour>
      <point x="322" y="560" type="move" name="abvm.bindu"/>
    </contour>
    <contour>
      <point x="390" y="259" type="line"/>
      <point x="408" y="300"/>
      <point x="446" y="337"/>
      <point x="512" y="337" type="curve" smooth="yes"/>
      <point x="597" y="337"/>
      <point x="662" y="276"/>
      <point x="662" y="176" type="curve" smooth="yes"/>
      <point x="662" y="75"/>
      <point x="600" y="17"/>
      <point x="508" y="17" type="curve" smooth="yes"/>
      <point x="466" y="17"/>
      <point x="434" y="31"/>
      <point x="421" y="47" type="curve"/>
      <point x="429" y="58" type="line"/>
      <point x="433" y="55"/>
      <point x="444" y="52"/>
      <point x="455" y="52" type="curve" smooth="yes"/>
      <point x="508" y="52"/>
      <point x="526" y="108"/>
      <point x="526" y="176" type="curve" smooth="yes"/>
      <point x="526" y="239"/>
      <point x="505" y="290"/>
      <point x="459" y="290" type="curve" smooth="yes"/>
      <point x="432" y="290"/>
      <point x="411" y="270"/>
      <point x="404" y="245" type="curve"/>
    </contour>
    <contour>
      <point x="269" y="330" type="line"/>
      <point x="357" y="321"/>
      <point x="427" y="269"/>
      <point x="427" y="187" type="curve" smooth="yes"/>
      <point x="427" y="67"/>
      <point x="326" y="7"/>
      <point x="191" y="7" type="curve" smooth="yes"/>
      <point x="69" y="7"/>
      <point x="8" y="60"/>
      <point x="8" y="149" type="curve" smooth="yes"/>
      <point x="8" y="200"/>
      <point x="40" y="238"/>
      <point x="88" y="238" type="curve" smooth="yes"/>
      <point x="133" y="238"/>
      <point x="159" y="207"/>
      <point x="159" y="173" type="curve" smooth="yes"/>
      <point x="159" y="94"/>
      <point x="64" y="115"/>
      <point x="64" y="76" type="curve" smooth="yes"/>
      <point x="64" y="46"/>
      <point x="110" y="31"/>
      <point x="154" y="31" type="curve" smooth="yes"/>
      <point x="237" y="31"/>
      <point x="283" y="88"/>
      <point x="284" y="186" type="curve" smooth="yes"/>
      <point x="284" y="275"/>
      <point x="225" y="319"/>
      <point x="139" y="319" type="curve" smooth="yes"/>
      <point x="123" y="319" type="line"/>
      <point x="123" y="339" type="line"/>
      <point x="139" y="339" type="line" smooth="yes"/>
      <point x="213" y="339"/>
      <point x="259" y="380"/>
      <point x="259" y="446" type="curve" smooth="yes"/>
      <point x="259" y="500"/>
      <point x="222" y="540"/>
      <point x="139" y="540" type="curve"/>
      <point x="151" y="544" type="line"/>
      <point x="187" y="548"/>
      <point x="221" y="548"/>
      <point x="255" y="548" type="curve" smooth="yes"/>
      <point x="335" y="548"/>
      <point x="396" y="515"/>
      <point x="396" y="442" type="curve" smooth="yes"/>
      <point x="396" y="371"/>
      <point x="332" y="343"/>
      <point x="269" y="334" type="curve"/>
    </contour>
    <contour>
      <point x="-20" y="560" type="line"/>
      <point x="693" y="560" type="line"/>
      <point x="693" y="540" type="line"/>
      <point x="-20" y="540" type="line"/>
    </contour>
  </outline>
</glyph>
<glyph name="dvVocalicR" format="1">
  <advance width="874"/>
  <unicode hex="090B"/>
  <outline>
    <contour>
      <point x="499" y="560" type="move" name="abvm_Anusvara"/>
    </contour>
    <contour>
      <point x="499" y="560" type="move" name="abvm_Ekaar"/>
    </contour>
    <contour>
      <point x="340" y="267" type="line"/>
      <point x="288" y="369"/>
      <point x="246" y="452"/>
      <point x="152" y="452" type="curve" smooth="yes"/>
      <point x="81" y="452"/>
      <point x="33" y="415"/>
      <point x="8" y="366" type="curve"/>
      <point x="23" y="355" type="line"/>
      <point x="36" y="374"/>
      <point x="56" y="384"/>
      <point x="77" y="384" type="curve" smooth="yes"/>
      <point x="140" y="384"/>
      <point x="186" y="270"/>
      <point x="240" y="178" type="curve"/>
    </contour>
    <contour>
      <point x="-20" y="560" type="line"/>
      <point x="-20" y="540" type="line"/>
      <point x="897" y="540" type="line"/>
      <point x="897" y="560" type="line"/>
    </contour>
    <contour>
      <point x="437" y="284" type="line"/>
      <point x="653" y="284" type="line"/>
      <point x="653" y="304" type="line"/>
      <point x="437" y="304" type="line"/>
    </contour>
    <contour>
      <point x="88" y="52" type="line"/>
      <point x="363" y="263" type="line"/>
      <point x="363" y="289" type="line"/>
      <point x="75" y="68" type="line"/>
    </contour>
    <contour>
      <point x="710" y="284" type="line"/>
      <point x="762" y="284"/>
      <point x="801" y="333"/>
      <point x="801" y="384" type="curve" smooth="yes"/>
      <point x="801" y="437"/>
      <point x="754" y="467"/>
      <point x="694" y="467" type="curve" smooth="yes"/>
      <point x="621" y="467"/>
      <point x="567" y="419"/>
      <point x="567" y="351" type="curve" smooth="yes"/>
      <point x="567" y="300"/>
      <point x="596" y="267"/>
      <point x="628" y="237" type="curve"/>
      <point x="682" y="187"/>
      <point x="714" y="152"/>
      <point x="714" y="114" type="curve" smooth="yes"/>
      <point x="714" y="77"/>
      <point x="687" y="60"/>
      <point x="658" y="60" type="curve" smooth="yes"/>
      <point x="612" y="60"/>
      <point x="573" y="93"/>
      <point x="557" y="134" type="curve"/>
      <point x="539" y="124" type="line"/>
      <point x="560" y="74"/>
      <point x="603" y="36"/>
      <point x="679" y="36" type="curve" smooth="yes"/>
      <point x="771" y="36"/>
      <point x="834" y="88"/>
      <point x="834" y="163" type="curve" smooth="yes"/>
      <point x="834" y="215"/>
      <point x="807" y="250"/>
      <point x="752" y="299" type="curve" smooth="yes"/>
      <point x="702" y="344"/>
      <point x="675" y="368"/>
      <point x="675" y="396" type="curve" smooth="yes"/>
      <point x="675" y="423"/>
      <point x="697" y="438"/>
      <point x="724" y="438" type="curve" smooth="yes"/>
      <point x="760" y="438"/>
      <point x="779" y="415"/>
      <point x="779" y="384" type="curve" smooth="yes"/>
      <point x="779" y="333"/>
      <point x="740" y="304"/>
      <point x="706" y="304" type="curve"/>
    </contour>
    <contour>
      <point x="359" y="0" type="line"/>
      <point x="499" y="0" type="line"/>
      <point x="499" y="560" type="line"/>
      <point x="359" y="560" type="line"/>
    </contour>
  </outline>
</glyph>
<glyph name="dvvR" format="1">
  <advance width="874"/>
  <unicode hex="090B"/>
  <outline>
    <contour>
      <point x="499" y="560" type="move" name="abvm.bindu"/>
    </contour>
    <contour>
      <point x="499" y="560" type="move" name="abvm.e"/>
    </contour>
    <contour>
      <point x="340" y="267" type="line"/>
      <point x="288" y="369"/>
      <point x="246" y="452"/>
      <point x="152" y="452" type="curve" smooth="yes"/>
      <point x="81" y="452"/>
      <point x="33" y="415"/>
      <point x="8" y="366" type="curve"/>
      <point x="23" y="355" type="line"/>
      <point x="36" y="374"/>
      <point x="56" y="384"/>
      <point x="77" y="384" type="curve" smooth="yes"/>
      <point x="140" y="384"/>
      <point x="186" y="270"/>
      <point x="240" y="178" type="curve"/>
    </contour>
    <contour>
      <point x="-20" y="560" type="line"/>
      <point x="-20" y="540" type="line"/>
      <point x="897" y="540" type="line"/>
      <point x="897" y="560" type="line"/>
    </contour>
    <contour>
      <point x="437" y="294" type="line"/>
      <point x="653" y="294" type="line"/>
      <point x="653" y="314" type="line"/>
      <point x="437" y="314" type="line"/>
    </contour>
    <contour>
      <point x="88" y="52" type="line"/>
      <point x="363" y="263" type="line"/>
      <point x="363" y="289" type="line"/>
      <point x="75" y="68" type="line"/>
    </contour>
    <contour>
      <point x="359" y="0" type="line"/>
      <point x="499" y="0" type="line"/>
      <point x="499" y="560" type="line"/>
      <point x="359" y="560" type="line"/>
    </contour>
    <contour>
      <point x="738" y="437" type="curve" smooth="yes"/>
      <point x="769" y="437"/>
      <point x="789" y="419"/>
      <point x="789" y="387" type="curve" smooth="yes"/>
      <point x="789" y="326"/>
      <point x="720" y="317"/>
      <point x="686" y="317" type="curve"/>
      <point x="690" y="297" type="line"/>
      <point x="742" y="297"/>
      <point x="811" y="320"/>
      <point x="811" y="387" type="curve" smooth="yes"/>
      <point x="811" y="440"/>
      <point x="762" y="467"/>
      <point x="702" y="467" type="curve"/>
      <point x="621" y="467"/>
      <point x="567" y="428"/>
      <point x="567" y="361" type="curve" smooth="yes"/>
      <point x="567" y="300"/>
      <point x="607" y="257"/>
      <point x="680" y="248" type="curve"/>
      <point x="680" y="242" type="line"/>
      <point x="596" y="238"/>
      <point x="555" y="198"/>
      <point x="555" y="133" type="curve" smooth="yes"/>
      <point x="555" y="55"/>
      <point x="617" y="6"/>
      <point x="704" y="6" type="curve" smooth="yes"/>
      <point x="778" y="6"/>
      <point x="827" y="37"/>
      <point x="851" y="78" type="curve"/>
      <point x="838" y="86" type="line"/>
      <point x="822" y="65"/>
      <point x="798" y="54"/>
      <point x="774" y="54" type="curve" smooth="yes"/>
      <point x="723" y="54"/>
      <point x="693" y="87"/>
      <point x="693" y="145" type="curve" smooth="yes"/>
      <point x="693" y="205"/>
      <point x="728" y="233"/>
      <point x="799" y="236" type="curve"/>
      <point x="799" y="256" type="line"/>
      <point x="745" y="261"/>
      <point x="683" y="283"/>
      <point x="683" y="367" type="curve" smooth="yes"/>
      <point x="683" y="404"/>
      <point x="699" y="437"/>
    </contour>
  </outline>
</glyph>
<glyph name="dvvL" format="1">
  <advance width="751"/>
  <unicode hex="090C"/>
  <outline>
    <contour>
      <point x="566" y="560" type="move" name="abvm.bindu"/>
    </contour>
    <contour>
      <point x="565" y="560" type="move" name="abvm.e"/>
    </contour>
    <contour>
      <point x="701" y="263" type="curve"/>
      <point x="701" y="79"/>
      <point x="490" y="63"/>
      <point x="490" y="-64" type="curve" smooth="yes"/>
      <point x="490" y="-105"/>
      <point x="526" y="-139"/>
      <point x="576" y="-139" type="curve" smooth="yes"/>
      <point x="589" y="-139"/>
      <point x="600" y="-134"/>
      <point x="600" y="-123" type="curve" smooth="yes"/>
      <point x="600" y="-104"/>
      <point x="570" y="-87"/>
      <point x="570" y="-49" type="curve" smooth="yes"/>
      <point x="570" y="-5"/>
      <point x="602" y="22"/>
      <point x="640" y="22" type="curve" smooth="yes"/>
      <point x="680" y="22"/>
      <point x="711" y="-10"/>
      <point x="711" y="-49" type="curve" smooth="yes"/>
      <point x="711" y="-119"/>
      <point x="648" y="-156"/>
      <point x="586" y="-156" type="curve" smooth="yes"/>
      <point x="507" y="-156"/>
      <point x="452" y="-110"/>
      <point x="452" y="-28" type="curve" smooth="yes"/>
      <point x="452" y="14"/>
      <point x="463" y="46"/>
      <point x="500" y="97" type="curve" smooth="yes"/>
      <point x="540" y="152"/>
      <point x="556" y="199"/>
      <point x="556" y="291" type="curve" smooth="yes"/>
      <point x="556" y="375"/>
      <point x="531" y="426"/>
      <point x="497" y="426" type="curve" smooth="yes"/>
      <point x="442" y="426"/>
      <point x="439" y="285"/>
      <point x="439" y="237" type="curve" smooth="yes"/>
      <point x="439" y="173" type="line"/>
      <point x="309" y="173" type="line"/>
      <point x="309" y="237" type="line" smooth="yes"/>
      <point x="309" y="285"/>
      <point x="306" y="426"/>
      <point x="251" y="426" type="curve" smooth="yes"/>
      <point x="209" y="426"/>
      <point x="188" y="362"/>
      <point x="188" y="227" type="curve" smooth="yes"/>
      <point x="188" y="100"/>
      <point x="215" y="64"/>
      <point x="264" y="64" type="curve" smooth="yes"/>
      <point x="280" y="64"/>
      <point x="292" y="70"/>
      <point x="299" y="75" type="curve"/>
      <point x="309" y="61" type="line"/>
      <point x="293" y="46"/>
      <point x="261" y="31"/>
      <point x="220" y="31" type="curve" smooth="yes"/>
      <point x="89" y="31"/>
      <point x="44" y="131"/>
      <point x="44" y="240" type="curve" smooth="yes"/>
      <point x="44" y="368"/>
      <point x="126" y="446"/>
      <point x="238" y="446" type="curve" smooth="yes"/>
      <point x="309" y="446"/>
      <point x="351" y="418"/>
      <point x="374" y="376" type="curve"/>
      <point x="398" y="416"/>
      <point x="439" y="446"/>
      <point x="510" y="446" type="curve" smooth="yes"/>
      <point x="615" y="446"/>
      <point x="701" y="369"/>
    </contour>
    <contour>
      <point x="426" y="554" type="line"/>
      <point x="566" y="554" type="line"/>
      <point x="566" y="436" type="line"/>
      <point x="489" y="443" type="line"/>
      <point x="426" y="419" type="line"/>
    </contour>
    <contour>
      <point x="769" y="560" type="line"/>
      <point x="769" y="540" type="line"/>
      <point x="-20" y="540" type="line"/>
      <point x="-20" y="560" type="line"/>
    </contour>
  </outline>
</glyph>
<glyph name="dvEshort" format="1">
  <advance width="564"/>
  <unicode hex="090E"/>
  <outline>
    <contour>
      <point x="670" y="560" type="move" name="abvm_Anusvara"/>
    </contour>
    <component base="dvMatraEshort" xOffset="557"/>
    <component base="dvE"/>
  </outline>
</glyph>
<glyph name="dvE" format="1">
  <advance width="565"/>
  <unicode hex="090F"/>
  <outline>
    <contour>
      <point x="340" y="560" type="move" name="abvm_Anusvara"/>
    </contour>
    <contour>
      <point x="220" y="560" type="line"/>
      <point x="220" y="250" type="line" smooth="yes"/>
      <point x="220" y="185"/>
      <point x="220" y="63"/>
      <point x="346" y="63" type="curve" smooth="yes"/>
      <point x="391" y="63"/>
      <point x="411" y="80"/>
      <point x="411" y="96" type="curve" smooth="yes"/>
      <point x="411" y="125"/>
      <point x="362" y="124"/>
      <point x="362" y="178" type="curve" smooth="yes"/>
      <point x="362" y="214"/>
      <point x="391" y="246"/>
      <point x="435" y="246" type="curve" smooth="yes"/>
      <point x="478" y="246"/>
      <point x="508" y="214"/>
      <point x="508" y="174" type="curve" smooth="yes"/>
      <point x="508" y="87"/>
      <point x="414" y="40"/>
      <point x="320" y="40" type="curve" smooth="yes"/>
      <point x="191" y="40"/>
      <point x="104" y="88"/>
      <point x="83" y="191" type="curve" smooth="yes"/>
      <point x="75" y="231"/>
      <point x="75" y="273"/>
      <point x="75" y="322" type="curve" smooth="yes"/>
      <point x="75" y="560" type="line"/>
    </contour>
    <contour>
      <point x="276" y="336" type="line"/>
      <point x="285" y="332"/>
      <point x="296" y="330"/>
      <point x="306" y="330" type="curve" smooth="yes"/>
      <point x="360" y="330"/>
      <point x="364" y="377"/>
      <point x="364" y="467" type="curve"/>
      <point x="364" y="555" type="line"/>
      <point x="509" y="555" type="line"/>
      <point x="509" y="481" type="line" smooth="yes"/>
      <point x="509" y="362"/>
      <point x="496" y="295"/>
      <point x="375" y="295" type="curve" smooth="yes"/>
      <point x="321" y="295"/>
      <point x="283" y="311"/>
      <point x="267" y="322" type="curve"/>
    </contour>
    <contour>
      <point x="-19" y="560" type="line"/>
      <point x="585" y="560" type="line"/>
      <point x="585" y="540" type="line"/>
      <point x="-19" y="540" type="line"/>
    </contour>
  </outline>
</glyph>
<glyph name="dvAI" format="1">
  <advance width="564"/>
  <unicode hex="0910"/>
  <outline>
    <contour>
      <point x="595" y="560" type="move" name="abvm.bindu"/>
    </contour>
    <component base="dvE"/>
    <component base="dvmE" xOffset="570"/>
  </outline>
</glyph>
<glyph name="dvOcandra" format="1">
  <advance width="1013"/>
  <unicode hex="0911"/>
  <outline>
    <contour>
      <point x="789" y="721" type="move" name="abvm_Anusvara"/>
    </contour>
    <component base="dvMatraEcandra" xOffset="868"/>
    <component base="dvA"/>
    <component base="dvMatraAA" xOffset="709"/>
  </outline>
</glyph>
<glyph name="dvOshort" format="1">
  <advance width="1013"/>
  <unicode hex="0912"/>
  <outline>
    <contour>
      <point x="1080" y="560" type="move" name="abvm_Anusvara"/>
    </contour>
    <component base="dvMatraEshort" xOffset="969"/>
    <component base="dvA"/>
    <component base="dvMatraAA" xOffset="709"/>
  </outline>
</glyph>
<glyph name="dvO" format="1">
  <advance width="1013"/>
  <unicode hex="0913"/>
  <outline>
    <contour>
      <point x="1049" y="560" type="move" name="abvm.bindu"/>
    </contour>
    <component base="dvmE" xOffset="996"/>
    <component base="dvA"/>
    <component base="dvmAA" xOffset="709"/>
  </outline>
</glyph>
<glyph name="dvAU" format="1">
  <advance width="1013"/>
  <unicode hex="0914"/>
  <outline>
    <contour>
      <point x="1100" y="560" type="move" name="abvm_Anusvara"/>
    </contour>
    <component base="dvMatraAI" xOffset="1028"/>
    <component base="dvA"/>
    <component base="dvMatraAA" xOffset="709"/>
  </outline>
</glyph>
<glyph name="dvKA" format="1">
  <advance width="813"/>
  <unicode hex="0915"/>
  <outline>
    <contour>
      <point x="477" y="0" type="move" name="blwm.u"/>
    </contour>
    <contour>
      <point x="477" y="0" type="move" name="blwm.virama"/>
    </contour>
    <contour>
      <point x="478" y="560" type="move" name="abvm.e"/>
    </contour>
    <contour>
      <point x="478" y="560" type="move" name="abvm.bindu"/>
    </contour>
    <contour>
      <point x="266" y="124" type="curve"/>
      <point x="307" y="125"/>
      <point x="331" y="157"/>
      <point x="337" y="203" type="curve"/>
      <point x="349" y="204" type="line"/>
      <point x="349" y="131"/>
      <point x="302" y="69"/>
      <point x="206" y="69" type="curve" smooth="yes"/>
      <point x="93" y="69"/>
      <point x="35" y="156"/>
      <point x="35" y="264" type="curve" smooth="yes"/>
      <point x="35" y="372"/>
      <point x="100" y="454"/>
      <point x="210" y="454" type="curve" smooth="yes"/>
      <point x="244" y="454"/>
      <point x="279" y="444"/>
      <point x="300" y="425" type="curve"/>
      <point x="295" y="410" type="line"/>
      <point x="289" y="413"/>
      <point x="281" y="414"/>
      <point x="273" y="414" type="curve" smooth="yes"/>
      <point x="209" y="413"/>
      <point x="180" y="353"/>
      <point x="180" y="264" type="curve" smooth="yes"/>
      <point x="180" y="183"/>
      <point x="211" y="124"/>
    </contour>
    <contour>
      <point x="-20" y="560" type="line"/>
      <point x="833" y="560" type="line"/>
      <point x="833" y="540" type="line"/>
      <point x="-20" y="540" type="line"/>
    </contour>
    <contour>
      <point x="337" y="550" type="line"/>
      <point x="477" y="550" type="line"/>
      <point x="477" y="0" type="line"/>
      <point x="337" y="0" type="line"/>
    </contour>
    <contour>
      <point x="548" y="405" type="curve"/>
      <point x="509" y="404"/>
      <point x="483" y="372"/>
      <point x="477" y="326" type="curve"/>
      <point x="464" y="325" type="line"/>
      <point x="464" y="398"/>
      <point x="511" y="460"/>
      <point x="607" y="460" type="curve" smooth="yes"/>
      <point x="716" y="460"/>
      <point x="778" y="371"/>
      <point x="778" y="263" type="curve" smooth="yes"/>
      <point x="778" y="155"/>
      <point x="720" y="75"/>
      <point x="611" y="75" type="curve" smooth="yes"/>
      <point x="569" y="75"/>
      <point x="534" y="85"/>
      <point x="513" y="104" type="curve"/>
      <point x="518" y="119" type="line"/>
      <point x="524" y="116"/>
      <point x="534" y="115"/>
      <point x="542" y="115" type="curve" smooth="yes"/>
      <point x="611" y="116"/>
      <point x="633" y="191"/>
      <point x="633" y="265" type="curve" smooth="yes"/>
      <point x="633" y="343"/>
      <point x="603" y="405"/>
    </contour>
  </outline>
</glyph>
<glyph name="dvKHA" format="1">
  <advance width="771"/>
  <unicode hex="0916"/>
  <outline>
    <contour>
      <point x="137" y="279" type="line"/>
      <point x="258" y="246"/>
      <point x="242" y="70"/>
      <point x="405" y="70" type="curve" smooth="yes"/>
      <point x="510" y="70"/>
      <point x="587" y="157"/>
      <point x="587" y="287" type="curve" smooth="yes"/>
      <point x="587" y="367"/>
      <point x="564" y="404"/>
      <point x="518" y="404" type="curve" smooth="yes"/>
      <point x="473" y="404"/>
      <point x="448" y="363"/>
      <point x="448" y="308" type="curve" smooth="yes"/>
      <point x="448" y="256"/>
      <point x="473" y="210"/>
      <point x="518" y="210" type="curve" smooth="yes"/>
      <point x="525" y="210"/>
      <point x="531" y="211"/>
      <point x="538" y="213" type="curve"/>
      <point x="543" y="202" type="line"/>
      <point x="526" y="182"/>
      <point x="483" y="170"/>
      <point x="451" y="170" type="curve" smooth="yes"/>
      <point x="382" y="170"/>
      <point x="321" y="216"/>
      <point x="321" y="305" type="curve" smooth="yes"/>
      <point x="321" y="381"/>
      <point x="382" y="441"/>
      <point x="461" y="441" type="curve" smooth="yes"/>
      <point x="571" y="441"/>
      <point x="608" y="383"/>
      <point x="608" y="287" type="curve" smooth="yes"/>
      <point x="608" y="119"/>
      <point x="496" y="25"/>
      <point x="319" y="25" type="curve" smooth="yes"/>
      <point x="82" y="25"/>
      <point x="91" y="246"/>
      <point x="14" y="270" type="curve"/>
      <point x="14" y="290" type="line"/>
      <point x="102" y="290"/>
      <point x="173" y="325"/>
      <point x="173" y="430" type="curve" smooth="yes"/>
      <point x="173" y="487"/>
      <point x="139" y="540"/>
      <point x="74" y="540" type="curve"/>
      <point x="87" y="547" type="line"/>
      <point x="97" y="549"/>
      <point x="139" y="553"/>
      <point x="151" y="553" type="curve" smooth="yes"/>
      <point x="259" y="553"/>
      <point x="306" y="500"/>
      <point x="306" y="424" type="curve" smooth="yes"/>
      <point x="306" y="338"/>
      <point x="223" y="290"/>
      <point x="137" y="283" type="curve"/>
    </contour>
    <contour>
      <point x="592" y="255" type="curve" smooth="yes"/>
      <point x="592" y="377"/>
      <point x="555" y="405"/>
      <point x="555" y="405" type="curve"/>
      <point x="555" y="550" type="line"/>
      <point x="691" y="550" type="line"/>
      <point x="691" y="0" type="line"/>
      <point x="555" y="0" type="line"/>
      <point x="555" y="127" type="line"/>
      <point x="555" y="127"/>
      <point x="592" y="165"/>
    </contour>
    <contour>
      <point x="-20" y="560" type="line"/>
      <point x="791" y="560" type="line"/>
      <point x="791" y="540" type="line"/>
      <point x="-20" y="540" type="line"/>
    </contour>
  </outline>
</glyph>
<glyph name="dvNGA" format="1">
  <advance width="547"/>
  <unicode hex="0919"/>
  <outline>
    <contour>
      <point x="330" y="-58" type="move" name="blwm_Ukaar"/>
    </contour>
    <contour>
      <point x="328" y="-3" type="move" name="blwm_Virama"/>
    </contour>
    <contour>
      <point x="368" y="560" type="move" name="abvm_Ekaar"/>
    </contour>
    <contour>
      <point x="368" y="560" type="move" name="abvm_Anusvara"/>
    </contour>
    <contour>
      <point x="407" y="560" type="line"/>
      <point x="567" y="560" type="line"/>
      <point x="567" y="540" type="line"/>
      <point x="407" y="540" type="line"/>
    </contour>
    <component base="dvDDA"/>
    <component base="dvNukta" xOffset="735" yOffset="409"/>
  </outline>
</glyph>
<glyph name="dvCA" format="1">
  <advance width="588"/>
  <unicode hex="091A"/>
  <outline>
    <contour>
      <point x="368" y="0" type="line"/>
      <point x="368" y="550" type="line"/>
      <point x="508" y="550" type="line"/>
      <point x="508" y="0" type="line"/>
    </contour>
    <contour>
      <point x="608" y="540" type="line"/>
      <point x="-20" y="540" type="line"/>
      <point x="-20" y="560" type="line"/>
      <point x="608" y="560" type="line"/>
    </contour>
    <contour>
      <point x="32" y="450" type="line"/>
      <point x="320" y="450" type="line"/>
      <point x="320" y="430" type="line"/>
      <point x="32" y="430" type="line"/>
    </contour>
    <contour>
      <point x="368" y="203" type="curve"/>
      <point x="380" y="203" type="line"/>
      <point x="380" y="127"/>
      <point x="324" y="69"/>
      <point x="230" y="69" type="curve" smooth="yes"/>
      <point x="118" y="69"/>
      <point x="45" y="140"/>
      <point x="45" y="253" type="curve" smooth="yes"/>
      <point x="45" y="339"/>
      <point x="91" y="404"/>
      <point x="170" y="426" type="curve"/>
      <point x="170" y="443" type="line"/>
      <point x="267" y="443" type="line"/>
      <point x="300" y="430" type="line"/>
      <point x="224" y="430"/>
      <point x="190" y="355"/>
      <point x="190" y="254" type="curve" smooth="yes"/>
      <point x="190" y="177"/>
      <point x="226" y="122"/>
      <point x="286" y="122" type="curve" smooth="yes"/>
      <point x="336" y="122"/>
      <point x="362" y="163"/>
    </contour>
  </outline>
</glyph>
<glyph name="dvCHA" format="1">
  <advance width="670"/>
  <unicode hex="091B"/>
  <outline>
    <contour>
      <point x="409" y="-24" type="move" name="blwm.u"/>
    </contour>
    <contour>
      <point x="436" y="33" type="move" name="blwm.virama"/>
    </contour>
    <contour>
      <point x="526" y="560" type="move" name="abvm.e"/>
    </contour>
    <contour>
      <point x="526" y="560" type="move" name="abvm.bindu"/>
    </contour>
    <contour>
      <point x="627" y="282" type="curve"/>
      <point x="627" y="126"/>
      <point x="523" y="38"/>
      <point x="339" y="38" type="curve" smooth="yes"/>
      <point x="182" y="38"/>
      <point x="48" y="78"/>
      <point x="48" y="206" type="curve" smooth="yes"/>
      <point x="48" y="267"/>
      <point x="81" y="313"/>
      <point x="154" y="325" type="curve"/>
      <point x="154" y="329" type="line"/>
      <point x="93" y="339"/>
      <point x="56" y="376"/>
      <point x="56" y="435" type="curve" smooth="yes"/>
      <point x="56" y="499"/>
      <point x="107" y="548"/>
      <point x="194" y="548" type="curve" smooth="yes"/>
      <point x="231" y="548"/>
      <point x="267" y="548"/>
      <point x="307" y="544" type="curve"/>
      <point x="319" y="540" type="line"/>
      <point x="242" y="540"/>
      <point x="201" y="498"/>
      <point x="201" y="432" type="curve" smooth="yes"/>
      <point x="201" y="382"/>
      <point x="222" y="344"/>
      <point x="274" y="335" type="curve"/>
      <point x="274" y="315" type="line"/>
      <point x="217" y="310"/>
      <point x="193" y="262"/>
      <point x="193" y="206" type="curve" smooth="yes"/>
      <point x="193" y="106"/>
      <point x="260" y="60"/>
      <point x="339" y="60" type="curve" smooth="yes"/>
      <point x="463" y="60"/>
      <point x="487" y="168"/>
      <point x="487" y="282" type="curve"/>
      <point x="487" y="365"/>
      <point x="458" y="433"/>
      <point x="394" y="433" type="curve" smooth="yes"/>
      <point x="358" y="433"/>
      <point x="334" y="411"/>
      <point x="321" y="375" type="curve"/>
      <point x="302" y="383" type="line"/>
      <point x="316" y="429"/>
      <point x="356" y="469"/>
      <point x="413" y="469" type="curve" smooth="yes"/>
      <point x="542" y="469"/>
      <point x="627" y="411"/>
    </contour>
    <contour>
      <point x="386" y="550" type="line"/>
      <point x="526" y="550" type="line"/>
      <point x="526" y="449" type="line"/>
      <point x="386" y="449" type="line"/>
    </contour>
    <contour>
      <point x="-20" y="560" type="line"/>
      <point x="690" y="560" type="line"/>
      <point x="690" y="540" type="line"/>
      <point x="-20" y="540" type="line"/>
    </contour>
  </outline>
</glyph>
<glyph name="dvTTHA" format="1">
  <advance width="532"/>
  <unicode hex="0920"/>
  <outline>
    <contour>
      <point x="336" y="-39" type="move" name="blwm.u"/>
    </contour>
    <contour>
      <point x="346" y="35" type="move" name="blwm.virama"/>
    </contour>
    <contour>
      <point x="337" y="560" type="move" name="abvm.e"/>
    </contour>
    <contour>
      <point x="337" y="560" type="move" name="abvm.bindu"/>
    </contour>
    <contour>
      <point x="265" y="59" type="curve"/>
      <point x="328" y="59"/>
      <point x="339" y="119"/>
      <point x="339" y="240" type="curve"/>
      <point x="339" y="362"/>
      <point x="328" y="422"/>
      <point x="265" y="422" type="curve"/>
      <point x="202" y="422"/>
      <point x="191" y="362"/>
      <point x="191" y="240" type="curve" smooth="yes"/>
      <point x="191" y="119"/>
      <point x="202" y="59"/>
    </contour>
    <contour>
      <point x="206" y="559" type="line"/>
      <point x="337" y="559" type="line"/>
      <point x="337" y="421" type="line"/>
      <point x="272" y="434" type="line"/>
      <point x="206" y="419" type="line"/>
    </contour>
    <contour>
      <point x="-20" y="560" type="line"/>
      <point x="552" y="560" type="line"/>
      <point x="552" y="540" type="line"/>
      <point x="-20" y="540" type="line"/>
    </contour>
    <contour>
      <point x="265" y="39" type="curve"/>
      <point x="160" y="39"/>
      <point x="44" y="108"/>
      <point x="44" y="240" type="curve" smooth="yes"/>
      <point x="44" y="375"/>
      <point x="160" y="442"/>
      <point x="265" y="442" type="curve" smooth="yes"/>
      <point x="370" y="442"/>
      <point x="488" y="375"/>
      <point x="488" y="240" type="curve" smooth="yes"/>
      <point x="488" y="108"/>
      <point x="370" y="39"/>
    </contour>
  </outline>
</glyph>
<glyph name="dvDDHA" format="1">
  <advance width="522"/>
  <unicode hex="0922"/>
  <outline>
    <contour>
      <point x="360" y="-44" type="move" name="blwm_Ukaar"/>
    </contour>
    <contour>
      <point x="360" y="24" type="move" name="blwm_Virama"/>
    </contour>
    <contour>
      <point x="389" y="560" type="move" name="abvm_Ekaar"/>
    </contour>
    <contour>
      <point x="389" y="560" type="move" name="abvm_Anusvara"/>
    </contour>
    <contour>
      <point x="189" y="233" type="curve" smooth="yes"/>
      <point x="189" y="325"/>
      <point x="226" y="409"/>
      <point x="323" y="409" type="curve" smooth="yes"/>
      <point x="345" y="409"/>
      <point x="375" y="404"/>
      <point x="389" y="397" type="curve"/>
      <point x="389" y="551" type="line"/>
      <point x="249" y="551" type="line"/>
      <point x="249" y="422" type="line"/>
      <point x="131" y="422"/>
      <point x="44" y="347"/>
      <point x="44" y="232" type="curve" smooth="yes"/>
      <point x="44" y="102"/>
      <point x="138" y="24"/>
      <point x="278" y="24" type="curve" smooth="yes"/>
      <point x="387" y="24"/>
      <point x="485" y="62"/>
      <point x="485" y="169" type="curve" smooth="yes"/>
      <point x="485" y="237"/>
      <point x="441" y="292"/>
      <point x="362" y="292" type="curve" smooth="yes"/>
      <point x="303" y="292"/>
      <point x="266" y="265"/>
      <point x="253" y="226" type="curve"/>
      <point x="268" y="219" type="line"/>
      <point x="275" y="236"/>
      <point x="289" y="249"/>
      <point x="306" y="249" type="curve" smooth="yes"/>
      <point x="342" y="249"/>
      <point x="355" y="209"/>
      <point x="355" y="168" type="curve" smooth="yes"/>
      <point x="355" y="90"/>
      <point x="332" y="44"/>
      <point x="279" y="44" type="curve" smooth="yes"/>
      <point x="216" y="44"/>
      <point x="189" y="128"/>
    </contour>
    <contour>
      <point x="-20" y="540" type="line"/>
      <point x="542" y="540" type="line"/>
      <point x="542" y="560" type="line"/>
      <point x="-20" y="560" type="line"/>
    </contour>
  </outline>
</glyph>
<glyph name="dvDA" format="1">
  <advance width="489"/>
  <unicode hex="0926"/>
  <outline>
    <contour>
      <point x="383" y="-87" type="move" name="blwm.u"/>
    </contour>
    <contour>
      <point x="375" y="-8" type="move" name="blwm.virama"/>
    </contour>
    <contour>
      <point x="389" y="560" type="move" name="abvm.e"/>
    </contour>
    <contour>
      <point x="389" y="560" type="move" name="abvm.bindu"/>
    </contour>
    <contour>
      <point x="334" y="48" type="line"/>
      <point x="326" y="46"/>
      <point x="317" y="46"/>
      <point x="309" y="46" type="curve" smooth="yes"/>
      <point x="236" y="46"/>
      <point x="189" y="119"/>
      <point x="189" y="233" type="curve" smooth="yes"/>
      <point x="189" y="325"/>
      <point x="226" y="409"/>
      <point x="323" y="409" type="curve" smooth="yes"/>
      <point x="345" y="409"/>
      <point x="375" y="404"/>
      <point x="389" y="397" type="curve"/>
      <point x="389" y="551" type="line"/>
      <point x="249" y="551" type="line"/>
      <point x="249" y="422" type="line"/>
      <point x="131" y="422"/>
      <point x="44" y="347"/>
      <point x="44" y="232" type="curve" smooth="yes"/>
      <point x="44" y="94"/>
      <point x="141" y="24"/>
      <point x="278" y="24" type="curve" smooth="yes"/>
      <point x="294" y="24"/>
      <point x="318" y="26"/>
      <point x="340" y="31" type="curve"/>
    </contour>
    <contour>
      <point x="-20" y="540" type="line"/>
      <point x="509" y="540" type="line"/>
      <point x="509" y="560" type="line"/>
      <point x="-20" y="560" type="line"/>
    </contour>
    <contour>
      <point x="446" y="145" type="curve" smooth="yes"/>
      <point x="446" y="188"/>
      <point x="416" y="220"/>
      <point x="374" y="220" type="curve" smooth="yes"/>
      <point x="324" y="220"/>
      <point x="296" y="186"/>
      <point x="296" y="137" type="curve" smooth="yes"/>
      <point x="296" y="37"/>
      <point x="395" y="-25"/>
      <point x="464" y="-59" type="curve"/>
      <point x="474" y="-41" type="line"/>
      <point x="426" y="-18"/>
      <point x="365" y="24"/>
      <point x="348" y="56" type="curve"/>
      <point x="347" y="33" type="line"/>
      <point x="415" y="53"/>
      <point x="446" y="95"/>
    </contour>
  </outline>
</glyph>
<glyph name="dvDHA" format="1">
  <advance width="624"/>
  <unicode hex="0927"/>
  <outline>
    <contour>
      <point x="167" y="329" type="line"/>
      <point x="105" y="337"/>
      <point x="60" y="375"/>
      <point x="60" y="438" type="curve" smooth="yes"/>
      <point x="60" y="497"/>
      <point x="103" y="548"/>
      <point x="180" y="548" type="curve" smooth="yes"/>
      <point x="217" y="548"/>
      <point x="253" y="548"/>
      <point x="293" y="544" type="curve"/>
      <point x="295" y="540" type="line"/>
      <point x="218" y="540"/>
      <point x="200" y="492"/>
      <point x="200" y="432" type="curve" smooth="yes"/>
      <point x="200" y="378"/>
      <point x="234" y="335"/>
      <point x="294" y="335" type="curve" smooth="yes"/>
      <point x="321" y="335" type="line"/>
      <point x="321" y="315" type="line"/>
      <point x="295" y="315" type="line" smooth="yes"/>
      <point x="224" y="315"/>
      <point x="192" y="262"/>
      <point x="192" y="199" type="curve" smooth="yes"/>
      <point x="192" y="128"/>
      <point x="238" y="87"/>
      <point x="305" y="87" type="curve" smooth="yes"/>
      <point x="349" y="87"/>
      <point x="395" y="115"/>
      <point x="404" y="169" type="curve"/>
      <point x="419" y="169" type="line"/>
      <point x="414" y="90"/>
      <point x="337" y="39"/>
      <point x="231" y="39" type="curve" smooth="yes"/>
      <point x="137" y="39"/>
      <point x="47" y="88"/>
      <point x="47" y="187" type="curve" smooth="yes"/>
      <point x="47" y="254"/>
      <point x="85" y="310"/>
      <point x="167" y="325" type="curve"/>
    </contour>
    <contour>
      <point x="358" y="560" type="line"/>
      <point x="644" y="560" type="line"/>
      <point x="644" y="540" type="line"/>
      <point x="358" y="540" type="line"/>
    </contour>
    <contour>
      <point x="295" y="540" type="line"/>
      <point x="-20" y="540" type="line"/>
      <point x="-20" y="560" type="line"/>
      <point x="295" y="560" type="line"/>
    </contour>
    <contour>
      <point x="404" y="550" type="line"/>
      <point x="544" y="540" type="line"/>
      <point x="544" y="0" type="line"/>
      <point x="404" y="0" type="line"/>
    </contour>
  </outline>
</glyph>
<glyph name="dvNA" format="1">
  <advance width="559"/>
  <unicode hex="0928"/>
  <outline>
    <contour>
      <point x="35" y="248" type="curve"/>
      <point x="35" y="181"/>
      <point x="77" y="141"/>
      <point x="135" y="141" type="curve" smooth="yes"/>
      <point x="183" y="141"/>
      <point x="220" y="172"/>
      <point x="220" y="221" type="curve" smooth="yes"/>
      <point x="220" y="319"/>
      <point x="108" y="288"/>
      <point x="108" y="324" type="curve" smooth="yes"/>
      <point x="108" y="367"/>
      <point x="203" y="371"/>
      <point x="232" y="371" type="curve"/>
      <point x="249" y="371"/>
      <point x="366" y="369"/>
      <point x="366" y="369" type="curve"/>
      <point x="366" y="391" type="line"/>
      <point x="229" y="391" type="line" smooth="yes"/>
      <point x="133" y="391"/>
      <point x="35" y="360"/>
    </contour>
    <contour>
      <point x="-20" y="540" type="line"/>
      <point x="579" y="540" type="line"/>
      <point x="579" y="560" type="line"/>
      <point x="-20" y="560" type="line"/>
    </contour>
    <contour>
      <point x="339" y="0" type="line"/>
      <point x="479" y="0" type="line"/>
      <point x="479" y="560" type="line"/>
      <point x="339" y="560" type="line"/>
    </contour>
  </outline>
</glyph>
<glyph name="dvRA_Nukta" format="1">
  <advance width="373"/>
  <unicode hex="0931"/>
  <outline>
    <contour>
      <point x="276" y="-3" type="move" name="blwm_Virama"/>
    </contour>
    <contour>
      <point x="211" y="560" type="move" name="abvm_Ekaar"/>
    </contour>
    <contour>
      <point x="211" y="560" type="move" name="abvm_Anusvara"/>
    </contour>
    <component base="dvNukta" xOffset="343" yOffset="8"/>
    <component base="dvRA"/>
  </outline>
</glyph>
<glyph name="dvRxA" format="1">
  <advance width="373"/>
  <unicode hex="0931"/>
  <outline>
    <contour>
      <point x="276" y="-3" type="move" name="blwm.virama"/>
    </contour>
    <contour>
      <point x="211" y="560" type="move" name="abvm.e"/>
    </contour>
    <contour>
      <point x="211" y="560" type="move" name="abvm.bindu"/>
    </contour>
    <component base="dvNukta" xOffset="343" yOffset="8"/>
    <component base="dvRA"/>
  </outline>
</glyph>
<glyph name="dvLA" format="1">
  <advance width="728"/>
  <unicode hex="0932"/>
  <outline>
    <contour>
      <point x="555" y="-37" type="move" name="blwm.u"/>
    </contour>
    <contour>
      <point x="565" y="14" type="move" name="blwm.virama"/>
    </contour>
    <contour>
      <point x="563" y="560" type="move" name="abvm.e"/>
    </contour>
    <contour>
      <point x="563" y="560" type="move" name="abvm.bindu"/>
    </contour>
    <contour>
      <point x="426" y="559" type="line"/>
      <point x="563" y="559" type="line"/>
      <point x="563" y="431" type="line"/>
      <point x="491" y="439" type="line"/>
      <point x="426" y="419" type="line"/>
    </contour>
    <contour>
      <point x="-20" y="560" type="line"/>
      <point x="748" y="560" type="line"/>
      <point x="748" y="540" type="line"/>
      <point x="-20" y="540" type="line"/>
    </contour>
    <contour>
      <point x="364" y="378" type="curve"/>
      <point x="388" y="418"/>
      <point x="429" y="446"/>
      <point x="500" y="446" type="curve" smooth="yes"/>
      <point x="612" y="446"/>
      <point x="694" y="368"/>
      <point x="694" y="240" type="curve" smooth="yes"/>
      <point x="694" y="131"/>
      <point x="649" y="31"/>
      <point x="518" y="31" type="curve" smooth="yes"/>
      <point x="477" y="31"/>
      <point x="445" y="46"/>
      <point x="429" y="61" type="curve"/>
      <point x="439" y="75" type="line"/>
      <point x="446" y="70"/>
      <point x="458" y="64"/>
      <point x="474" y="64" type="curve" smooth="yes"/>
      <point x="523" y="64"/>
      <point x="550" y="100"/>
      <point x="550" y="227" type="curve" smooth="yes"/>
      <point x="550" y="362"/>
      <point x="529" y="426"/>
      <point x="487" y="426" type="curve" smooth="yes"/>
      <point x="432" y="426"/>
      <point x="429" y="285"/>
      <point x="429" y="237" type="curve" smooth="yes"/>
      <point x="429" y="173" type="line"/>
      <point x="299" y="173" type="line"/>
      <point x="299" y="237" type="line" smooth="yes"/>
      <point x="299" y="285"/>
      <point x="296" y="426"/>
      <point x="241" y="426" type="curve" smooth="yes"/>
      <point x="199" y="426"/>
      <point x="178" y="362"/>
      <point x="178" y="227" type="curve" smooth="yes"/>
      <point x="178" y="100"/>
      <point x="205" y="64"/>
      <point x="254" y="64" type="curve" smooth="yes"/>
      <point x="270" y="64"/>
      <point x="282" y="70"/>
      <point x="289" y="75" type="curve"/>
      <point x="299" y="61" type="line"/>
      <point x="283" y="46"/>
      <point x="251" y="31"/>
      <point x="210" y="31" type="curve" smooth="yes"/>
      <point x="79" y="31"/>
      <point x="34" y="131"/>
      <point x="34" y="240" type="curve" smooth="yes"/>
      <point x="34" y="368"/>
      <point x="116" y="446"/>
      <point x="228" y="446" type="curve" smooth="yes"/>
      <point x="299" y="446"/>
      <point x="340" y="418"/>
    </contour>
  </outline>
</glyph>
<glyph name="dvLLA_Nukta" format="1">
  <advance width="771"/>
  <unicode hex="0934"/>
  <outline>
    <contour>
      <point x="588" y="-51" type="move" name="blwm_Ukaar"/>
    </contour>
    <contour>
      <point x="631" y="26" type="move" name="blwm_Virama"/>
    </contour>
    <contour>
      <point x="601" y="560" type="move" name="abvm_Ekaar"/>
    </contour>
    <contour>
      <point x="601" y="560" type="move" name="abvm_Anusvara"/>
    </contour>
    <component base="dvLLA"/>
    <component base="dvNukta" xOffset="461" yOffset="5"/>
  </outline>
</glyph>
<glyph name="dvVA" format="1">
  <advance width="564"/>
  <unicode hex="0935"/>
  <outline>
    <contour>
      <point x="-20" y="560" type="line"/>
      <point x="584" y="560" type="line"/>
      <point x="584" y="540" type="line"/>
      <point x="-20" y="540" type="line"/>
    </contour>
    <contour>
      <point x="345" y="560" type="line"/>
      <point x="484" y="560" type="line"/>
      <point x="484" y="0" type="line"/>
      <point x="345" y="0" type="line"/>
    </contour>
    <contour>
      <point x="352" y="161" type="line"/>
      <point x="347" y="118"/>
      <point x="284" y="72"/>
      <point x="211" y="72" type="curve" smooth="yes"/>
      <point x="119" y="72"/>
      <point x="35" y="131"/>
      <point x="35" y="258" type="curve" smooth="yes"/>
      <point x="35" y="398"/>
      <point x="120" y="456"/>
      <point x="210" y="456" type="curve" smooth="yes"/>
      <point x="244" y="456"/>
      <point x="277" y="445"/>
      <point x="299" y="424" type="curve"/>
      <point x="288" y="411" type="line"/>
      <point x="278" y="417"/>
      <point x="268" y="420"/>
      <point x="258" y="420" type="curve" smooth="yes"/>
      <point x="217" y="420"/>
      <point x="185" y="366"/>
      <point x="185" y="273" type="curve" smooth="yes"/>
      <point x="185" y="183"/>
      <point x="211" y="124"/>
      <point x="273" y="124" type="curve" smooth="yes"/>
      <point x="313" y="124"/>
      <point x="341" y="166"/>
      <point x="345" y="193" type="curve"/>
    </contour>
  </outline>
</glyph>
<glyph name="dvSA" format="1">
  <advance width="677"/>
  <unicode hex="0938"/>
  <outline>
    <contour>
      <point x="457" y="560" type="line"/>
      <point x="597" y="560" type="line"/>
      <point x="597" y="0" type="line"/>
      <point x="457" y="0" type="line"/>
    </contour>
    <contour>
      <point x="-20" y="560" type="line"/>
      <point x="697" y="560" type="line"/>
      <point x="697" y="540" type="line"/>
      <point x="-20" y="540" type="line"/>
    </contour>
    <contour>
      <point x="107" y="258" type="line"/>
      <point x="292" y="232"/>
      <point x="222" y="25"/>
      <point x="323" y="25" type="curve" smooth="yes"/>
      <point x="341" y="25"/>
      <point x="355" y="31"/>
      <point x="360" y="34" type="curve"/>
      <point x="366" y="20" type="line"/>
      <point x="343" y="3"/>
      <point x="312" y="-4"/>
      <point x="271" y="-4" type="curve" smooth="yes"/>
      <point x="47" y="-4"/>
      <point x="112" y="231"/>
      <point x="6" y="260" type="curve"/>
      <point x="6" y="280" type="line"/>
      <point x="37" y="280" type="line" smooth="yes"/>
      <point x="126" y="280"/>
      <point x="175" y="321"/>
      <point x="175" y="407" type="curve" smooth="yes"/>
      <point x="175" y="494"/>
      <point x="137" y="540"/>
      <point x="52" y="540" type="curve"/>
      <point x="52" y="545" type="line"/>
      <point x="157" y="545" type="line" smooth="yes"/>
      <point x="261" y="545"/>
      <point x="313" y="486"/>
      <point x="313" y="407" type="curve" smooth="yes"/>
      <point x="313" y="314"/>
      <point x="225" y="269"/>
      <point x="107" y="262" type="curve"/>
    </contour>
    <contour>
      <point x="97" y="282" type="line"/>
      <point x="545" y="282" type="line"/>
      <point x="545" y="262" type="line"/>
      <point x="77" y="262" type="line"/>
    </contour>
  </outline>
</glyph>
<glyph name="dvHA" format="1">
  <advance width="506"/>
  <unicode hex="0939"/>
  <outline>
    <contour>
      <point x="349" y="-77" type="move" name="blwm.u"/>
    </contour>
    <contour>
      <point x="378" y="-9" type="move" name="blwm.virama"/>
    </contour>
    <contour>
      <point x="419" y="560" type="move" name="abvm.e"/>
    </contour>
    <contour>
      <point x="419" y="560" type="move" name="abvm.bindu"/>
    </contour>
    <contour>
      <point x="254" y="157" type="line"/>
      <point x="261" y="154"/>
      <point x="271" y="152"/>
      <point x="280" y="152" type="curve" smooth="yes"/>
      <point x="311" y="152"/>
      <point x="338" y="174"/>
      <point x="338" y="219" type="curve" smooth="yes"/>
      <point x="338" y="257"/>
      <point x="312" y="282"/>
      <point x="270" y="282" type="curve" smooth="yes"/>
      <point x="217" y="282"/>
      <point x="177" y="236"/>
      <point x="177" y="160" type="curve" smooth="yes"/>
      <point x="177" y="69"/>
      <point x="232" y="26"/>
      <point x="323" y="26" type="curve" smooth="yes"/>
      <point x="378" y="26"/>
      <point x="423" y="46"/>
      <point x="433" y="53" type="curve"/>
      <point x="443" y="35" type="line"/>
      <point x="434" y="28"/>
      <point x="388" y="-3"/>
      <point x="283" y="-3" type="curve" smooth="yes"/>
      <point x="120" y="-3"/>
      <point x="37" y="57"/>
      <point x="37" y="157" type="curve" smooth="yes"/>
      <point x="37" y="246"/>
      <point x="122" y="306"/>
      <point x="276" y="306" type="curve" smooth="yes"/>
      <point x="393" y="306"/>
      <point x="460" y="272"/>
      <point x="460" y="205" type="curve" smooth="yes"/>
      <point x="460" y="150"/>
      <point x="424" y="111"/>
      <point x="358" y="111" type="curve" smooth="yes"/>
      <point x="315" y="111"/>
      <point x="275" y="125"/>
      <point x="248" y="145" type="curve"/>
    </contour>
    <contour>
      <point x="172" y="284" type="line"/>
      <point x="118" y="284"/>
      <point x="49" y="309"/>
      <point x="49" y="365" type="curve" smooth="yes"/>
      <point x="49" y="415"/>
      <point x="92" y="445"/>
      <point x="193" y="445" type="curve" smooth="yes"/>
      <point x="235" y="445"/>
      <point x="279" y="441"/>
      <point x="279" y="441" type="curve"/>
      <point x="279" y="548" type="line"/>
      <point x="419" y="548" type="line"/>
      <point x="419" y="398" type="line"/>
      <point x="395" y="406"/>
      <point x="338" y="420"/>
      <point x="286" y="420" type="curve" smooth="yes"/>
      <point x="226" y="420"/>
      <point x="184" y="405"/>
      <point x="184" y="364" type="curve" smooth="yes"/>
      <point x="184" y="323"/>
      <point x="216" y="306"/>
      <point x="275" y="306" type="curve"/>
    </contour>
    <contour>
      <point x="-20" y="560" type="line"/>
      <point x="526" y="560" type="line"/>
      <point x="526" y="540" type="line"/>
      <point x="-20" y="540" type="line"/>
    </contour>
  </outline>
</glyph>
<glyph name="dvmAA" format="1">
  <advance width="300"/>
  <unicode hex="093E"/>
  <outline>
    <contour>
      <point x="80" y="560" type="line"/>
      <point x="220" y="560" type="line"/>
      <point x="220" y="0" type="line"/>
      <point x="80" y="0" type="line"/>
    </contour>
    <contour>
      <point x="-20" y="560" type="line"/>
      <point x="320" y="560" type="line"/>
      <point x="320" y="540" type="line"/>
      <point x="-20" y="540" type="line"/>
    </contour>
  </outline>
</glyph>
<glyph name="dvMatraI" format="1">
  <advance width="300"/>
  <unicode hex="093F"/>
  <outline>
    <contour>
      <point x="139" y="551" type="line"/>
      <point x="96" y="558"/>
      <point x="54" y="598"/>
      <point x="54" y="659" type="curve" smooth="yes"/>
      <point x="54" y="727"/>
      <point x="96" y="787"/>
      <point x="201" y="787" type="curve" smooth="yes"/>
      <point x="294" y="787"/>
      <point x="441" y="727"/>
      <point x="555" y="727" type="curve" smooth="yes"/>
      <point x="594" y="727"/>
      <point x="607" y="742"/>
      <point x="607" y="763" type="curve" smooth="yes"/>
      <point x="607" y="787"/>
      <point x="590" y="803"/>
      <point x="567" y="811" type="curve"/>
      <point x="574" y="830" type="line"/>
      <point x="609" y="818"/>
      <point x="644" y="786"/>
      <point x="644" y="732" type="curve" smooth="yes"/>
      <point x="644" y="668"/>
      <point x="603" y="627"/>
      <point x="531" y="627" type="curve" smooth="yes"/>
      <point x="419" y="627"/>
      <point x="249" y="690"/>
      <point x="168" y="690" type="curve" smooth="yes"/>
      <point x="116" y="690"/>
      <point x="96" y="670"/>
      <point x="96" y="638" type="curve" smooth="yes"/>
      <point x="96" y="582"/>
      <point x="150" y="560"/>
      <point x="192" y="560" type="curve"/>
    </contour>
    <contour>
      <point x="80" y="560" type="line"/>
      <point x="220" y="560" type="line"/>
      <point x="220" y="0" type="line"/>
      <point x="80" y="0" type="line"/>
    </contour>
    <contour>
      <point x="-20" y="560" type="line"/>
      <point x="320" y="560" type="line"/>
      <point x="320" y="540" type="line"/>
      <point x="-20" y="540" type="line"/>
    </contour>
  </outline>
</glyph>
<glyph name="dvMatraII" format="1">
  <advance width="300"/>
  <unicode hex="0940"/>
  <outline>
    <contour>
      <point x="-110" y="618" type="line"/>
      <point x="-113" y="625"/>
      <point x="-118" y="640"/>
      <point x="-118" y="658" type="curve" smooth="yes"/>
      <point x="-118" y="710"/>
      <point x="-82" y="769"/>
      <point x="30" y="769" type="curve" smooth="yes"/>
      <point x="145" y="769"/>
      <point x="220" y="695"/>
      <point x="220" y="555" type="curve"/>
      <point x="80" y="555" type="line"/>
      <point x="80" y="681"/>
      <point x="47" y="731"/>
      <point x="-19" y="731" type="curve" smooth="yes"/>
      <point x="-65" y="731"/>
      <point x="-98" y="706"/>
      <point x="-98" y="658" type="curve" smooth="yes"/>
      <point x="-98" y="644"/>
      <point x="-94" y="632"/>
      <point x="-91" y="625" type="curve"/>
    </contour>
    <contour>
      <point x="80" y="560" type="line"/>
      <point x="220" y="560" type="line"/>
      <point x="220" y="0" type="line"/>
      <point x="80" y="0" type="line"/>
    </contour>
    <contour>
      <point x="-20" y="560" type="line"/>
      <point x="320" y="560" type="line"/>
      <point x="320" y="540" type="line"/>
      <point x="-20" y="540" type="line"/>
    </contour>
  </outline>
</glyph>
<glyph name="dvmU" format="1">
  <advance width="0"/>
  <unicode hex="0941"/>
  <outline>
    <contour>
      <point x="-83" y="0" type="move" name="_blwm.u"/>
    </contour>
    <contour>
      <point x="-374" y="-15" type="line"/>
      <point x="-372" y="-94"/>
      <point x="-320" y="-184"/>
      <point x="-218" y="-184" type="curve" smooth="yes"/>
      <point x="-170" y="-184"/>
      <point x="-137" y="-151"/>
      <point x="-137" y="-100" type="curve" smooth="yes"/>
      <point x="-137" y="-54"/>
      <point x="-164" y="-22"/>
      <point x="-205" y="-22" type="curve" smooth="yes"/>
      <point x="-233" y="-22"/>
      <point x="-255" y="-39"/>
      <point x="-262" y="-59" type="curve"/>
      <point x="-281" y="-51" type="line" smooth="yes"/>
      <point x="-260" y="0"/>
      <point x="-203" y="19"/>
      <point x="-154" y="19" type="curve" smooth="yes"/>
      <point x="-64" y="19"/>
      <point x="-15" y="-25"/>
      <point x="-15" y="-98" type="curve" smooth="yes"/>
      <point x="-15" y="-175"/>
      <point x="-77" y="-229"/>
      <point x="-183" y="-229" type="curve" smooth="yes"/>
      <point x="-311" y="-229"/>
      <point x="-394" y="-133"/>
      <point x="-395" y="-15" type="curve"/>
    </contour>
  </outline>
</glyph>
<glyph name="dvmvR" format="1">
  <advance width="0"/>
  <unicode hex="0943"/>
  <outline>
    <contour>
      <point x="-83" y="0" type="move" name="_blwm.u"/>
    </contour>
    <contour>
      <point x="-32" y="-136" type="line"/>
      <point x="-56" y="-188"/>
      <point x="-115" y="-219"/>
      <point x="-195" y="-219" type="curve" smooth="yes"/>
      <point x="-305" y="-219"/>
      <point x="-372" y="-168"/>
      <point x="-372" y="-101" type="curve" smooth="yes"/>
      <point x="-372" y="-35"/>
      <point x="-315" y="22"/>
      <point x="-156" y="22" type="curve" smooth="yes"/>
      <point x="-134" y="22"/>
      <point x="-112" y="21"/>
      <point x="-87" y="17" type="curve"/>
      <point x="-87" y="0" type="line"/>
      <point x="-188" y="-3"/>
      <point x="-231" y="-44"/>
      <point x="-231" y="-98" type="curve" smooth="yes"/>
      <point x="-231" y="-141"/>
      <point x="-201" y="-183"/>
      <point x="-148" y="-183" type="curve" smooth="yes"/>
      <point x="-107" y="-183"/>
      <point x="-70" y="-158"/>
      <point x="-49" y="-126" type="curve"/>
    </contour>
  </outline>
</glyph>
<glyph name="dvMatraEshort" format="1">
  <advance width="9"/>
  <unicode hex="0946"/>
  <outline>
    <contour>
      <point x="-71" y="560" type="move" name="_abvm_Ekaar"/>
    </contour>
    <contour>
      <point x="-428" y="843" type="curve" smooth="yes"/>
      <point x="-398" y="843"/>
      <point x="-374" y="827"/>
      <point x="-367" y="819" type="curve"/>
      <point x="-380" y="804" type="line"/>
      <point x="-389" y="812"/>
      <point x="-405" y="823"/>
      <point x="-429" y="823" type="curve" smooth="yes"/>
      <point x="-454" y="823"/>
      <point x="-474" y="808"/>
      <point x="-474" y="781" type="curve" smooth="yes"/>
      <point x="-474" y="737"/>
      <point x="-421" y="733"/>
      <point x="-394" y="733" type="curve" smooth="yes"/>
      <point x="-359" y="733"/>
      <point x="-267" y="747"/>
      <point x="-237" y="747" type="curve" smooth="yes"/>
      <point x="-150" y="747"/>
      <point x="-93" y="708"/>
      <point x="-93" y="619" type="curve" smooth="yes"/>
      <point x="-93" y="581"/>
      <point x="-108" y="560"/>
      <point x="-120" y="549" type="curve"/>
      <point x="-141" y="554" type="line"/>
      <point x="-130" y="562"/>
      <point x="-118" y="581"/>
      <point x="-118" y="600" type="curve" smooth="yes"/>
      <point x="-118" y="640"/>
      <point x="-152" y="652"/>
      <point x="-206" y="652" type="curve" smooth="yes"/>
      <point x="-247" y="652"/>
      <point x="-334" y="637"/>
      <point x="-367" y="637" type="curve" smooth="yes"/>
      <point x="-447" y="637"/>
      <point x="-510" y="665"/>
      <point x="-510" y="745" type="curve" smooth="yes"/>
      <point x="-510" y="797"/>
      <point x="-484" y="843"/>
    </contour>
  </outline>
</glyph>
<glyph name="dvMatraE" format="1">
  <advance width="0"/>
  <unicode hex="0947"/>
  <outline>
    <contour>
      <point x="-80" y="560" type="move" name="_abvm_Ekaar"/>
    </contour>
    <contour>
      <point x="-144" y="589" type="line"/>
      <point x="-263" y="645"/>
      <point x="-328" y="662"/>
      <point x="-370" y="691" type="curve" smooth="yes"/>
      <point x="-389" y="704"/>
      <point x="-399" y="723"/>
      <point x="-399" y="741" type="curve" smooth="yes"/>
      <point x="-399" y="769"/>
      <point x="-376" y="790"/>
      <point x="-348" y="790" type="curve" smooth="yes"/>
      <point x="-336" y="790"/>
      <point x="-323" y="786"/>
      <point x="-312" y="778" type="curve" smooth="yes"/>
      <point x="-268" y="749"/>
      <point x="-230" y="695"/>
      <point x="-135" y="603" type="curve"/>
    </contour>
  </outline>
</glyph>
<glyph name="dvMatraAI" format="1">
  <advance width="0"/>
  <unicode hex="0948"/>
  <outline>
    <contour>
      <point x="-80" y="560" type="move" name="_abvm_Ekaar"/>
    </contour>
    <contour>
      <point x="-188" y="575" type="line"/>
      <point x="-329" y="617"/>
      <point x="-411" y="630"/>
      <point x="-461" y="649" type="curve" smooth="yes"/>
      <point x="-490" y="660"/>
      <point x="-506" y="679"/>
      <point x="-506" y="701" type="curve" smooth="yes"/>
      <point x="-506" y="731"/>
      <point x="-483" y="751"/>
      <point x="-451" y="751" type="curve" smooth="yes"/>
      <point x="-409" y="751"/>
      <point x="-362" y="715"/>
      <point x="-179" y="595" type="curve"/>
    </contour>
    <contour>
      <point x="-124" y="590" type="line"/>
      <point x="-225" y="666"/>
      <point x="-279" y="698"/>
      <point x="-313" y="732" type="curve" smooth="yes"/>
      <point x="-329" y="748"/>
      <point x="-338" y="761"/>
      <point x="-338" y="778" type="curve" smooth="yes"/>
      <point x="-338" y="806"/>
      <point x="-317" y="828"/>
      <point x="-287" y="828" type="curve" smooth="yes"/>
      <point x="-239" y="828"/>
      <point x="-215" y="788"/>
      <point x="-108" y="605" type="curve"/>
    </contour>
  </outline>
</glyph>
<glyph name="dvMatraOcandra" format="1">
  <advance width="300"/>
  <unicode hex="0949"/>
  <outline>
    <contour>
      <point x="220" y="721" type="move" name="abvm_Anusvara"/>
    </contour>
    <component base="dvMatraEcandra" xOffset="300"/>
    <component base="dvMatraAA"/>
  </outline>
</glyph>
<glyph name="dvMatraOshort" format="1">
  <advance width="300"/>
  <unicode hex="094A"/>
  <outline>
    <contour>
      <point x="80" y="560" type="line"/>
      <point x="220" y="560" type="line"/>
      <point x="220" y="0" type="line"/>
      <point x="80" y="0" type="line"/>
    </contour>
    <contour>
      <point x="-20" y="560" type="line"/>
      <point x="320" y="560" type="line"/>
      <point x="320" y="540" type="line"/>
      <point x="-20" y="540" type="line"/>
    </contour>
    <contour>
      <point x="-140" y="843" type="curve" smooth="yes"/>
      <point x="-110" y="843"/>
      <point x="-86" y="827"/>
      <point x="-79" y="819" type="curve"/>
      <point x="-92" y="804" type="line"/>
      <point x="-101" y="812"/>
      <point x="-117" y="823"/>
      <point x="-141" y="823" type="curve" smooth="yes"/>
      <point x="-166" y="823"/>
      <point x="-186" y="808"/>
      <point x="-186" y="781" type="curve" smooth="yes"/>
      <point x="-186" y="737"/>
      <point x="-133" y="733"/>
      <point x="-106" y="733" type="curve" smooth="yes"/>
      <point x="-71" y="733"/>
      <point x="21" y="747"/>
      <point x="51" y="747" type="curve" smooth="yes"/>
      <point x="138" y="747"/>
      <point x="195" y="708"/>
      <point x="195" y="619" type="curve" smooth="yes"/>
      <point x="195" y="581"/>
      <point x="180" y="560"/>
      <point x="168" y="549" type="curve"/>
      <point x="147" y="554" type="line"/>
      <point x="158" y="562"/>
      <point x="170" y="581"/>
      <point x="170" y="600" type="curve" smooth="yes"/>
      <point x="170" y="640"/>
      <point x="136" y="652"/>
      <point x="82" y="652" type="curve" smooth="yes"/>
      <point x="41" y="652"/>
      <point x="-46" y="637"/>
      <point x="-79" y="637" type="curve" smooth="yes"/>
      <point x="-159" y="637"/>
      <point x="-222" y="665"/>
      <point x="-222" y="745" type="curve" smooth="yes"/>
      <point x="-222" y="797"/>
      <point x="-196" y="843"/>
    </contour>
  </outline>
</glyph>
<glyph name="dvVirama" format="1">
  <advance width="0"/>
  <unicode hex="094D"/>
  <outline>
    <contour>
      <point x="-80" y="0" type="move" name="_blwm_Virama"/>
    </contour>
    <contour>
      <point x="-147" y="-32" type="line"/>
      <point x="-72" y="-89"/>
      <point x="-3" y="-158"/>
      <point x="88" y="-164" type="curve"/>
      <point x="91" y="-176" type="line"/>
      <point x="56" y="-213"/>
      <point x="24" y="-229"/>
      <point x="-16" y="-229" type="curve" smooth="yes"/>
      <point x="-118" y="-229"/>
      <point x="-131" y="-100"/>
      <point x="-157" y="-41" type="curve"/>
    </contour>
  </outline>
</glyph>
<glyph name="dvUdatta" format="1">
  <advance width="0"/>
  <unicode hex="0951"/>
  <outline>
    <contour>
      <point x="-148" y="515" type="curve" smooth="yes"/>
      <point x="-149" y="509"/>
      <point x="-153" y="506"/>
      <point x="-157" y="506" type="curve" smooth="yes"/>
      <point x="-162" y="506"/>
      <point x="-164" y="510"/>
      <point x="-165" y="515" type="curve" smooth="yes"/>
      <point x="-176" y="604"/>
      <point x="-192" y="694"/>
      <point x="-192" y="723" type="curve" smooth="yes"/>
      <point x="-192" y="744"/>
      <point x="-175" y="756"/>
      <point x="-156" y="756" type="curve" smooth="yes"/>
      <point x="-138" y="756"/>
      <point x="-122" y="744"/>
      <point x="-122" y="723" type="curve" smooth="yes"/>
      <point x="-122" y="697"/>
      <point x="-138" y="604"/>
    </contour>
  </outline>
</glyph>
<glyph name="dvAnudatta" format="1">
  <advance width="0"/>
  <unicode hex="0952"/>
  <outline>
    <contour>
      <point x="-517" y="-148" type="line"/>
      <point x="-55" y="-148" type="line"/>
      <point x="-55" y="-128" type="line"/>
      <point x="-517" y="-128" type="line"/>
    </contour>
  </outline>
</glyph>
<glyph name="dvGrave" format="1">
  <advance width="0"/>
  <unicode hex="0953"/>
  <outline>
    <contour>
      <point x="0" y="597" type="line"/>
      <point x="-2" y="600" type="line"/>
      <point x="-34" y="613"/>
      <point x="-57" y="636"/>
      <point x="-72" y="659" type="curve" smooth="yes"/>
      <point x="-101" y="705"/>
      <point x="-106" y="755"/>
      <point x="-156" y="755" type="curve" smooth="yes"/>
      <point x="-185" y="755"/>
      <point x="-204" y="733"/>
      <point x="-204" y="708" type="curve" smooth="yes"/>
      <point x="-204" y="630"/>
      <point x="-84" y="603"/>
      <point x="-6" y="588" type="curve"/>
      <point x="-3" y="589" type="line"/>
    </contour>
  </outline>
</glyph>
<glyph name="dvAcute" format="1">
  <advance width="0"/>
  <unicode hex="0954"/>
  <outline>
    <contour>
      <point x="-204" y="597" type="line"/>
      <point x="-202" y="600" type="line"/>
      <point x="-170" y="613"/>
      <point x="-147" y="636"/>
      <point x="-132" y="659" type="curve" smooth="yes"/>
      <point x="-103" y="705"/>
      <point x="-98" y="755"/>
      <point x="-48" y="755" type="curve" smooth="yes"/>
      <point x="-19" y="755"/>
      <point x="0" y="733"/>
      <point x="0" y="708" type="curve" smooth="yes"/>
      <point x="0" y="630"/>
      <point x="-120" y="603"/>
      <point x="-198" y="588" type="curve"/>
      <point x="-201" y="589" type="line"/>
    </contour>
  </outline>
</glyph>
<glyph name="dvKA_Nukta" format="1">
  <advance width="813"/>
  <unicode hex="0958"/>
  <outline>
    <contour>
      <point x="477" y="-125" type="move" name="blwm_Ukaar"/>
    </contour>
    <contour>
      <point x="477" y="0" type="move" name="blwm_Virama"/>
    </contour>
    <contour>
      <point x="477" y="560" type="move" name="abvm_Ekaar"/>
    </contour>
    <contour>
      <point x="477" y="560" type="move" name="abvm_Anusvara"/>
    </contour>
    <component base="dvKA"/>
    <component base="dvNukta" xOffset="418" yOffset="22"/>
  </outline>
</glyph>
<glyph name="dvKxA" format="1">
  <advance width="813"/>
  <unicode hex="0958"/>
  <outline>
    <contour>
      <point x="477" y="-125" type="move" name="blwm.u"/>
    </contour>
    <contour>
      <point x="477" y="0" type="move" name="blwm.virama"/>
    </contour>
    <contour>
      <point x="477" y="560" type="move" name="abvm.e"/>
    </contour>
    <contour>
      <point x="477" y="560" type="move" name="abvm.bindu"/>
    </contour>
    <component base="dvKA"/>
    <component base="dvNukta" xOffset="418" yOffset="22"/>
  </outline>
</glyph>
<glyph name="dvDDA_Nukta" format="1">
  <advance width="457"/>
  <unicode hex="095C"/>
  <outline>
    <contour>
      <point x="314" y="-235" type="move" name="blwm_Ukaar"/>
    </contour>
    <contour>
      <point x="316" y="-191" type="move" name="blwm_Virama"/>
    </contour>
    <contour>
      <point x="368" y="560" type="move" name="abvm_Ekaar"/>
    </contour>
    <contour>
      <point x="368" y="560" type="move" name="abvm_Anusvara"/>
    </contour>
    <component base="dvDDA"/>
    <component base="dvNukta" xOffset="480" yOffset="-20"/>
  </outline>
</glyph>
<glyph name="dvDDxA" format="1">
  <advance width="457"/>
  <unicode hex="095C"/>
  <outline>
    <contour>
      <point x="314" y="-235" type="move" name="blwm.u"/>
    </contour>
    <contour>
      <point x="316" y="-191" type="move" name="blwm.virama"/>
    </contour>
    <contour>
      <point x="368" y="560" type="move" name="abvm.e"/>
    </contour>
    <contour>
      <point x="368" y="560" type="move" name="abvm.bindu"/>
    </contour>
    <component base="dvDDA"/>
    <component base="dvNukta" xOffset="480" yOffset="-20"/>
  </outline>
</glyph>
<glyph name="dvDDHA_Nukta" format="1">
  <advance width="522"/>
  <unicode hex="095D"/>
  <outline>
    <contour>
      <point x="360" y="-242" type="move" name="blwm_Ukaar"/>
    </contour>
    <contour>
      <point x="360" y="-192" type="move" name="blwm_Virama"/>
    </contour>
    <contour>
      <point x="389" y="560" type="move" name="abvm_Ekaar"/>
    </contour>
    <contour>
      <point x="389" y="560" type="move" name="abvm_Anusvara"/>
    </contour>
    <component base="dvDDHA"/>
    <component base="dvNukta" xOffset="541" yOffset="-28"/>
  </outline>
</glyph>
<glyph name="dvPHA_Nukta" format="1">
  <advance width="823"/>
  <unicode hex="095E"/>
  <outline>
    <contour>
      <point x="487" y="-106" type="move" name="blwm_Ukaar"/>
    </contour>
    <contour>
      <point x="487" y="0" type="move" name="blwm_Virama"/>
    </contour>
    <contour>
      <point x="482" y="560" type="move" name="abvm_Ekaar"/>
    </contour>
    <contour>
      <point x="482" y="560" type="move" name="abvm_Anusvara"/>
    </contour>
    <component base="dvPHA" xOffset="5"/>
    <component base="dvNukta" xOffset="457" yOffset="64"/>
  </outline>
</glyph>
<glyph name="dvPHxA" format="1">
  <advance width="823"/>
  <unicode hex="095E"/>
  <outline>
    <contour>
      <point x="487" y="-106" type="move" name="blwm.u"/>
    </contour>
    <contour>
      <point x="487" y="0" type="move" name="blwm.virama"/>
    </contour>
    <contour>
      <point x="482" y="560" type="move" name="abvm.e"/>
    </contour>
    <contour>
      <point x="482" y="560" type="move" name="abvm.bindu"/>
    </contour>
    <component base="dvPHA" xOffset="5"/>
    <component base="dvNukta" xOffset="457" yOffset="64"/>
  </outline>
</glyph>
<glyph name="dvVocalicRR" format="1">
  <advance width="885"/>
  <unicode hex="0960"/>
  <outline>
    <contour>
      <point x="499" y="560" type="move" name="abvm_Anusvara"/>
    </contour>
    <contour>
      <point x="499" y="560" type="move" name="abvm_Ekaar"/>
    </contour>
    <contour>
      <point x="340" y="267" type="line"/>
      <point x="288" y="369"/>
      <point x="246" y="452"/>
      <point x="152" y="452" type="curve" smooth="yes"/>
      <point x="81" y="452"/>
      <point x="33" y="415"/>
      <point x="8" y="366" type="curve"/>
      <point x="23" y="355" type="line"/>
      <point x="36" y="374"/>
      <point x="56" y="384"/>
      <point x="77" y="384" type="curve" smooth="yes"/>
      <point x="140" y="384"/>
      <point x="186" y="270"/>
      <point x="240" y="178" type="curve"/>
    </contour>
    <contour>
      <point x="-20" y="560" type="line"/>
      <point x="-20" y="540" type="line"/>
      <point x="905" y="540" type="line"/>
      <point x="905" y="560" type="line"/>
    </contour>
    <contour>
      <point x="437" y="284" type="line"/>
      <point x="784" y="284" type="line"/>
      <point x="784" y="304" type="line"/>
      <point x="437" y="304" type="line"/>
    </contour>
    <contour>
      <point x="88" y="52" type="line"/>
      <point x="363" y="263" type="line"/>
      <point x="363" y="289" type="line"/>
      <point x="75" y="68" type="line"/>
    </contour>
    <contour>
      <point x="359" y="0" type="line"/>
      <point x="499" y="0" type="line"/>
      <point x="499" y="560" type="line"/>
      <point x="359" y="560" type="line"/>
    </contour>
    <contour>
      <point x="867" y="134" type="line"/>
      <point x="851" y="113"/>
      <point x="827" y="102"/>
      <point x="803" y="102" type="curve" smooth="yes"/>
      <point x="752" y="102"/>
      <point x="722" y="135"/>
      <point x="722" y="193" type="curve" smooth="yes"/>
      <point x="722" y="253"/>
      <point x="757" y="281"/>
      <point x="828" y="284" type="curve"/>
      <point x="828" y="304" type="line"/>
      <point x="774" y="309"/>
      <point x="717" y="328"/>
      <point x="717" y="388" type="curve" smooth="yes"/>
      <point x="717" y="434"/>
      <point x="746" y="456"/>
      <point x="783" y="456" type="curve" smooth="yes"/>
      <point x="806" y="456"/>
      <point x="824" y="446"/>
      <point x="835" y="437" type="curve"/>
      <point x="847" y="449" type="line"/>
      <point x="820" y="483"/>
      <point x="773" y="495"/>
      <point x="724" y="495" type="curve" smooth="yes"/>
      <point x="643" y="495"/>
      <point x="596" y="457"/>
      <point x="596" y="397" type="curve" smooth="yes"/>
      <point x="596" y="344"/>
      <point x="636" y="305"/>
      <point x="709" y="296" type="curve"/>
      <point x="709" y="290" type="line"/>
      <point x="625" y="286"/>
      <point x="584" y="246"/>
      <point x="584" y="181" type="curve" smooth="yes"/>
      <point x="584" y="103"/>
      <point x="646" y="54"/>
      <point x="733" y="54" type="curve" smooth="yes"/>
      <point x="807" y="54"/>
      <point x="856" y="85"/>
      <point x="880" y="126" type="curve"/>
    </contour>
  </outline>
</glyph>
<glyph name="dvvRR" format="1">
  <advance width="885"/>
  <unicode hex="0960"/>
  <outline>
    <contour>
      <point x="499" y="560" type="move" name="abvm.bindu"/>
    </contour>
    <contour>
      <point x="499" y="560" type="move" name="abvm.e"/>
    </contour>
    <contour>
      <point x="340" y="267" type="line"/>
      <point x="288" y="369"/>
      <point x="246" y="452"/>
      <point x="152" y="452" type="curve" smooth="yes"/>
      <point x="81" y="452"/>
      <point x="33" y="415"/>
      <point x="8" y="366" type="curve"/>
      <point x="23" y="355" type="line"/>
      <point x="36" y="374"/>
      <point x="56" y="384"/>
      <point x="77" y="384" type="curve" smooth="yes"/>
      <point x="140" y="384"/>
      <point x="186" y="270"/>
      <point x="240" y="178" type="curve"/>
    </contour>
    <contour>
      <point x="-20" y="560" type="line"/>
      <point x="-20" y="540" type="line"/>
      <point x="897" y="540" type="line"/>
      <point x="897" y="560" type="line"/>
    </contour>
    <contour>
      <point x="437" y="294" type="line"/>
      <point x="653" y="294" type="line"/>
      <point x="653" y="314" type="line"/>
      <point x="437" y="314" type="line"/>
    </contour>
    <contour>
      <point x="88" y="52" type="line"/>
      <point x="363" y="263" type="line"/>
      <point x="363" y="289" type="line"/>
      <point x="75" y="68" type="line"/>
    </contour>
    <contour>
      <point x="359" y="0" type="line"/>
      <point x="499" y="0" type="line"/>
      <point x="499" y="560" type="line"/>
      <point x="359" y="560" type="line"/>
    </contour>
    <contour>
      <point x="738" y="437" type="curve"/>
      <point x="769" y="437"/>
      <point x="789" y="419"/>
      <point x="789" y="387" type="curve" smooth="yes"/>
      <point x="789" y="326"/>
      <point x="727" y="314"/>
      <point x="693" y="314" type="curve"/>
      <point x="697" y="294" type="line"/>
      <point x="749" y="294"/>
      <point x="811" y="320"/>
      <point x="811" y="387" type="curve" smooth="yes"/>
      <point x="811" y="440"/>
      <point x="762" y="467"/>
      <point x="702" y="467" type="curve" smooth="yes"/>
      <point x="621" y="467"/>
      <point x="567" y="428"/>
      <point x="567" y="361" type="curve" smooth="yes"/>
      <point x="567" y="300"/>
      <point x="607" y="257"/>
      <point x="680" y="248" type="curve"/>
      <point x="680" y="242" type="line"/>
      <point x="596" y="238"/>
      <point x="555" y="198"/>
      <point x="555" y="144" type="curve" smooth="yes"/>
      <point x="555" y="76"/>
      <point x="617" y="47"/>
      <point x="691" y="45" type="curve"/>
      <point x="691" y="24" type="line"/>
      <point x="754" y="27" type="line"/>
      <point x="778" y="53" type="line"/>
      <point x="727" y="53"/>
      <point x="693" y="87"/>
      <point x="693" y="145" type="curve" smooth="yes"/>
      <point x="693" y="205"/>
      <point x="728" y="233"/>
      <point x="799" y="236" type="curve"/>
      <point x="799" y="256" type="line"/>
      <point x="745" y="261"/>
      <point x="683" y="283"/>
      <point x="683" y="367" type="curve" smooth="yes"/>
      <point x="683" y="404"/>
      <point x="699" y="437"/>
    </contour>
    <contour>
      <point x="800" y="53" type="line"/>
      <point x="759" y="53" type="line"/>
      <point x="751" y="44" type="line"/>
      <point x="606" y="40"/>
      <point x="545" y="-6"/>
      <point x="545" y="-70" type="curve" smooth="yes"/>
      <point x="545" y="-136"/>
      <point x="604" y="-187"/>
      <point x="722" y="-187" type="curve" smooth="yes"/>
      <point x="802" y="-187"/>
      <point x="861" y="-156"/>
      <point x="885" y="-104" type="curve"/>
      <point x="868" y="-94" type="line"/>
      <point x="847" y="-126"/>
      <point x="810" y="-151"/>
      <point x="769" y="-151" type="curve" smooth="yes"/>
      <point x="716" y="-151"/>
      <point x="686" y="-109"/>
      <point x="686" y="-66" type="curve" smooth="yes"/>
      <point x="686" y="-18"/>
      <point x="721" y="20"/>
      <point x="800" y="30" type="curve"/>
    </contour>
  </outline>
</glyph>
<glyph name="dvVocalicLL" format="1">
  <advance width="748"/>
  <unicode hex="0961"/>
  <outline>
    <contour>
      <point x="566" y="560" type="move" name="abvm_Anusvara"/>
    </contour>
    <contour>
      <point x="566" y="560" type="move" name="abvm_Ekaar"/>
    </contour>
    <contour>
      <point x="-20" y="560" type="line"/>
      <point x="768" y="560" type="line"/>
      <point x="768" y="540" type="line"/>
      <point x="-20" y="540" type="line"/>
    </contour>
    <contour>
      <point x="374" y="376" type="curve"/>
      <point x="398" y="416"/>
      <point x="439" y="446"/>
      <point x="510" y="446" type="curve" smooth="yes"/>
      <point x="622" y="446"/>
      <point x="704" y="368"/>
      <point x="704" y="240" type="curve"/>
      <point x="560" y="235" type="line"/>
      <point x="559" y="364"/>
      <point x="538" y="426"/>
      <point x="497" y="426" type="curve" smooth="yes"/>
      <point x="442" y="426"/>
      <point x="439" y="285"/>
      <point x="439" y="237" type="curve" smooth="yes"/>
      <point x="439" y="173" type="line"/>
      <point x="309" y="173" type="line"/>
      <point x="309" y="237" type="line" smooth="yes"/>
      <point x="309" y="285"/>
      <point x="306" y="426"/>
      <point x="251" y="426" type="curve" smooth="yes"/>
      <point x="209" y="426"/>
      <point x="188" y="362"/>
      <point x="188" y="227" type="curve" smooth="yes"/>
      <point x="188" y="100"/>
      <point x="215" y="64"/>
      <point x="264" y="64" type="curve" smooth="yes"/>
      <point x="280" y="64"/>
      <point x="292" y="70"/>
      <point x="299" y="75" type="curve"/>
      <point x="309" y="61" type="line"/>
      <point x="293" y="46"/>
      <point x="261" y="31"/>
      <point x="220" y="31" type="curve" smooth="yes"/>
      <point x="89" y="31"/>
      <point x="44" y="131"/>
      <point x="44" y="240" type="curve" smooth="yes"/>
      <point x="44" y="368"/>
      <point x="126" y="446"/>
      <point x="238" y="446" type="curve" smooth="yes"/>
      <point x="309" y="446"/>
      <point x="351" y="418"/>
    </contour>
    <contour>
      <point x="755" y="-100" type="line"/>
      <point x="731" y="-141"/>
      <point x="682" y="-172"/>
      <point x="608" y="-172" type="curve" smooth="yes"/>
      <point x="521" y="-172"/>
      <point x="459" y="-123"/>
      <point x="459" y="-45" type="curve" smooth="yes"/>
      <point x="459" y="20"/>
      <point x="500" y="60"/>
      <point x="584" y="64" type="curve"/>
      <point x="584" y="70" type="line"/>
      <point x="511" y="79"/>
      <point x="471" y="118"/>
      <point x="471" y="171" type="curve" smooth="yes"/>
      <point x="471" y="231"/>
      <point x="518" y="269"/>
      <point x="599" y="269" type="curve" smooth="yes"/>
      <point x="638" y="269"/>
      <point x="677" y="261"/>
      <point x="704" y="240" type="curve"/>
      <point x="704" y="219" type="line"/>
      <point x="693" y="225"/>
      <point x="675" y="230"/>
      <point x="658" y="230" type="curve" smooth="yes"/>
      <point x="621" y="230"/>
      <point x="592" y="208"/>
      <point x="592" y="162" type="curve" smooth="yes"/>
      <point x="592" y="102"/>
      <point x="649" y="83"/>
      <point x="703" y="78" type="curve"/>
      <point x="703" y="58" type="line"/>
      <point x="632" y="55"/>
      <point x="597" y="27"/>
      <point x="597" y="-33" type="curve" smooth="yes"/>
      <point x="597" y="-91"/>
      <point x="627" y="-124"/>
      <point x="678" y="-124" type="curve" smooth="yes"/>
      <point x="702" y="-124"/>
      <point x="726" y="-113"/>
      <point x="742" y="-92" type="curve"/>
    </contour>
    <contour>
      <point x="426" y="554" type="line"/>
      <point x="566" y="554" type="line"/>
      <point x="566" y="436" type="line"/>
      <point x="489" y="443" type="line"/>
      <point x="426" y="419" type="line"/>
    </contour>
  </outline>
</glyph>
<glyph name="dvDanda" format="1">
  <advance width="300"/>
  <unicode hex="0964"/>
  <outline>
    <contour>
      <point x="80" y="560" type="line"/>
      <point x="220" y="560" type="line"/>
      <point x="220" y="0" type="line"/>
      <point x="80" y="0" type="line"/>
    </contour>
  </outline>
</glyph>
<glyph name="doubledanda" format="1">
  <advance width="599"/>
  <unicode hex="0965"/>
  <outline>
    <contour>
      <point x="130" y="0" type="line"/>
      <point x="130" y="560" type="line"/>
      <point x="270" y="560" type="line"/>
      <point x="270" y="0" type="line"/>
    </contour>
    <contour>
      <point x="379" y="0" type="line"/>
      <point x="379" y="560" type="line"/>
      <point x="519" y="560" type="line"/>
      <point x="519" y="0" type="line"/>
    </contour>
  </outline>
</glyph>
<glyph name="dvGlottalStop" format="1">
  <advance width="448"/>
  <unicode hex="097D"/>
  <outline>
    <contour>
      <point x="18" y="470" type="curve" smooth="yes"/>
      <point x="18" y="417"/>
      <point x="50" y="392"/>
      <point x="87" y="392" type="curve" smooth="yes"/>
      <point x="124" y="392"/>
      <point x="148" y="416"/>
      <point x="148" y="449" type="curve" smooth="yes"/>
      <point x="148" y="476"/>
      <point x="137" y="491"/>
      <point x="118" y="502" type="curve" smooth="yes"/>
      <point x="97" y="514"/>
      <point x="81" y="513"/>
      <point x="81" y="534" type="curve" smooth="yes"/>
      <point x="81" y="554"/>
      <point x="115" y="581"/>
      <point x="164" y="581" type="curve" smooth="yes"/>
      <point x="237" y="581"/>
      <point x="266" y="535"/>
      <point x="266" y="444" type="curve" smooth="yes"/>
      <point x="266" y="280"/>
      <point x="197" y="289"/>
      <point x="197" y="180" type="curve" smooth="yes"/>
      <point x="197" y="0" type="line"/>
      <point x="215" y="0" type="line"/>
      <point x="215" y="180" type="line" smooth="yes"/>
      <point x="215" y="338"/>
      <point x="413" y="294"/>
      <point x="413" y="449" type="curve" smooth="yes"/>
      <point x="413" y="549"/>
      <point x="312" y="597"/>
      <point x="198" y="597" type="curve" smooth="yes"/>
      <point x="47" y="597"/>
      <point x="18" y="511"/>
    </contour>
  </outline>
</glyph>
<glyph name="endash" format="1">
  <advance width="522"/>
  <unicode hex="2013"/>
  <outline>
    <contour>
      <point x="30" y="206" type="line"/>
      <point x="492" y="206" type="line"/>
      <point x="492" y="226" type="line"/>
      <point x="30" y="226" type="line"/>
    </contour>
  </outline>
</glyph>
<glyph name="quotedblbase" format="1">
  <advance width="434"/>
  <unicode hex="201E"/>
  <outline>
    <contour>
      <point x="273" y="-143" type="line"/>
      <point x="363" y="-102"/>
      <point x="414" y="-37"/>
      <point x="414" y="38" type="curve" smooth="yes"/>
      <point x="414" y="85"/>
      <point x="382" y="137"/>
      <point x="319" y="137" type="curve" smooth="yes"/>
      <point x="272" y="137"/>
      <point x="240" y="101"/>
      <point x="240" y="57" type="curve" smooth="yes"/>
      <point x="240" y="10"/>
      <point x="276" y="-11"/>
      <point x="307" y="-11" type="curve" smooth="yes"/>
      <point x="325" y="-11"/>
      <point x="329" y="-5"/>
      <point x="344" y="-5" type="curve" smooth="yes"/>
      <point x="352" y="-5"/>
      <point x="360" y="-11"/>
      <point x="360" y="-21" type="curve" smooth="yes"/>
      <point x="360" y="-60"/>
      <point x="320" y="-96"/>
      <point x="266" y="-126" type="curve"/>
    </contour>
    <contour>
      <point x="53" y="-143" type="line"/>
      <point x="143" y="-102"/>
      <point x="194" y="-37"/>
      <point x="194" y="38" type="curve" smooth="yes"/>
      <point x="194" y="85"/>
      <point x="162" y="137"/>
      <point x="99" y="137" type="curve" smooth="yes"/>
      <point x="52" y="137"/>
      <point x="20" y="101"/>
      <point x="20" y="57" type="curve" smooth="yes"/>
      <point x="20" y="10"/>
      <point x="56" y="-11"/>
      <point x="87" y="-11" type="curve" smooth="yes"/>
      <point x="105" y="-11"/>
      <point x="109" y="-5"/>
      <point x="124" y="-5" type="curve" smooth="yes"/>
      <point x="132" y="-5"/>
      <point x="140" y="-11"/>
      <point x="140" y="-21" type="curve" smooth="yes"/>
      <point x="140" y="-60"/>
      <point x="100" y="-96"/>
      <point x="46" y="-126" type="curve"/>
    </contour>
  </outline>
</glyph>
<glyph name="ellipsis" format="1">
  <advance width="818"/>
  <unicode hex="2026"/>
  <outline>
    <contour>
      <point x="132" y="-10" type="curve" smooth="yes"/>
      <point x="187" y="-10"/>
      <point x="232" y="36"/>
      <point x="232" y="89" type="curve" smooth="yes"/>
      <point x="232" y="144"/>
      <point x="187" y="189"/>
      <point x="132" y="189" type="curve" smooth="yes"/>
      <point x="79" y="189"/>
      <point x="33" y="144"/>
      <point x="33" y="89" type="curve" smooth="yes"/>
      <point x="33" y="36"/>
      <point x="79" y="-10"/>
    </contour>
    <contour>
      <point x="392" y="-10" type="curve" smooth="yes"/>
      <point x="447" y="-10"/>
      <point x="492" y="36"/>
      <point x="492" y="89" type="curve" smooth="yes"/>
      <point x="492" y="144"/>
      <point x="447" y="189"/>
      <point x="392" y="189" type="curve" smooth="yes"/>
      <point x="339" y="189"/>
      <point x="293" y="144"/>
      <point x="293" y="89" type="curve" smooth="yes"/>
      <point x="293" y="36"/>
      <point x="339" y="-10"/>
    </contour>
    <contour>
      <point x="652" y="-10" type="curve" smooth="yes"/>
      <point x="707" y="-10"/>
      <point x="752" y="36"/>
      <point x="752" y="89" type="curve" smooth="yes"/>
      <point x="752" y="144"/>
      <point x="707" y="189"/>
      <point x="652" y="189" type="curve" smooth="yes"/>
      <point x="599" y="189"/>
      <point x="553" y="144"/>
      <point x="553" y="89" type="curve" smooth="yes"/>
      <point x="553" y="36"/>
      <point x="599" y="-10"/>
    </contour>
  </outline>
</glyph>
<glyph name="Euro" format="1">
  <advance width="597"/>
  <unicode hex="20AC"/>
  <outline>
    <contour>
      <point x="251" y="274" type="curve" smooth="yes"/>
      <point x="251" y="439"/>
      <point x="305" y="551"/>
      <point x="407" y="551" type="curve" smooth="yes"/>
      <point x="448" y="551"/>
      <point x="477" y="536"/>
      <point x="477" y="510" type="curve" smooth="yes"/>
      <point x="477" y="485"/>
      <point x="434" y="486"/>
      <point x="434" y="442" type="curve" smooth="yes"/>
      <point x="434" y="410"/>
      <point x="461" y="385"/>
      <point x="499" y="385" type="curve" smooth="yes"/>
      <point x="544" y="385"/>
      <point x="567" y="418"/>
      <point x="567" y="455" type="curve" smooth="yes"/>
      <point x="567" y="527"/>
      <point x="492" y="571"/>
      <point x="396" y="571" type="curve" smooth="yes"/>
      <point x="213" y="571"/>
      <point x="76" y="465"/>
      <point x="76" y="272" type="curve" smooth="yes"/>
      <point x="76" y="73"/>
      <point x="213" y="-13"/>
      <point x="396" y="-13" type="curve" smooth="yes"/>
      <point x="492" y="-13"/>
      <point x="567" y="31"/>
      <point x="567" y="103" type="curve" smooth="yes"/>
      <point x="567" y="140"/>
      <point x="544" y="173"/>
      <point x="499" y="173" type="curve" smooth="yes"/>
      <point x="461" y="173"/>
      <point x="434" y="148"/>
      <point x="434" y="116" type="curve" smooth="yes"/>
      <point x="434" y="72"/>
      <point x="477" y="73"/>
      <point x="477" y="48" type="curve" smooth="yes"/>
      <point x="477" y="22"/>
      <point x="448" y="7"/>
      <point x="407" y="7" type="curve" smooth="yes"/>
      <point x="305" y="7"/>
      <point x="251" y="109"/>
    </contour>
    <contour>
      <point x="407" y="229" type="line"/>
      <point x="20" y="229" type="line"/>
      <point x="20" y="209" type="line"/>
      <point x="407" y="209" type="line"/>
    </contour>
    <contour>
      <point x="407" y="358" type="line"/>
      <point x="20" y="358" type="line"/>
      <point x="20" y="338" type="line"/>
      <point x="407" y="338" type="line"/>
    </contour>
  </outline>
</glyph>
<glyph name="litre" format="1">
  <advance width="460"/>
  <unicode hex="2113"/>
  <outline>
    <contour>
      <point x="426" y="412" type="curve"/>
      <point x="426" y="522"/>
      <point x="354" y="563"/>
      <point x="279" y="563" type="curve"/>
      <point x="167" y="563"/>
      <point x="87" y="488"/>
      <point x="87" y="342" type="curve" smooth="yes"/>
      <point x="87" y="342"/>
      <point x="87" y="173"/>
      <point x="87" y="173" type="curve"/>
      <point x="87" y="27"/>
      <point x="149" y="-10"/>
      <point x="251" y="-10" type="curve" smooth="yes"/>
      <point x="298" y="-10"/>
      <point x="339" y="5"/>
      <point x="366" y="24" type="curve"/>
      <point x="366" y="44" type="line"/>
      <point x="354" y="36"/>
      <point x="324" y="34"/>
      <point x="303" y="34" type="curve" smooth="yes"/>
      <point x="229" y="34"/>
      <point x="229" y="118"/>
      <point x="229" y="196" type="curve"/>
      <point x="229" y="196"/>
      <point x="229" y="363"/>
      <point x="229" y="363" type="curve"/>
      <point x="229" y="482"/>
      <point x="235" y="543"/>
      <point x="278" y="543" type="curve"/>
      <point x="301" y="543"/>
      <point x="317" y="523"/>
      <point x="317" y="446" type="curve"/>
      <point x="316" y="230"/>
      <point x="223" y="133"/>
      <point x="30" y="133" type="curve" smooth="yes"/>
      <point x="30" y="133"/>
      <point x="30" y="113"/>
      <point x="30" y="113" type="curve"/>
      <point x="219" y="113"/>
      <point x="426" y="229"/>
    </contour>
  </outline>
</glyph>
<glyph name="uni2126" format="1">
  <advance width="500"/>
  <unicode hex="2126"/>
  <outline>
    <contour>
      <point x="11" y="0" type="line"/>
      <point x="281" y="0" type="line"/>
      <point x="281" y="119" type="line"/>
      <point x="217" y="137"/>
      <point x="193" y="200"/>
      <point x="193" y="347" type="curve"/>
      <point x="193" y="474"/>
      <point x="218" y="549"/>
      <point x="291" y="549" type="curve"/>
      <point x="364" y="549"/>
      <point x="391" y="474"/>
      <point x="391" y="347" type="curve"/>
      <point x="391" y="212"/>
      <point x="378" y="139"/>
      <point x="315" y="119" type="curve"/>
      <point x="315" y="0" type="line"/>
      <point x="575" y="0" type="line"/>
      <point x="575" y="159" type="line"/>
      <point x="555" y="159" type="line"/>
      <point x="555" y="99" type="line"/>
      <point x="367" y="99" type="line"/>
      <point x="367" y="99"/>
      <point x="367" y="103"/>
      <point x="367" y="103" type="curve" smooth="yes"/>
      <point x="468" y="123"/>
      <point x="544" y="181"/>
      <point x="544" y="327" type="curve" smooth="yes"/>
      <point x="544" y="507"/>
      <point x="406" y="569"/>
      <point x="291" y="569" type="curve"/>
      <point x="176" y="569"/>
      <point x="40" y="507"/>
      <point x="40" y="327" type="curve"/>
      <point x="40" y="192"/>
      <point x="119" y="123"/>
      <point x="217" y="103" type="curve"/>
      <point x="217" y="99" type="line"/>
      <point x="31" y="99" type="line"/>
      <point x="31" y="159" type="line"/>
      <point x="11" y="159" type="line"/>
    </contour>
  </outline>
</glyph>
